<?xml version="1.0" encoding="utf-8"?>
<!-- Generator: Adobe Illustrator 26.0.1, SVG Export Plug-In . SVG Version: 6.00 Build 0)  -->
<svg version="1.1" id="레이어_1" xmlns="http://www.w3.org/2000/svg" xmlns:xlink="http://www.w3.org/1999/xlink" x="0px"
	 y="0px" viewBox="0 0 1190.6 841.9" style="enable-background:new 0 0 1190.6 841.9;" xml:space="preserve">
<style type="text/css">
	.st0{fill:#FF6161;}
</style>
<g>
	<path class="st0" d="M910.3,570.8L910.3,570.8L910.3,570.8z"/>
	<polygon class="st0" points="830.5,578.3 830.5,578.3 830.5,578.3 	"/>
	<path class="st0" d="M1063.2,387.8c-0.5-0.9-0.2-1.5-0.2-2.2c-0.1-2.1,1.5-3.9,0.8-6c-0.5-0.6-0.3-1.4-0.4-2c0.3-2.6-1.2-5-0.8-7.5
		c0-0.4,0-0.8,0-1.2c0-0.4,0-0.8,0-1.2c-1-1.5-1.2-3.3-1.3-5.1c-0.1-1.1,0.1-2.3-0.8-3.2c-0.4-0.2-0.3-0.6-0.4-0.9
		c-0.5-2.8-1-5.5-3.3-7.5c-0.1-0.9,0.4-1.8-0.4-2.5l0,0c-0.1-0.4,0-0.9-0.5-1.2c-0.8-1.2-1.2-2.9-3.2-2.9c0.4-0.6,1.2-0.5,1.1-1.2
		c-0.2-1.3-0.4-2.6-1.7-3.3c-1.8-1.1-1.4-3.4-2.8-4.7c-2-3.9-4.4-7.4-7.6-10.3l0,0c-0.5-0.7-1-1.4-1.6-2.1c-2-2.6-4.5-4.8-6.7-7.2
		c-0.8-0.5-0.8-1.7-2-1.7c0-0.6-0.6-0.9-1-1.3c-4.7-4.3-9.5-8.5-14.5-12.5c-1.9-2-4.5-3-6.7-4.6c-0.4-1-1.2-1.4-2.1-1.6
		c-0.8-0.9-1.8-1.6-2.8-2.2c-1.2-0.7-2.8-1.1-3.7-2.4c-1.5-0.8-2.9-1.7-4.2-2.8c-1.2-1.1-2.6-2-4.3-2.1c-0.5-1.2-1.5-1.7-2.6-2
		c-1.1-0.4-1.6-1.6-2.8-1.8c-0.2-0.1-0.3-0.3-0.5-0.4c-1.4-0.3-2.4-1.1-3.4-2c-0.3-0.2-0.7-0.6-1.1-0.4c-1.3-0.1-1.8-1.6-3-1.7
		c-1.7-1.4-4-1.7-5.8-3.1c-1.8-1.5-4.1-1.9-5.9-3.2c-1.7-0.9-3.6-1.5-5.4-2.1c-0.3-0.5-0.8-0.9-1.3-1.1c0,0,0-0.1,0-0.1
		c0,0,0,0-0.1,0.1c-0.5-0.2-1-0.4-1.5-0.6c-0.6-0.5-1.3-0.7-2.1-0.9c-1.5-0.4-3-0.9-4.2-2c-0.5-0.5-1.1-0.4-1.6-0.4
		c-0.4-0.6-1.1-0.7-1.7-0.8c-0.5-0.3-1-0.6-1.6-0.9c-1.8-0.9-3.6-2-5.5-2.6c-2.9-1-5.5-2.7-8.7-2.8c-0.1-0.1-0.3-0.3-0.4-0.4
		c-0.3-0.7-1.3-0.2-1.6-0.9c-1.3-0.7-2.5-1.3-3.8-2c-1.4-0.4-2.8-0.9-4.1-1.3c-0.3-0.4-0.6-0.7-1.2-0.8c-3.7-0.2-6.4-2.8-9.7-3.9
		c-1.3-0.4-2.7-0.7-3.8-1.6c-1.4-0.6-3.2-0.1-4.2-1.6c-0.7,0-1.3-1.1-2.1-0.2l0,0c-0.8-0.5-1.3-1.6-2.5-1.6c-0.9,0-1.7-0.3-2.5-0.8
		c-2-0.7-3.9-1.3-5.9-2c-3.5-1.1-6.9-2.3-10.4-3.4c-1.4-0.3-3-1.9-4.1,0.3c-0.8-0.3,0-1.3-0.9-1.4c-0.3-0.2-0.5-0.4-0.8-0.5
		c-1.1-0.6-2.4-1.4-3.4-0.9c-1.1,0.6-1.4,0.1-2-0.4c-0.8-1.2-2-0.4-3-0.8c-1.3-0.7-3-0.2-4.2-1.2c-0.2,0-0.5-0.1-0.8-0.1
		c-0.3-0.5-0.8-0.4-1.2-0.4c-0.8-0.5-1.8-0.4-2.7-0.3c-0.9-0.6-1.8-0.8-2.9-0.5c-1.8-0.3-3.5-1.4-5.4-1.2c-1.6-1-3.5,0.1-5-0.8
		c-1.7,0-3.1-0.9-4.6-1.3c-0.2-0.1-0.5,0-0.8,0.1c-1.4,0.3-2.8-1-4-0.4c-1.2,0.5-1.8,0-2.6-0.3c-0.2,0.6-0.5,1.6-1.3,1.1
		c-1.3-0.9-2.3-0.2-3.5,0.1c-2.4,0.6-3.7-1.3-5.4-2.5c-0.8,0.4-1.8,0.6-2.5,0.1c-1.3-0.7-2.7-0.6-4.1-1.1c-1.1-0.5-2.3-0.4-3.5-0.4
		c-0.8-0.1-1.6-0.2-2.5-0.3c-1,0.1-2-0.1-3,0.4c-0.2-0.1-0.3-0.3-0.5-0.4c-1.5-0.2-3.1-0.5-4.6-0.8c-0.7-0.2-1.5-0.4-1.6,0.5
		c-0.1,1.6-1.1,0.6-1.7,0.7c0.2,0.5,0.1,0.7-0.1,0.9c0.1-0.3,0.1-0.6,0.1-0.9h0c-0.3-0.8-1.2-0.3-1.8-0.8c-1.3-1.4-2.9-1.1-4.5-0.4
		c-1.6-0.5-3.2-1.2-5-0.4c-0.5,0.2-1,1.1-1.5-0.1c-0.2-0.4-0.6-0.5-1-0.4c-0.6-0.1-1.1-0.3-1.7,0c-2.1-0.1-4.1-0.8-6.2-0.3
		c-1.3-0.3-2.6-0.3-3.9-0.3c-2.3-0.1-4.7,0-7-0.1c-2.5-0.2-4.9-0.6-7.4-0.4c-2.4-0.1-4.8-0.3-7.2-0.4c-0.6-0.2-1.1-0.1-1.7,0.1
		c-1.5-0.5-3-0.7-4.6-0.4c-0.3,0-0.6,0-0.8,0c-0.7,0-1.4,0-2.1,0c-0.3,0-0.5,0-0.8,0c-0.2-0.1-0.6-0.2-0.9-0.2
		c-1.8-0.4-3.6-0.2-5.4-0.2c-3.1-0.1-6.1-0.8-9.2-0.4c-7.1-0.2-14.2-0.5-21.3-0.7c-7.9-0.3-15.8-0.1-23.7-0.9
		c-8.8-0.9-17.5-2.2-26.3-2.6c-8-0.3-16.1-1.3-24.1-1.1c-9.2,0.2-18.4-0.7-27.7-1.1c-10.2-0.4-20.4-0.8-30.5-1
		c-5.2-0.1-10.4,0-15.6,0c-5.3,0-10.5,0-15.8,0.2c-8.7,0.3-17.5,1.1-26.2,1.5c-1.4,0.1-2.5,1.3-3.7,1c-3-0.8-5.8,0.1-8.6,0.3
		c-5.1,0.4-10.2,0.8-15.2,1.5c-3.4,0.4-6.8,0.3-10.1,1.3c-1.8,0.5-3.7-0.7-5.5,0.3c-7.8,0.8-15.7,1.3-23.5,1.4c-8,0.2-16,0.5-24,0.7
		c-2.6,0.1-5.3-0.1-7.9,0.5c-4-0.1-7.9,0.5-11.8,0.8c-3,0.2-6.1,0.6-9.1,0.9c-1.2,0.6-2.6-0.7-3.8,0.3c-2.6-0.2-5.2,0.5-7.9,0.5
		c-1.8,0.2-3.6,0.5-5.4,0.6c-1.4,0.1-2.9-0.1-4.2,0.7c-3,0.1-6-0.1-8.8,1.2c-1.4,0.2-2.8-1-4.2,0c-0.1,0.1-0.3,0.2-0.5,0.4
		c-1,0.5-2.4-0.7-3.3,0.5c-0.1,0.1-0.3,0.3-0.5,0.4c-2.4-0.5-4.7-0.2-7,0.2c-0.2,0-0.4,0-0.6,0.1c-0.8,0.1-1.5,0.3-2.1,0.8
		c-1.3-0.6-2.6-0.5-3.8,0c-0.1,0-0.2,0.1-0.3,0.1c-0.9,0.1-1.7,0.4-2.6,0.5c-1.7,0.2-3.4,0.3-5,1.1c-1.8,0.3-3.7,1-5.5,0.9
		c-3.5-0.1-6.7,1.1-10,2c-0.1,0-0.2,0-0.3,0.1c-1.2,0.2-2.6-0.2-3.8,0.4c-0.6,0.1-1.2-0.2-1.7,0.4c-3.2,0.7-6.4,1.4-9.6,2
		c-2,1.1-4.1,1.5-6.2,2.1c-3.6-0.3-6.5,1.6-9.6,3c-3,0.8-6,1.4-8.8,2.5c-0.4,0-0.9,0.1-1.2,0.4c-1.1,0.4-2.3,0.8-3.4,1.2
		c-0.7,0.3-1.4,0.5-2.1,0.8c-0.9,0.6-2,0.9-3,1.2c-0.1,0-0.2,0.1-0.3,0.1c-2.2,0.9-4.4,1.8-6.6,2.7c-0.8,0.3-1.7,0.5-2.2,1.4
		c-3.1,0.5-5.4,2.9-8.4,3.6c-0.2,0-0.5,0-0.8,0.1c-1.6,1.3-3.6,2-5.4,3c-2,0.2-3.6,1.2-5.1,2.4c-1,0.4-2,0.8-2.9,1.2
		c-3.8,1.1-6.6,4.3-10.4,5.5c-1.5,0.8-3,1.7-4.6,2.5c-2.5,0.7-4.1,3.1-6.7,3.8c-0.3,0.2-0.6,0.5-0.9,0.8c-1.6,1.4-3.5,2.1-5.4,3
		c-0.1,0-0.3,0-0.4,0.1c-2.6,0.9-4.7,2.7-6.8,4.5c-1,0.4-1.8,0.9-2.5,1.7c-1.3,0.1-2.4,0.8-3.3,1.7c-0.6,0.2-0.9,0.8-1.5,1
		c-2.8,1-4.8,3.3-7.2,5c-1.7,1.3-3.4,2.7-5.1,4c-0.2,0.2-0.5,0.3-0.7,0.5c-2.6,1.1-4.1,3.4-5.8,5.4c-0.9,1.4-2.8,1.5-3.8,2.9
		c-0.9,0-1.1,0.6-1.2,1.4c-0.2,1.1-1.1,2-1.9,2.3c-1.7,0.5-2.5,1.9-3.6,3c-0.1,0.1-0.3,0.3-0.4,0.4c-1.4,1-2.2,2.5-3.3,3.8
		c-0.4,0.1-0.4,0.5-0.4,0.8c-0.9,0.2-0.2,1.4-0.6,1.5c-1.8,0.4-1.9,2.2-2.9,3.2c-0.1,0.1-0.2,0.2-0.3,0.2c-0.9,1.4-1.9,2.9-2.8,4.3
		c-0.1,0.1-0.2,0.2-0.2,0.3c-0.6,0.9-1.2,1.8-1.1,2.9l0,0c-1.3,0.6-1.6,2-2.4,3c-1.4,1.5-1.4,3.8-2.6,5.4c-0.8,0.4-0.5,1.4-1.2,1.8
		c-1,1.2-0.6,3-1.7,4.1c-0.3,0.1-0.5,0.4-0.5,0.7c-1.3,2.9-2.5,5.9-3.8,8.8c-0.6,0.6-1.4,1.2-0.8,2.2c-0.4,0.7-1.2,1.1-1.1,2
		c-0.1,0.1-0.1,0.2-0.1,0.3c-0.1,0.3-0.1,0.5-0.1,0.7c-0.3,1.2-1.4,2.2-1.1,3.6c-0.3,0.7-0.6,1.4-0.9,2.1c-1.4,2.5-1.2,5.4-2.5,7.9
		l0,0c-0.1,0.2-0.1,0.3-0.1,0.5c-0.8,2.5-1.5,5-2.2,7.5c-0.2,0.8-0.8,1.6-0.4,2.5c-0.2,1.1-0.3,2.2-0.5,3.4
		c-0.4,0.5-0.9,0.9-0.9,1.6c-0.5,0.6-0.4,1.4-0.4,2.1c-0.5,0.5-0.3,1.1-0.1,1.7c0.4,1.1,0.1,2.1-0.8,2.9c-0.6,0.7-0.3,1.5-0.4,2.3
		c-0.1,1.7-0.1,3.3-0.7,4.9c-0.2,0.5-0.2,0.9-0.3,1.3c-0.4,1.9-0.6,3.8-0.6,5.7c-0.3,1.8-0.5,3.6-0.8,5.4c0.6,1.6,0.1,3.1-0.6,4.5
		c-0.2,1.7-0.9,3.5,0.5,5.1c-0.1,0.8-0.2,1.7-0.3,2.5c-0.3,3,0.3,5.9,1,8.8c0.3,1.1,0.4,2.4,1.4,3.3c-0.7,0.9-0.4,1.7,0.2,2.4
		c0.3,0.4,0.8,0.7,0.8,1.2c0.1,3.3,3,5.6,3.2,8.9c0.2,0.7,0.6,1.3,1.2,1.7c0,1.7,1.1,2.9,2.1,4.2c0.6,1.2,1.2,2.5,1.9,3.6
		c3.7,6,7.4,12,12.2,17.3c0.9,0.6,1,1.8,1.7,2.5c1.3,1.5,2.5,3,3.8,4.5c1.6,1.5,2.3,3.8,4.2,5l0,0c0.5,0.6,0.7,1.4,0.9,2.2
		c0.3,1.8-0.1,3.7,0.2,5.5c0,0.2,0.1,0.4,0.2,0.6c0.5,2.5,0.1,5.1,1.3,7.5c0.1,1,0.3,2,0.4,2.9l0,0c0.5,1.4,0.1,3,1.2,4.1
		c-0.1,0.3-0.1,0.6,0.1,0.9c1,1.1,1.4,2.3,1.3,3.8c0.1,0.4,0.3,0.8,0.4,1.2c0.9,0.8,0.3,2.2,1.2,2.9l0,0c1.5,0.6,1,2.3,1.7,3.3
		c0.3,1.5,1.1,2.7,2,3.8c0,0.1,0,0.2,0.1,0.3c1.2,0.8,1.5,2.2,2.1,3.3c0.6,0.7,0.8,1.6,1.6,2.2c1.1,1.6,1.9,3.3,3.4,4.5
		c0.1,0.2,0.2,0.3,0.4,0.5c0.6,1.7,2.9,1.9,3.4,3.7c3.5,4.1,7.8,7.2,12,10.5c0.1,0.5,0.6,0.5,0.9,0.6c1,0.4,2.4,0.9,2.6,1.9
		c0.3,1.6,1.2,2.5,2.4,3.3c1.3,1.3,3.2,1.5,4.7,2.4c0.2,0.2,0.5,0.3,0.7,0.5c6.1,3.3,12.4,6,18.8,8.8c0.7,0.3,1.4,0.5,2.1,0.8
		c0.7,0.7,1.6,1,2.6,1.2c1,0.4,1.9,0.8,2.9,1.3c0.3,0.2,0.6,0.3,0.9,0.4c3.4,1.5,6.8,3,10.4,4.2c3.3,1.5,6.6,2.7,10,3.8
		c0.3,0.3,0.7,0.4,1.2,0.4c0.5,0.5,1.1,0.6,1.7,0.8c1.1,0.7,2.3,0.5,3.4,0.4c-0.1,0.4-0.2,0.7,0.3,0.9c2,1,4.1,1.6,6.3,2.1
		c1.8,1,3.8,1.7,5.8,2.1c0.1,0.1,0.3,0.1,0.4,0.1c1.7,0.5,3.3,1,5,1.5c0.5,0.4,1.1,0.3,1.7,0.4c-0.2-0.9,0.4-1.2,1.1-1.3
		c0,0,0,0,0,0c-0.8,0.1-1.3,0.4-1.1,1.3c1.3,0.8,2.7,1,4.2,1.3c11.9,3.5,24,6.3,36.3,8c0.3-0.1,0.6-0.1,1-0.1
		c-0.2,0.1-0.5,0.1-0.7,0.1c2.9,0.5,5.7,0.8,8.5,1.4c1.9,0.4,4,0,5.8,0.7c0.2,0.3,0.6,0.3,0.9,0.3c4.5,0.3,8.9,1.3,13.4,1.5
		c3,0.2,6,0.8,9,1.2c8.1,0.9,16.2,1.4,24.2,2.3c9.9,1.1,19.8,2.5,29.8,2.9c4.2,0.1,8.4-0.1,12.5,0.7c7.8,1.5,15.6,3.1,23.5,4.7
		c11,2.2,22.1,3.6,33.1,5.2c1.9,0,3.6,1.1,5.5,0.8c7.1,1,14.2,2.2,21.3,3.1c3.1,0.4,6.3,0.4,9.4,0.8c8.8,1,17.6,1.6,26.5,2
		c0.1-0.2,0.3-0.2,0.5-0.2c-0.2,0.1-0.3,0.1-0.5,0.2c1.7,0,3.4,0,5.1,0.1c1.7-0.9,3.3,0.3,5,0.2c5.4-0.3,10.9-0.2,16.3-0.4
		c4.6-0.2,9,1.2,13.5,1.9c1.4,0.3,2.8,0.6,4.2,0.9c0.7,0.4,1.4,0.3,2.2,0.4c1.8,0.3,3.7,0.1,5.4,0.8c0.8,0.6,1.7,0.2,2.6,0.3
		c1.1,0.2,2.2,0.3,3.2,0.5c3,0.1,5.8,1.3,8.7,1.2c0,0,0,0,0,0c0.1,0,0.2,0,0.4,0.1c3.6,0.8,7.3,0.8,11,1.1c1.8,0.1,3.6,0.1,5.4,0.4
		c2.8,0.5,5.6,0,8.4,0.4c5.1,0.7,10.2-0.8,15.3-0.3c0.4,0,0.9-0.3,1.3-0.5c2.5,0.3,5,0.8,7.5,0c0.3,0.4,0.6,0.3,0.9,0
		c0.6,0.2,1-0.5,1.5-0.4c3.1,0.5,6.2,0,9.2-0.1c4,0.3,8.1-0.4,12.1-0.3c0.1,0,0.3,0,0.4,0c5.8,0.1,11.7,0.2,17.5,0.4
		c2.2,0.2,4.4-0.9,6.8,0c0.7,0.3,2,0.6,2.9-0.3c1.1-0.3,2.2-0.5,3.3,0c1,1.3,2.3-0.5,3.3,0.4c0.6,0.1,1.2,0.4,1.7-0.3
		c0.7,0,1.3,0,2,0c0.6,0.7,1.3,0.3,2,0.4c0.9,0.8,2,0.2,3,0.3c0.3,0,0.5,0,0.8,0c1.5,0.4,3.1-0.4,4.6,0.5c3.7,0.5,7.5,0.7,11.3,0.4
		c1.3,1.1,2.8-0.3,4.1,0.1c3,1.1,6.1,0.5,9,0c4.2-0.8,8.3,0.1,12.4-0.9c2.3,0,4.4-0.7,6.7-0.9c2.2-0.6,4.3-1.7,6.7-1.7
		c2.2,0.2,4.3-0.2,6.2-1.3c2.3-1,5.1-0.5,7.1-2.4c2.8,0.1,5-1.6,7.5-2.2c0.7-0.3,1.4-0.5,2.2-0.8c0.8-0.1,1.4-0.4,2-0.8
		c1-0.7,2.2-1.2,3.5-1.3c0.7-0.1,1.5-0.1,2-0.8c0.2-0.2,0.5-0.3,0.7-0.5c1.4-0.9,2.9-1.7,4.6-1.6c1.3-0.8,2.6-1.8,4.3-1.8
		c0.1,0,0.2-0.2,0.3-0.2c1.7-0.7,3.4-1.4,5.1-2.2c0.6-0.2,1.3-0.3,1.2-1.2c1.2,0.1,2.2-0.3,3.2-0.9c1-0.6,2-1.2,3.1-1.5
		c0.1,0,0.2-0.1,0.3-0.1l0,0c0.9-1,2.1-1.2,3.3-1.3c0.4-0.3,0.8-0.6,1.2-0.9c0.9-0.1,1.8-0.1,2.4-0.9c0.2-0.1,0.3-0.2,0.5-0.3
		c0,0,0.1,0.1,0.2,0.1c0,0,0.2,0,0.2-0.1c0.6-1.4,1.9-1.5,3-1.8c3.2-0.9,6-2.7,9.2-3.7c1-1.4,3.3-0.4,4.2-2.1
		c0.4-0.7,1.3-0.2,1.7-0.8c2.8-0.8,4.7-3.4,7.8-3.8c0.7-0.1,1.1-0.9,1.4-1.6c1.5,0,3-0.3,4.2-1.3c2.5-1.1,5-2.4,7.4-3.8
		c2.4-1.4,4.6-2.9,6.8-4.5c1.3-0.9,3-1.3,4.2-2.5c3.5-2.1,6-6,10.5-6.7l0,0c2.2-0.7,4.4-1.4,6.6-2.1l0,0l0,0c3.3-0.2,6.1-2,9.3-2.8
		c3.3-0.8,6.5-2,9.8-2.8c1.6-0.3,3.6-0.3,4.7-2c1.5,0.8,2.7-0.1,3.8-0.9c0.6-0.5,1.2-1,2-1c2.5,0.1,4.1-1.8,6.3-2.3
		c0-0.1,0.1-0.1,0.1-0.2c1-1.4,2.6-1.7,4-2.4c0.3-0.4,0.7-0.8,1.3-0.9c0.5-0.5,0.9-1.1,1.8-1c0.5,0,1.1-0.2,1.2-0.6
		c0.5-2.1,2.2-2.6,3.8-3.2c0.6-0.2,1.2-0.5,1.2-1.2c0.2-0.3,0.5-0.6,0.7-0.9c0.8-0.2,1.6-0.6,1.6-1.7c0-0.6,0.4-1,0.9-1.2
		c1.8-0.3,2.3-2,3.3-3.3c1.1-0.1,1.6-0.9,2.1-1.7c1.1-0.8,1-2.4,2.1-3.3c0.5-0.3,0.5-0.9,0.7-1.3c0.4-0.4,0.9-0.9,1.3-1.3
		c0.2-1.8,2.4-2,2.8-3.5c0.9-2.9,3.1-4.8,4.7-7.2c0.1-0.1,0.2-0.2,0.1-0.3c1.2-2.7,3.4-4.9,3.7-8c1.2-0.2,1.4-1.3,1.4-2
		c-0.1-1.4,0.5-2.4,1.2-3.4c0.4-0.3,0.4-0.7,0.4-1.1c0.1-0.5,0.2-0.9,0.4-1.4c1-1,0.1-2.3,0.7-3.4c1.3-2.6,1.5-5.4,1.5-8.3
		c0.6-0.6,0.8-1.5,0.7-2.3c-0.2-3,1.2-5.2,3.5-7c6.5-5.8,11.9-12.6,17.5-19.3c0.9-1.4,2.1-2.6,3.4-3.7c0.3-0.3,0.6-0.5,0.8-0.8
		c0.9-0.3,1.5-1,2.1-1.7c2.7-2.4,5.3-4.8,8-7.1c5.3-4.8,10.3-10,14.9-15.4c0.6-0.7,1.1-1.4,1.7-2.1c0.3-0.4,0.5-0.9,0.8-1.3
		c1.3-1.4,2.6-2.8,3.4-4.5c1.8-1.1,2.6-3,3.7-4.6c0.5-0.9,1.1-1.7,1.6-2.6c1-1,1.8-2.2,2.2-3.6l0,0c0.6-0.9,1.4-1.7,1.3-2.9
		c0.6-0.3,0.6-0.8,0.8-1.3c0.8-0.5,1-1.3,0.9-2.1c-0.1-1.2,0.4-2.1,1.2-2.9c0.7-2.4,1.3-4.7,2-7.1c-0.1-0.9,1-1.2,0.9-2.1
		c0.4-3,1.9-5.7,1.6-8.8c0.2-0.4,0.6-0.7,0.4-1.2c-0.1-0.1-0.2-0.3-0.2-0.4c0.1,0.1,0.1,0.3,0.2,0.4
		C1062.7,390.4,1063.9,389.1,1063.2,387.8z M949.8,302L949.8,302L949.8,302C949.8,302,949.8,302,949.8,302z M1025.2,318.2
		C1025.3,318.1,1025.3,318.1,1025.2,318.2C1025.3,318.1,1025.3,318.1,1025.2,318.2C1025.3,318.2,1025.2,318.2,1025.2,318.2z
		 M1025.2,318.2L1025.2,318.2C1025.3,318.2,1025.3,318.3,1025.2,318.2C1025.3,318.3,1025.3,318.2,1025.2,318.2z M1025.8,320.3
		c0,0.8,0.6,1.2,1.4,1.5c0,0,0,0,0,0C1026.4,321.5,1025.8,321,1025.8,320.3z M1031.5,321.4c-0.1-0.4-0.2-0.6-0.2-0.8
		c0.2,0.2,0.3,0.4,0.2,0.7C1031.5,321.3,1031.5,321.3,1031.5,321.4z M1045.5,342.4c-0.4-0.1-0.8-0.2-1-0.6
		C1044.7,342.2,1045.1,342.3,1045.5,342.4z M1044.5,341.1L1044.5,341.1C1044.5,341.1,1044.5,341.1,1044.5,341.1
		C1044.5,341.1,1044.5,341.1,1044.5,341.1z M1044.6,337.3L1044.6,337.3L1044.6,337.3C1044.6,337.2,1044.6,337.2,1044.6,337.3z
		 M1057.2,373.5L1057.2,373.5c0,0,0-0.1,0-0.1C1057.2,373.4,1057.2,373.5,1057.2,373.5z M1057.2,373.5
		C1057.2,373.5,1057.2,373.5,1057.2,373.5C1057.2,373.5,1057.2,373.5,1057.2,373.5c0,0.1,0,0.2,0,0.2
		C1057.2,373.7,1057.2,373.6,1057.2,373.5z M1053.9,395.5c0,0-0.1-0.1-0.1-0.1c0.1,0,0.1,0,0.2,0.1
		C1054,395.4,1053.9,395.4,1053.9,395.5z M1047.3,352.3C1047.3,352.3,1047.3,352.3,1047.3,352.3c0,0.1,0,0.1,0.1,0.1
		C1047.3,352.4,1047.3,352.4,1047.3,352.3C1047.3,352.3,1047.3,352.3,1047.3,352.3z M1049.3,346.9c-0.1-0.2-0.2-0.4-0.2-0.6
		C1049.3,346.5,1049.4,346.7,1049.3,346.9z M1045.5,336.2L1045.5,336.2L1045.5,336.2L1045.5,336.2c-0.1,0-0.1,0-0.2,0
		C1045.4,336.2,1045.5,336.2,1045.5,336.2z M1040.5,327.1C1040.5,327.1,1040.5,327.1,1040.5,327.1
		C1040.5,327.1,1040.5,327.1,1040.5,327.1C1040.5,327.1,1040.5,327.1,1040.5,327.1z M1040.4,326.4c0,0,0-0.1,0-0.1
		C1040.4,326.3,1040.4,326.3,1040.4,326.4C1040.4,326.4,1040.4,326.4,1040.4,326.4z M1044.6,346.5c0.1-0.2,0.1-0.4,0.3-0.5
		C1044.8,346.2,1044.7,346.4,1044.6,346.5z M1049.1,376.2c0,0.1,0,0.2-0.1,0.3C1049,376.4,1049,376.3,1049.1,376.2z M1023.6,406.7
		C1023.6,406.7,1023.6,406.7,1023.6,406.7c0,0,0.1,0,0.1,0C1023.7,406.7,1023.6,406.7,1023.6,406.7
		C1023.6,406.7,1023.6,406.7,1023.6,406.7z M997.1,337L997.1,337C997.1,337,997.1,337,997.1,337C997.1,337,997.1,337,997.1,337
		C997.1,337,997.1,337,997.1,337C997.1,337,997.1,337,997.1,337L997.1,337C997.1,337,997.1,337,997.1,337
		C997.1,337,997.1,337,997.1,337L997.1,337z M985,318.2L985,318.2L985,318.2L985,318.2z M986,318.1c0.2-0.1,0.3-0.3,0.1-0.4
		C986.3,317.8,986.2,317.9,986,318.1z M976.6,315.7L976.6,315.7C976.6,315.7,976.6,315.7,976.6,315.7L976.6,315.7L976.6,315.7
		C976.6,315.7,976.6,315.7,976.6,315.7L976.6,315.7C976.6,315.7,976.6,315.7,976.6,315.7C976.6,315.7,976.6,315.7,976.6,315.7z
		 M976.7,315.7L976.7,315.7L976.7,315.7L976.7,315.7z M976.7,315.8C976.7,315.8,976.7,315.8,976.7,315.8
		C976.7,315.8,976.7,315.8,976.7,315.8C976.7,315.8,976.7,315.8,976.7,315.8C976.7,315.8,976.7,315.8,976.7,315.8z M990,332.7
		c0,0,0,0.1,0,0.1c0,0-0.1,0-0.2,0C989.9,332.8,989.9,332.8,990,332.7z M1030.9,387.1C1030.9,387.1,1030.9,387,1030.9,387.1
		C1031,387,1031,387.1,1030.9,387.1C1031,387.1,1031,387.1,1030.9,387.1L1030.9,387.1C1030.9,387.1,1030.9,387.1,1030.9,387.1
		L1030.9,387.1C1030.9,387.1,1030.9,387.1,1030.9,387.1C1030.9,387.1,1030.9,387.1,1030.9,387.1L1030.9,387.1z M1026.9,385
		c0.1,0.1,0.1,0.2,0.1,0.4C1026.9,385.2,1026.8,385.1,1026.9,385C1026.8,384.9,1026.9,385,1026.9,385z M1014.2,346.5
		c0.1,0,0.2,0.1,0.2,0.3c-0.1,0.1-0.3,0.2-0.4,0.2C1014.1,346.8,1014.2,346.6,1014.2,346.5z M1012.2,346.7L1012.2,346.7
		c0,0,0.1,0.1,0.2,0.1C1012.3,346.7,1012.2,346.7,1012.2,346.7z M1020.2,357.5c0.1,0.1,0.2,0.1,0.3,0.2c0,0-0.1,0.1-0.1,0.1
		C1020.4,357.7,1020.3,357.6,1020.2,357.5z M926.9,280.2c-1-0.4-1.9-0.9-2.8-1.3C925,279.3,925.9,279.8,926.9,280.2
		C926.9,280.2,926.9,280.2,926.9,280.2L926.9,280.2z M893.5,273.5L893.5,273.5L893.5,273.5L893.5,273.5z M888.3,276.1
		c0,0,0-0.1,0.1-0.2c0.1,0,0.1,0,0.2,0.1C888.5,276,888.5,276.1,888.3,276.1c0,0.1,0,0.2-0.1,0.2
		C888.2,276.2,888.3,276.2,888.3,276.1z M1000.2,289.3c0,0.1,0,0.1,0,0.2C1000.2,289.4,1000.2,289.3,1000.2,289.3
		C1000.2,289.3,1000.2,289.3,1000.2,289.3z M1000.8,296.5C1000.8,296.4,1000.8,296.4,1000.8,296.5
		C1000.8,296.4,1000.8,296.4,1000.8,296.5C1000.8,296.4,1000.8,296.4,1000.8,296.5z M1008,303.6c0,0.1,0,0.1,0,0.2l0,0l0,0
		C1008,303.8,1008,303.7,1008,303.6z M1000,293.1C1000,293.1,1000,293.1,1000,293.1C1000,293.1,1000,293.1,1000,293.1
		C1000,293.1,1000,293.1,1000,293.1c2,0.2,2.3,0.3,1.7,1.9C1002.3,293.4,1002,293.4,1000,293.1z M1014.1,300.9
		C1014.1,300.9,1014.1,301,1014.1,300.9c-0.2,0-0.2-0.1-0.3-0.2C1014,300.8,1014,300.9,1014.1,300.9z M1008.9,295.7
		c-0.1,0.1-0.2,0.3-0.4,0.4C1008.6,296,1008.8,295.9,1008.9,295.7z M1002.9,296.2c-0.1-0.6-0.5-0.6-1-0.6
		C1002.3,295.6,1002.7,295.6,1002.9,296.2C1002.9,296.2,1002.9,296.2,1002.9,296.2z M995.1,294c-0.5-0.5-1.1-0.5-1.8-0.5h0v0v0
		C993.9,293.4,994.6,293.4,995.1,294z M926.1,256.9c0.1,0.4,0.1,0.8,0.3,1.2C926.3,257.7,926.2,257.2,926.1,256.9L926.1,256.9
		C926.1,256.9,926.1,256.9,926.1,256.9L926.1,256.9L926.1,256.9z M926.1,256.9L926.1,256.9L926.1,256.9L926.1,256.9z M911.5,252.4
		c0.1-0.4,0.4-0.6,0.8-0.6C911.9,251.8,911.6,252.1,911.5,252.4L911.5,252.4z M913.6,251.3C913.6,251.3,913.6,251.3,913.6,251.3
		C913.6,251.3,913.6,251.3,913.6,251.3z M914.8,250.6C914.8,250.6,914.8,250.6,914.8,250.6C914.9,250.6,914.9,250.6,914.8,250.6
		C914.9,250.6,914.8,250.6,914.8,250.6z M914.8,250.6C914.8,250.6,914.8,250.6,914.8,250.6C914.8,250.6,914.8,250.6,914.8,250.6
		C914.8,250.6,914.8,250.6,914.8,250.6z M918.5,257.8c0.1,0,0.2-0.1,0.3-0.1C918.7,257.7,918.5,257.8,918.5,257.8
		C918.5,257.8,918.4,257.8,918.5,257.8C918.4,257.8,918.5,257.8,918.5,257.8z M926.1,256.9L926.1,256.9L926.1,256.9L926.1,256.9
		L926.1,256.9C926.1,256.8,926.1,256.8,926.1,256.9L926.1,256.9C926.1,256.8,926.1,256.8,926.1,256.9L926.1,256.9
		C926.1,256.9,926.1,256.9,926.1,256.9C926.1,256.9,926.1,256.9,926.1,256.9z M957.2,271.2L957.2,271.2
		C957.2,271.2,957.2,271.2,957.2,271.2C957.2,271.2,957.2,271.1,957.2,271.2C957.2,271.1,957.2,271.2,957.2,271.2z M914.8,250.6
		L914.8,250.6C914.8,250.6,914.8,250.6,914.8,250.6L914.8,250.6z M914.8,250.6C914.8,250.6,914.8,250.6,914.8,250.6
		C914.8,250.6,914.8,250.6,914.8,250.6L914.8,250.6z M883.5,245.9L883.5,245.9c-0.3-0.4-0.7-0.5-1.1-0.5
		C882.8,245.5,883.2,245.6,883.5,245.9z M838,233.1L838,233.1L838,233.1C838,233,838,233,838,233.1C838,233,838,233.1,838,233.1
		C838,233.1,838,233.1,838,233.1z M838,233L838,233L838,233L838,233z M814.4,230.9c0-0.1,0-0.1,0-0.2c0,0,0,0,0.1,0
		C814.7,230.7,814.6,230.8,814.4,230.9z M787,224.3c0-0.1,0-0.2-0.1-0.2C787,224.2,787.1,224.2,787,224.3z M785.7,220.6
		c-0.1-0.1-0.2-0.3-0.2-0.4C785.5,220.3,785.7,220.5,785.7,220.6z M759,230.2L759,230.2c2.1-0.2,3.9,0.1,5.6,0.1
		c2.1,0,4.2,0.2,6.2,0.3c10.3,0.5,20.5,1.1,30.8,1.6c0.4,0.1,0.8,0.1,1.1,0.1c1.7,0.2,3.5,0.4,5.2,0.5c0.5,0,1,0,1.5,0.1
		c0.5,0,1,0,1.5,0c0,0,0,0,0,0c0,0,0,0,0,0c3.4,0.3,6.8,0.6,10.2,0.9c0.1,0,0.1,0,0.2,0c2.1,0.8,4.3,0.5,6.5,0.9
		c3.9,0.7,7.9,1.1,11.9,1.6c0.2,0,0.5,0.1,0.7,0.1c1,0.2,2.1,0.4,3.1,0.5c0.3,0,0.5,0.1,0.8,0.1c2,0.3,4.1,0.6,6.2,0.9
		c0.5,0.1,0.9,0.2,1.3,0.3c2.2,0.5,4.4,0.9,6.6,1.4c0.4,0.3,0.9,0.4,1.3,0.4c0.6,0,1.2-0.1,1.8,0c0.1,0,0.1,0,0.2,0
		c2.8,0.6,5.6,1.3,8.3,1.9c0.1,0,0.2,0,0.2,0c1.5-0.1,2.6,1.2,4,1.3c0.2,0,0.3,0,0.5,0c2,0.6,4.1,1.2,6.1,1.8
		c0.2,0.2,0.5,0.3,0.7,0.3c0.6,0.2,1.2,0.3,1.9,0.4h0c1.9,0.6,3.9,1.1,5.8,1.7c0,0,0.1,0,0.1,0c2.6,0.9,5.2,1.9,7.8,2.8
		c0,0,0-0.1,0-0.1c0,0,0,0.1,0.1,0.1c0.1,0,0.2,0.1,0.3,0.1c0.1,0,0.2,0,0.3,0c0,0-0.1,0.1-0.2,0.1c0.8,0.6,1.8,0.6,2.8,0.7l0,0
		c0,0,0,0,0,0l0,0c0,0,0,0,0,0c0,0,0,0,0,0c0.9,1,2.2,0.7,3.3,1.2h0l0,0c2.4,1.2,5,1.7,7.5,2.5c0.2,0.1,0.3,0.2,0.5,0.3
		c0.6,0.4,1.2,1,2,0.9l0,0c-0.4-0.4-0.8-0.7-1.3-0.9c0.5,0.2,0.9,0.5,1.3,0.9c0,0,0,0,0,0l0,0c0,0,0.1,0,0.2,0
		c1.3,0.2,2.5,1,3.6,1.6c0.1,0.1,0.2,0.1,0.3,0.1c1.9,0.8,3.8,1.5,5.8,2.3c0.5,0.2,0.9,0.4,1.4,0.6c4.3,1.8,8.6,3.6,12.9,5.4
		c0.2,0,0.4,0,0.6,0.1c2.5,0.5,4.2,2.8,7,2.6c0.9,0,1,2,2.4,1.4c0,0,0.1,0,0.1,0.1c1.1,0.6,2.1,1.1,3.2,1.7c0.7,0.3,1.4,0.6,2.1,0.8
		c1.3,0.7,2.9,0.9,4.2,1.8c0.2,0.1,0.3,0.2,0.5,0.4c3.5,1.7,6.9,3.3,10.4,5c0.2,0.1,0.3,0.2,0.5,0.3c1.8,1.2,4.1,1.7,5.8,3.1
		c0.1,0.1,0.3,0.1,0.4,0.2c0.5,0.3,1,0.5,1.5,0.8c0.1,0,0.2,0.1,0.2,0.1c0.6,0.8,1.9,0.2,2.4,1.2c0,0,0,0,0,0.1
		c0.8,0.5,1.7,1.1,2.5,1.6c0,0,0,0,0.1,0.1c1,1.1,2.6,1.2,3.8,2c0.3,0.2,0.5,0.4,0.8,0.7c0.3,0.2,0.5,0.3,0.8,0.5
		c0.1,0.1,0.2,0.1,0.3,0.2c0.5,0.3,0.9,0.6,1.4,1c0.2,0.1,0.4,0.3,0.6,0.4c-0.1-0.1-0.1-0.1-0.2-0.2c0.1,0.1,0.2,0.2,0.3,0.4
		c0.9,0.4,1.5,1.3,2.6,1.3c0.1,0,0.2,0,0.3,0.1c0.4,0.1,0.7,0.4,1,0.8c0.9,1.6,2.5,2.4,4,3.3c0.4,0.4,0.6,0.9,1.3,0.8
		c1.1,0.4,1.2,2,2.5,2.1c0.3,0.1,0.5,0.3,0.8,0.4c0.2,0.2,0.5,0.2,0.8,0.2c1,0.5,1.2,2.1,2.5,2.5c0.8,0.3,1.7,1,2.1,2
		c0.4,0.3,0.8,0.6,1.1,1c0.1,0.1,0.1,0.1,0.2,0.2c0.4,0.5,1,0.7,1.6,0.9c0,0.1,0.1,0.1,0.1,0.2c0.4,0.7,1,1.3,1.8,1.7
		c0.1,0,0.2,0.1,0.3,0.1c1,1,2,1.9,3,2.9c0.1,0.1,0.2,0.2,0.3,0.3c0.7,0.7,1.5,1.4,2.2,2c0.1,0.1,0.2,0.2,0.3,0.3
		c0.6,1,1.8,1.2,2.6,1.9c0,0.4,0.1,0.7,0.2,1c0.6,1.9,2.3,3,3.7,3.8c1.6,0.9,2.2,1.8,2.7,3.2c0.8,0.9,2.2,1.2,2.5,2.6
		c0.3,1.6,1.3,2.8,2.3,4.1c2.1,2.7,3.8,5.6,5.6,8.4c1.1,1.6,1.8,4.1,2.6,6.2c0,0.1,0,0.1,0,0.2c0.8,2.9,2.7,5.3,3.3,8.2
		c0.1,0.2,0.1,0.5,0.1,0.8c0,0.2,0.1,0.4,0.1,0.6c0.7,2.8,1.4,5.6,2.1,8.3c0.1,0.1,0.1,0.2,0.2,0.3c0.6,1,1,2.1,0.8,3.5
		c-0.2,1.8-0.2,3.7,0.3,5.5c0,0.8,0.1,1.6,0.1,2.4c-0.2,1.6,0.6,3.3-0.1,5c-0.5,3.4-1.3,6.7-1.2,10.1c-1,2-0.5,4.2-1.2,6.2
		c0,0.1-0.1,0.2-0.1,0.4c-0.5,0.3-0.3,0.8-0.3,1.3c-0.1,0.3-0.2,0.5-0.3,0.8c-0.8,2.5-1.6,5-2.4,7.6c0,0,0,0.1,0,0.1
		c0,0,0-0.1-0.1-0.1c-0.8-1.3,0-2.2,0.1-3.2c0-0.2,0-0.4-0.1-0.6c0.5-6.1,1.2-12.1,0-18.2c-0.3-1.6-1.1-3.1-1.3-4.7c0,0,0-0.1,0-0.1
		c-0.1-0.7-0.2-1.3-0.4-1.9c-0.1-0.2-0.2-0.4-0.3-0.6c-0.8-2.6-1.6-5.1-3-7.4c0,0,0-0.1,0-0.1c-0.8-2.3-2.4-4.1-3.6-6.1
		c-0.3-0.4-0.6-0.9-0.8-1.4c-2.1-3-3.9-6.3-6.8-8.7c-0.1-0.1-0.2-0.3-0.3-0.4c-0.7-1-1.4-2-2.1-3c-0.1-0.4-0.4-0.7-0.8-0.8
		c-1.1-0.7-1.7-1.9-2.5-3c-0.2-0.7-0.8-1.1-1.3-1.6c-0.6-0.4-1.1-0.8-1.7-1.2c-0.6-0.5-0.1-1.7-1.2-1.8c-1.8-1.6-3-3.9-5-5.4
		c-2.8-2.9-5.6-5.8-8.4-8.7c-1.1-1-2.1-2-3.2-3c-4.9-4.5-9.9-8.9-15.4-12.8c-1.2-0.9-2-2.5-3.8-2.6c-1.3-1.8-3.7-2-5-3.8
		c-1.4-0.8-3.2-1.4-4.1-2.5c-2-2.5-5.1-2.8-7.2-4.9c-3.2-2.9-7.4-4.2-10.8-6.7c-1.1-0.6-2.2-1.1-3.3-1.7c-0.2-0.4-0.5-0.5-0.9-0.4
		c-1.2-0.4-2-1.5-3.2-1.8c0-0.1-0.1-0.2-0.2-0.3c-1.1-0.8-2.6-0.8-3.7-1.7c-0.4-0.2-0.8-0.3-1.2-0.5c-0.4-1-1.1-1.3-2.1-1.2
		c-1,0-1-1.4-2.1-1.2c-2.4-1.1-4.7-2.2-7.1-3.3c-0.6-0.6-1.4-0.7-2.1-0.8c-1-0.5-1.9-0.9-2.8-1.3c-0.9-1.1-2.3-0.3-3.3-0.9
		c-0.2-0.9-1.2-0.7-1.7-1.1c-1.5-0.6-2.9-1.5-4.6-1.7c-0.5-0.4-0.9-0.9-1.6-0.9c-1-0.4-1.9-1-3-0.7c-1.4-1.3-3.2-1.5-4.9-2.2
		c-1.1-0.4-2.3-0.8-3.4-1.2c-1-0.3-1.9-0.6-2.9-0.9c-1.4-0.6-2.9-1.2-4.3-1.8c-0.1,0-0.2-0.1-0.4-0.2c-0.1-0.1-0.2-0.1-0.4-0.1
		c-0.4-0.1-0.8-0.3-1.2-0.4c-2.2-0.8-4.4-1.5-6.6-2.3c-0.2-0.1-0.4-0.1-0.6-0.2l0,0c-0.2-0.1-0.3-0.1-0.5-0.2
		c-1.4-0.5-2.9-1.1-4.3-1.6c-0.2-0.1-0.4-0.2-0.6-0.2c-2.9-1.1-5.7-2.4-8.7-3c-0.2-0.1-0.3-0.2-0.5-0.3c-0.5-0.3-1.1-0.5-1.7-0.6
		c-0.1,0-0.2,0-0.3,0c-4.7-1.5-9.5-3-14.2-4.6c-0.2-0.1-0.4-0.1-0.5-0.2c-1.5-0.5-3-0.5-4.5-1.1c-0.2-0.1-0.3-0.1-0.5-0.2l0,0
		c-0.3-0.1-0.7-0.2-1-0.3c-1.5-0.4-3-0.9-4.5-1.3c-0.1,0-0.2-0.1-0.3-0.1c-27.9-7.9-56.2-14-85.1-19.8
		C758.3,230.3,758.7,230.3,759,230.2z M827.6,258.6C827.6,258.6,827.6,258.6,827.6,258.6C827.6,258.6,827.6,258.6,827.6,258.6
		L827.6,258.6C827.6,258.6,827.6,258.6,827.6,258.6z M747.9,218.1c-0.1,0.1-0.2,0.3-0.3,0.6c-0.1-0.1-0.2-0.2-0.3-0.4
		C747.5,218.1,747.7,218.1,747.9,218.1z M736,218.7C736,218.7,736.1,218.7,736,218.7c0,0,0,0.1-0.1,0.1
		C736,218.8,736,218.8,736,218.7z M492.2,240.4c0.1,0,0.1,0.1,0.2,0.1C492.3,240.5,492.2,240.5,492.2,240.4
		C492.1,240.4,492.2,240.4,492.2,240.4z M467.3,247.1C467.3,247.1,467.3,247.1,467.3,247.1c-0.2,0.1-0.3,0.1-0.4,0.1
		C467,247.2,467.2,247.1,467.3,247.1z M461.8,245C461.8,245,461.8,245,461.8,245C461.8,245,461.8,245,461.8,245c0-0.1,0-0.2,0-0.3
		C461.9,244.8,461.8,244.9,461.8,245z M458.1,245.3c0,0.8,0.3,1.6,0.9,2.4l0,0C458.4,246.9,458.1,246.1,458.1,245.3z M449.1,233.9
		c12.5-2.5,25-4.3,38-3.9c-6,1.2-11.7,2.3-17.4,3.4c-15.1,3.1-30.2,6.6-45.1,10.8c-1.2,0.3-2.4,0.7-3.6,1c-0.2,0.1-0.4,0.1-0.5,0.1
		c-1.9,0.5-3.8,1-5.7,1.6c-1.4,0.4-2.8,0.8-4.2,1.2c-0.5,0-1-0.1-1.4,0.1c-6.6,2.6-13.6,4.1-20.3,6.5c-3.5,1.3-7.1,2.2-10.4,3.9
		c-0.7-0.1-1.3,0.1-1.8,0.7c-1.2,0.3-2.5,0.6-3.7,1c-1.2,1.4-3.1,1.4-4.7,2c-1.2,0.1-2,1-3,1.4c-0.2,0.1-0.5,0.2-0.7,0.2
		c-0.3,0-0.5,0-0.8,0.1c-1.5,1-3.5,1.2-4.7,2.8c-0.2,0.3-1.4-0.1-2-0.1c1.4-2.4,4.3-2.1,6.2-3.6c0.1,0,0.2,0,0.3,0c0,0,0.1,0,0.2,0
		c0.1-0.1,0.3-0.1,0.4-0.2c1.9-1,3.8-2,5.7-2.9c0.1,0,0.2-0.1,0.2-0.1c0.9-0.1,1.4-0.8,2-1.3c0.1,0,0.2-0.1,0.3-0.1
		c0.9-0.4,1.9-0.6,2.8-1c0.4-0.2,0.7-0.4,1-0.6c2.9-1.1,5.7-2.6,8.6-3.8c3.6-1.4,7.2-2.8,10.8-4.3c7.2-3.1,14.8-5.1,22.3-7.6
		c0.8-0.3,1.6-0.5,2.2-1.1c0.1,0,0.2,0,0.4,0c0.6,0.1,1.1-0.1,1.6-0.3c0.1,0,0.1-0.1,0.2-0.1c0.1,0.1,0.3,0,0.4-0.1
		c0.2-0.1,0.5-0.2,0.7-0.3c0.4-0.1,0.9-0.1,1.3-0.1c0.4,0,0.7-0.1,1-0.4C433.4,237.1,441.2,235.4,449.1,233.9z M370.9,256.9
		L370.9,256.9C370.9,256.8,370.9,256.8,370.9,256.9L370.9,256.9L370.9,256.9L370.9,256.9L370.9,256.9L370.9,256.9
		C370.9,256.9,370.9,256.9,370.9,256.9L370.9,256.9C370.9,256.8,370.9,256.8,370.9,256.9L370.9,256.9L370.9,256.9L370.9,256.9
		L370.9,256.9z M381.3,237.6L381.3,237.6C381.3,237.6,381.3,237.6,381.3,237.6L381.3,237.6z M431.5,251.4
		C431.5,251.4,431.5,251.4,431.5,251.4L431.5,251.4L431.5,251.4C431.5,251.4,431.5,251.4,431.5,251.4
		C431.5,251.4,431.5,251.4,431.5,251.4L431.5,251.4L431.5,251.4L431.5,251.4L431.5,251.4L431.5,251.4L431.5,251.4
		C431.5,251.4,431.5,251.4,431.5,251.4C431.5,251.4,431.5,251.5,431.5,251.4C431.5,251.5,431.5,251.4,431.5,251.4z M425.2,257.7
		C425.2,257.7,425.1,257.7,425.2,257.7C425.2,257.6,425.2,257.6,425.2,257.7C425.2,257.6,425.2,257.7,425.2,257.7z M412.8,248
		C412.8,248,412.8,248,412.8,248C412.8,247.9,412.8,247.9,412.8,248C412.8,248,412.8,248,412.8,248z M374.5,267.2
		c0.1,0,0.2-0.1,0.3-0.2C374.8,267.1,374.7,267.2,374.5,267.2C374.6,267.3,374.6,267.2,374.5,267.2z M355.5,277.7L355.5,277.7
		L355.5,277.7L355.5,277.7z M355.5,277.7L355.5,277.7C355.5,277.7,355.5,277.7,355.5,277.7C355.5,277.7,355.5,277.7,355.5,277.7
		L355.5,277.7C355.5,277.7,355.5,277.7,355.5,277.7L355.5,277.7C355.5,277.7,355.5,277.7,355.5,277.7L355.5,277.7L355.5,277.7
		L355.5,277.7L355.5,277.7C355.5,277.7,355.5,277.7,355.5,277.7z M301.6,306.1C301.6,306.1,301.6,306.1,301.6,306.1L301.6,306.1
		L301.6,306.1L301.6,306.1L301.6,306.1z M306.2,305.7C306.2,305.7,306.2,305.7,306.2,305.7c-0.1-0.1-0.1-0.2-0.1-0.2
		C306.2,305.6,306.2,305.6,306.2,305.7L306.2,305.7z M298.5,304.1c-0.3-0.2-0.6-0.5-0.9-0.7c0.2,0,0.5-0.1,0.7-0.2
		C298.4,303.5,298.4,303.8,298.5,304.1z M306.2,305.7L306.2,305.7C306.2,305.7,306.2,305.7,306.2,305.7L306.2,305.7L306.2,305.7
		C306.2,305.7,306.2,305.7,306.2,305.7C306.2,305.7,306.2,305.7,306.2,305.7C306.2,305.7,306.2,305.7,306.2,305.7z M301.6,306.1
		L301.6,306.1L301.6,306.1L301.6,306.1L301.6,306.1L301.6,306.1L301.6,306.1L301.6,306.1L301.6,306.1z M417,223.6L417,223.6
		L417,223.6c0.1,0,0.2-0.1,0.3-0.1C417.2,223.5,417.1,223.6,417,223.6z M401.7,224.1L401.7,224.1c0,0.1,0,0.1,0.1,0.2
		C401.8,224.2,401.7,224.1,401.7,224.1z M401.8,224.3C401.8,224.3,401.8,224.3,401.8,224.3C401.8,224.3,401.8,224.3,401.8,224.3
		C401.8,224.3,401.8,224.3,401.8,224.3L401.8,224.3L401.8,224.3C401.8,224.3,401.8,224.3,401.8,224.3
		C401.8,224.3,401.8,224.3,401.8,224.3L401.8,224.3L401.8,224.3z M401.8,224.3C401.8,224.3,401.8,224.3,401.8,224.3
		C401.8,224.3,401.8,224.3,401.8,224.3L401.8,224.3z M387.1,235C387.1,235,387.2,235,387.1,235C387.2,235,387.1,235,387.1,235
		C387.1,235,387.1,235,387.1,235z M387.2,235L387.2,235C387.2,235,387.2,235,387.2,235C387.2,235,387.2,235,387.2,235z M349.6,231.8
		L349.6,231.8C349.6,231.8,349.6,231.8,349.6,231.8L349.6,231.8L349.6,231.8L349.6,231.8L349.6,231.8L349.6,231.8L349.6,231.8
		L349.6,231.8C349.7,231.8,349.7,231.8,349.6,231.8C349.7,231.8,349.6,231.8,349.6,231.8C349.6,231.8,349.6,231.8,349.6,231.8
		C349.6,231.8,349.6,231.8,349.6,231.8L349.6,231.8L349.6,231.8z M357.7,234.9C357.7,234.9,357.7,234.9,357.7,234.9
		C357.7,234.9,357.7,234.9,357.7,234.9C357.7,234.9,357.7,234.9,357.7,234.9z M348.9,239.8c5.2-0.8,10.5-1.3,15.7-2.2
		c5-0.9,10.1-0.8,15.1-2c1.2,0.1,2.3,0,3.5-0.2c0.7-0.1,1.3-0.3,2-0.5c0.6-0.2,1.4-0.6,1.8,0.1c0,0,0,0,0,0c0,0,0,0,0,0
		c0.1,0.1,0.1,0.3,0.2,0.5c-0.8,0.3-1.7,0.5-2.5,0.8c-0.2,0.1-0.4,0.1-0.5,0.2c-0.8,0.3-1.7,0.7-2.5,1c-0.1,0-0.2,0.1-0.3,0.1l0,0
		c-0.2,0.1-0.3,0.2-0.5,0.2c-1.4,0.6-2.9,0.8-4.2,1.6c-0.1,0.1-0.2,0.1-0.3,0.2c-3.2,1.9-7,2.4-10,4.6c-0.1,0.1-0.3,0.1-0.5,0.2
		c-0.7,0.3-1.3,0.6-2,0.9c-0.2,0.1-0.3,0.1-0.5,0.2v0c-0.1,0.1-0.2,0.1-0.4,0.2c-0.7,0.3-1.5,0.4-2.1,0.8c-0.1,0.1-0.3,0.2-0.4,0.3
		c-1,0.4-2.1,0.9-3,1.7c-0.1,0-0.2,0-0.4,0c-0.4,0.1-0.8,0.3-1.1,0.5c-0.1,0.1-0.1,0.1-0.2,0.2c-4.2,2.4-8.8,4.1-12.9,6.8
		c-0.1,0-0.2,0-0.2,0.1c-1.5,0.5-2.9,1.4-4.2,2.2c-0.1,0-0.2,0.1-0.2,0.1c-2.4,1.3-5.1,2.1-7.1,4.2c-0.5,0.5-1.4,0.5-2,0.8
		c-0.1,0-0.2,0-0.3,0c-0.7,0.2-0.9,1.1-1.7,1.5c-4.7,2.3-9.4,4.7-13.8,7.5c-0.3,0.2-0.6,0.4-1,0.6c-1.1,0.3-2,0.9-2.9,1.6
		c-0.1,0.1-0.2,0.1-0.4,0.2c-0.8,0.4-1.7,0.8-2.5,1.3c-0.2,0.1-0.3,0.2-0.5,0.2c-1.9,1.1-3.9,2.2-5.8,3.3c-0.1,0-0.1,0.1-0.2,0.1
		c-0.4,0.2-0.8,0.4-1.2,0.6c-0.1,0-0.1,0.1-0.2,0.1l0,0c-0.1,0-0.3,0.1-0.4,0.2c-1.6,0.7-2.9,1.9-4.6,2.4c-0.4,0-0.6,0.2-0.8,0.5
		c-1.1,0.1-1.7,1-2.6,1.5c-0.1,0-0.2,0.1-0.3,0.1c-3.6,1.9-7.3,3.9-11,5.8c-0.1,0-0.2,0-0.3,0.1c-1.2,0.8-2.4,1.5-3.7,2
		c-0.3,0.1-0.6,0.3-0.9,0.4c-3.3,2.7-7.6,3.9-10.9,6.7c-0.5,0.3-0.9,0.5-1.3,0.9c-1.9,1.3-3.5,3-5.4,4.2c-0.4,0.3-0.8,0.5-1.3,0.8
		l0,0c0,0-0.1,0-0.1,0c-2.2,1.2-3.8,3-5.1,5c-0.1,0.1-0.1,0.2-0.2,0.3c-4.1,2.6-6.6,6.7-9.6,10.5c-0.2,0.3-0.4,0.7-0.6,1
		c-1.2,1.8-2.5,3.5-3.1,5.6c0,0.1-0.1,0.3-0.1,0.4c-2,2.5-3.2,5.6-4.4,8.5c-1.3,3.1-3.1,5.6-5.5,7.9c-0.2,0.2-0.4,0.4-0.6,0.6
		c-0.6,0.5-1.1,1-1.7,1.6c-0.1,0.1-0.2,0.2-0.3,0.3c-0.4,0.4-0.8,0.8-1.2,1.2c-0.2,0.1-0.5,0.1-0.6,0.2c0,0-0.1,0-0.1,0.1
		c-1.9,2.5-4.4,4.5-6.6,6.8c-0.2,0.2-0.4,0.4-0.5,0.5c-0.1,0.2,0,0.4,0.2,0.5c0,0.1-0.1,0.2-0.1,0.3c-1,2.1-3.8,2.4-4.7,4.5
		c0,0-0.1,0.1-0.1,0.1l0,0c0,0.4-0.1,0.8-0.2,1.2c-0.1-0.4,0-0.8,0.2-1.2c-0.2,0-0.3,0.1-0.4,0.2c-0.5,0.3-0.5,0.9-0.4,1.5
		c0.1,0.5-0.1,1-0.4,1.1c-2,0.6-2.9,2.3-3.9,3.8c-0.1,0.2-0.2,0.3-0.4,0.5c-0.5,0.3-0.4,0.8-0.3,1.3c0.2,1.2,1,2.7-1.5,1.9
		c-1-0.3-1.3,1.1-1.9,1.8c-0.1,0.2-0.2,0.5-0.3,0.7c-0.3,0.8-0.7,1.6-1,2.3c-0.3,0.7-1.6,0.3-1.6,1.3c0,0.1,0,0.2,0,0.3
		c0.1-0.2,0.2-0.2,0.4-0.2c-0.1,0.1-0.2,0.2-0.4,0.2l0,0c-0.2,0.1-0.3,0.2-0.4,0.3c-0.5,0.4-0.6,1-0.8,1.5c-0.4,1.8-1.2,3.2-2.7,4.3
		c-0.7,1.3-1.3,2.6-2,3.9c0,0.3,0,0.6,0,0.8c-0.1,0.5-0.1,1.2-0.6,1.5c-1.8,0.9-2.2,2.7-2.7,4.4c0.1,0,0.3,0.1,0.4,0.1v0v0
		c-0.1,0-0.2-0.1-0.4-0.1c-1,0.8-0.9,1.9-0.9,2.9c-0.4,0.4-0.9,0.8-1.3,1.2c-1.3,2.3-2.3,4.7-3.3,7.1c-1,1.7-1.7,3.5-2.2,5.4
		c-0.8,1.7-1.7,3.3-2.5,5c-0.4,0.2-0.3,0.6-0.4,0.9c-0.3,1.7-1.7,3.1-1.7,5c-1.5,3.4-2.8,6.9-3.7,10.5c-1,2.8-2.1,5.7-2.5,8.7
		c0,0.1-0.1,0.2-0.1,0.4c-0.5,1.6-1,3.1-1.5,4.7c-0.5,4.7-2.7,9.1-2.9,13.9c-0.4,0.6-0.6,1.3-0.5,2.1c0,0.1,0,0.2,0,0.3
		c-0.2,0.9-0.5,1.8-0.8,2.9c-2.6-3.3-4.8-6.7-6.8-10.2c-2-3.5-4-6.8-6.1-10.3c-0.1-0.2-0.2-0.5-0.3-0.7c-0.4-1-0.8-2-1.1-3
		c-0.1-0.3-0.2-0.6-0.3-0.8c-0.7-1.9-1.4-3.9-2.1-5.8c-0.1-0.1-0.2-0.3-0.3-0.5c-0.2-0.6,0-1.3-0.1-1.9c0-0.4-0.1-0.7-0.4-1
		c-0.9-3.8-1-7.7-1.4-11.6c0-0.7,0.1-1.3,0.1-2c0-0.2,0-0.5-0.1-0.7c-0.1-0.4-0.2-0.7-0.3-1.1c0-0.1,0-0.2,0.1-0.2
		c0.3-1.2,0.5-2.5,0.8-3.7c0.1-0.6,0-1.1-0.5-1.5c-0.2-1.9,0.9-3.6,1.2-5.4c0.2-0.3,0.1-0.5,0-0.8c0.6-1.8,0.9-3.7,1.2-5.6
		c0.2-1.5,0.4-2.9,0.5-4.4c0.6-1.8,0.5-3.7,0.8-5.5c0.2-0.5,0.4-1.1,0.6-1.6c0.4-1.4,0.6-2.8,0.9-4.2c0.1-0.3,0.1-0.5,0.2-0.8
		c0.6-0.7-0.1-1.1-0.3-1.7c0-0.1,0.1-0.2,0.1-0.3c0.6-2.5,2.2-4.6,2.5-7.1c0.7-1.2,1.2-2.5,1.5-3.8c0.1-0.5,0.2-1.1,0.2-1.6
		c1-1.4,0.6-3.2,1.6-4.6c0-0.2,0.1-0.3,0.1-0.5c0.4-1.8,1.4-3.3,1.9-5.1c0-0.1,0.1-0.2,0.1-0.3c-0.3-2.2,1.9-3.4,2.1-5.4l0,0
		c0.6-1.4,1.1-2.8,1.6-4.1c0,0,0,0,0,0l0,0c0.1-0.3,0.2-0.6,0.3-0.9c0.3-1,0.5-2,1.4-2.8c0.1-0.1,0.2-0.2,0.3-0.2
		c0.4-1.3,0.9-2.6,1.2-3.9c0.5-1.8,2.1-2.9,3-4.5c0-0.2-0.1-0.4-0.1-0.6c0.1,0.2,0.1,0.4,0.1,0.6c0.1-0.1,0.2-0.2,0.3-0.4
		c0.4-0.8-0.2-1.8,0.6-2.7c0.5-0.5,1.5-0.4,1.7-1.2c0-0.1,0-0.2,0-0.3h0c0.1-0.2,0.2-0.4,0.3-0.5c0.5-0.9,1.4-1.5,1.7-2.5
		c0-0.1,0.1-0.2,0.1-0.3c0-0.3,0-0.5,0-0.8c0-0.1,0.1-0.1,0.1-0.2c0.5-0.7,0.9-1.3,1.4-2c0.1-0.1,0.2-0.2,0.2-0.3
		c2-1.1,2.5-3.4,3.9-5c1.2-1.4,2.4-2.8,3.6-4.2c0.1-0.2,0.3-0.4,0.4-0.5c1-1.2,2-2.4,3.1-3.5c0.5-0.5,0.9-0.9,1.4-1.4
		c0.9-0.9,2.2-1.5,2.9-2.6c0.1-0.2,0.2-0.3,0.4-0.5c0,0,0,0,0,0c0.9-1.3,2.1-2.4,3.8-2.6c0.1,0,0.1-0.1,0.2-0.1
		c0.1-0.1,0.2-0.3,0.3-0.5c1.3-1,2.5-2,3.8-2.9c0.2-0.1,0.4-0.3,0.6-0.4c1.6-1.1,3.2-2.2,4.9-3.3c1.4-1.6,2.7-3.2,4.8-3.9
		c0.4-0.1,0.7-0.2,1.1-0.2c0.1,0,0.2,0,0.3-0.1c0.1,0,0.1,0,0.1,0c0.4-0.1,0.8-0.4,1-0.8c1.1-0.7,2.3-1.4,3.4-2.1
		c0.9-1.4,2.4-1.9,3.8-2.4c0.4-0.1,0.9-0.3,1.3-0.4c1.8-1.7,4.2-2.4,6.2-3.9c0.2,0,0.3-0.1,0.5-0.1c1.4-0.4,2.2-1.7,3.4-2.3
		c0.4-0.2,0.7-0.3,1.2-0.4l0,0l0,0l0,0l0,0l0,0l0,0l0,0l0,0l0,0l0,0c0.1-0.1,0.1-0.1,0.2-0.2c1.2-1.1,2.5-2.1,4-2.6
		c0.9-0.3,1.9-0.2,2.6-0.7c0.2-0.1,0.5-0.4,0.7-0.6c1-0.1,1.8-0.6,2.4-1.3c0.1-0.1,0.2-0.1,0.3-0.2c2.3-1.4,4.6-2.7,6.9-4
		c0.1-0.1,0.3-0.2,0.4-0.2c0.1,0,0.2,0,0.3-0.1c0.1,0,0.1,0,0.2,0c1,0.2,1.6-0.3,2.2-1c0.1-0.1,0.1-0.2,0.2-0.3c0.1,0,0.3,0,0.4,0
		c0.7-0.1,1.3-0.4,1.9-0.7c0.4-0.2,0.7-0.4,1.1-0.5c0.8-0.2,1.5-0.2,2.1-1c0.8-1,2-1.5,3.3-1.5c0.1-0.1,0.2-0.2,0.3-0.3
		c1-0.9,2.3-0.9,3.5-1.3l0,0l0,0c0.3-0.1,0.5-0.3,0.8-0.4c0,0,0,0,0,0c0,0,0,0,0,0c0.6-0.8,1.7-0.3,2.4-0.9c0,0,0,0,0,0c0,0,0,0,0,0
		h0c0.2-0.3,0.5-0.6,0.8-0.8c1.1-0.9,2.5-1.2,4-1.1c0.2,0,0.5-0.3,0.7-0.4c0,0,0,0,0,0l0,0c0.6-0.3,1.3-0.5,1.8-1
		c0.1-0.1,0.2-0.2,0.3-0.3c0.1,0,0.2,0,0.3-0.1c0.1-0.1,0.2-0.1,0.3-0.2c1-0.7,2.2-1,3.4-1.2c0.3-0.1,0.6-0.1,0.9-0.2
		c1.1-0.3,2.1-1.2,3.3-1.3c0.1,0,0.2,0,0.3,0c0.5,0,1.1-0.1,1.5-0.4c0.1-0.1,0.2-0.2,0.4-0.3c0.8-0.5,1.7-0.8,2.4-1.5
		c1.3-1.3,3-0.9,4.6-1.1c0.1,0,0.1,0,0.2,0c0.8-0.1,1.6-0.2,2.3-0.8c0.8-0.3,1.7-0.6,2.5-0.8c1.8-1.1,3.8-1.9,6-1.7
		c0.2,0,0.5-0.2,0.7-0.4c1.4-0.4,2.8-0.8,4.2-1.2c1.7-0.4,3.4-0.9,5-1.3c1.1,0.1,1.7-1.1,2.8-0.9c0.9-0.4,1.9-0.7,2.8-0.8
		c0.5,0,0.9,0,1.4,0.1c0.3,0,0.5,0,0.8,0c0.1,0,0.1,0,0.2,0c3.4,0,6.5-1.9,9.9-2.1c0.6,0,1.1,0,1.7,0c0.4,0,0.8-0.2,1.1-0.4
		C339.4,241.4,344.1,240.5,348.9,239.8z M257.8,522.4c-0.4,0-0.6-0.2-0.8-0.5C257.2,522.1,257.4,522.3,257.8,522.4z M256.5,521
		L256.5,521C256.5,521,256.5,521,256.5,521C256.5,521,256.5,521,256.5,521z M256.5,521.1L256.5,521.1L256.5,521.1
		C256.5,521.1,256.5,521.1,256.5,521.1C256.6,521.1,256.6,521.1,256.5,521.1L256.5,521.1L256.5,521.1
		C256.5,521.1,256.5,521.1,256.5,521.1L256.5,521.1L256.5,521.1z M256.9,518.7C256.9,518.6,256.9,518.6,256.9,518.7c0,0-0.1,0-0.1,0
		C256.9,518.6,256.9,518.6,256.9,518.7C256.9,518.6,257,518.6,256.9,518.7c0.1-0.1,0.1-0.1,0.2-0.1
		C257.1,518.6,257,518.6,256.9,518.7z M256.5,521.1C256.5,521.1,256.5,521.1,256.5,521.1L256.5,521.1L256.5,521.1
		C256.5,521.1,256.6,521.1,256.5,521.1C256.5,521.1,256.5,521.1,256.5,521.1c-0.1,0.7,0.1,1.1,0.4,1.4
		C256.6,522.2,256.5,521.8,256.5,521.1z M258.2,533.2c1.3,0.9,2.2,2.3,3.8,2.9c0,0.1,0,0.2,0,0.3c0,0,0,0.1,0,0.1c0,0,0,0,0,0
		c0.1,0,0.1,0,0.2,0c0.7,0.2,1.4,0.5,1.3,1.2c-0.1,0.7-0.6,0.4-1.1,0.3c-0.1,0-0.3,0-0.4,0c-0.2-0.2-0.4-0.5-0.6-0.7
		c-6.3-2.7-12.7-5.4-19-8c-0.1-0.1-0.3-0.2-0.4-0.2c-0.8-0.4-1.5-0.8-2.3-1.2c-0.1,0-0.2-0.1-0.3-0.2c-0.3-0.2-0.6-0.3-0.8-0.4
		c-0.3-0.1-0.6-0.3-0.9-0.4c-1.2-0.5-2.4-1-3.6-1.6c0,0,0.1,0.1,0.1,0.1c0.1,0.2,0.2,0.4,0.4,0.6c-0.1,0-0.2-0.1-0.4-0.2
		c0-0.1-0.1-0.3-0.1-0.4c0,0,0-0.1,0-0.2c-1.2-0.6-2.3-1.3-3.4-2.1c-3.3-1.7-6.6-3.2-9.6-5.3c-0.1-0.1-0.2-0.2-0.3-0.2
		c-3.5-2.5-7.1-4.9-10.8-7.1c-0.1,0-0.1,0-0.1-0.1c-1.3-0.5-2.4-1.2-3.3-2.4c-2.2-1.6-4.4-3.1-6.7-4.7c-0.1-0.1-0.3-0.2-0.4-0.3
		c-2.1-1.4-4-3-5.8-4.6c0-0.1-0.1-0.1-0.1-0.1c-0.1-0.2-0.3-0.2-0.5-0.3c-0.1,0-0.1,0-0.2,0c-4.4-4-8.8-8-12.7-12.4
		c-0.6-0.6-0.5-1.3-0.4-2.1c0.3-3.1,1.2-6.1,1-9.2c0.1-0.2,0.1-0.3,0.2-0.5c0.7-2,0.7-4.2,1.1-6.3c0.5-3,0.4-6,1.2-9
		c0.2-0.6,1.1-0.9,0.7-1.8c-0.7-1.8,0.3-3.3,0.9-4.9c-0.2-0.1-0.4-0.2-0.6-0.2v0c0.1,0,0.3,0,0.6,0.2c0-0.2,0-0.5,0.1-0.8
		c0.4-0.1,0.8-0.3,0.8-0.8c-0.1-2.4,1.3-4.4,1.3-6.8c1.6-0.8,0.5-2.8,1.6-3.8c0.6-2.9,2.3-5.4,2.4-8.4c0.6-1.2,0.9-2.4,0.9-3.8
		c1.6-2,2.8-4.1,2.6-6.7c-0.1-0.8,0.2-1.3,0.6-1.6c1.4-1.1,1.8-2.6,2.3-4.2c2.4-5,4.7-10,7.1-15c0.3-1.6,1.7-2.6,2.1-4.2
		c0.6-0.6,0.4-1.6,1.2-2.1c0.6-1.1,1.1-2.2,1.7-3.3c0.1-0.1,0.1-0.3,0.2-0.4c0.1-0.1,0.1-0.3,0.2-0.4c0.6-0.9,1.2-1.8,2.1-3.1
		c-0.4,3.1-0.7,5.5-1,8c-0.3,0.8-0.4,1.6-0.5,2.5c-0.1,0.9-0.1,1.8-0.2,2.7c-0.3,2.2-0.8,4.4-0.9,6.6c-0.1,1.4-0.7,2.8,0,4.2
		c-0.6,1.1-0.5,2.3-0.1,3.4c0.4,1.1,0.3,2.2-0.4,3.2c-0.7,0.5,0,0.9,0.2,1.3c0,2,0,3.9,0,5.9c-0.8,2.3-0.5,4.7-0.4,7
		c0.9,1.3-0.1,2.8,0.3,4.2l0,0c-0.9,1.4-0.2,2.8-0.1,4.1c-0.9,1,0.2,2,0.1,3c-0.4,2.5,0.5,4.8,0.8,7.2c0.3,2.5,0.5,4.9,1,7.4
		c0.8,3.6,1.9,7,3.2,10.4c-0.1,0.8,0.4,1.4,0.9,2.1c1.9,3.8,3.9,7.6,5.8,11.3c0.8,1.5,1.6,3,2.5,4.4c1,1.6,1.6,3.6,3.3,4.8
		c0.6,0.9,0,2.1,0.9,2.9c0.4,0.4,0.2,1.1,0.8,1.2c1.3,2.5,2.5,5,3.8,7.4c0.9,0.9,1.5,1.9,2.1,3c1.2,2.4,2.8,4.6,4.6,6.6
		c0.8,1,1.6,2,2.4,3c2,2,3.6,4.4,5.8,6.2c0.9,1.4,1.9,2.7,3.2,3.8c0.2,0.2,0.5,0.5,0.7,0.7C253.2,527.9,255.7,530.6,258.2,533.2z
		 M199.1,507.4c0.6-1.3,0.7-1.8-0.1-2C199.8,505.6,199.7,506.1,199.1,507.4C199.1,507.4,199.1,507.4,199.1,507.4z M206.1,508.5
		C206.1,508.5,206.1,508.5,206.1,508.5c-0.1,0.1-0.1,0.2-0.2,0.3C206,508.7,206,508.6,206.1,508.5
		C206.1,508.5,206.1,508.5,206.1,508.5z M170.6,443.4C170.6,443.4,170.6,443.4,170.6,443.4c0-0.1,0.1-0.2,0.1-0.4
		C170.7,443.2,170.7,443.3,170.6,443.4C170.6,443.4,170.6,443.4,170.6,443.4z M227,414.4L227,414.4C227,414.4,227,414.4,227,414.4
		c0.1-0.4,0.1-0.8,0.1-1.2C227.1,413.6,227.1,414,227,414.4z M172.5,441.6c0.1,0,0.1,0.1,0.1,0.1c0,0,0,0,0,0c0,0,0,0-0.1,0
		c0,0,0,0,0,0C172.6,441.7,172.5,441.7,172.5,441.6z M177.1,443.9c-0.1,0-0.1,0.1-0.2,0.1c0,0,0,0,0,0
		C176.9,443.9,177,443.9,177.1,443.9z M176,464.8C176,464.7,176,464.7,176,464.8C176,464.7,176,464.7,176,464.8
		C176,464.7,176,464.7,176,464.8C176,464.8,176,464.8,176,464.8z M176,464.7c0.1-0.1,0.1-0.2,0.2-0.2l0,0
		C176.1,464.6,176,464.6,176,464.7C176,464.7,176,464.7,176,464.7C176,464.7,176,464.7,176,464.7C176,464.7,176,464.7,176,464.7z
		 M179.2,462L179.2,462c-0.2,0-0.3,0-0.5,0C178.9,462.1,179.1,462,179.2,462z M174.2,453.6c-0.1,0.1-0.2,0.2-0.3,0.3
		C173.9,453.8,174,453.7,174.2,453.6z M177.8,465.8C177.8,465.8,177.8,465.8,177.8,465.8C177.8,465.8,177.8,465.8,177.8,465.8
		C177.8,465.8,177.8,465.8,177.8,465.8z M174.7,443C174.7,443,174.7,443.1,174.7,443C174.7,443.1,174.7,443.1,174.7,443
		C174.7,443.1,174.7,443.1,174.7,443C174.7,443.1,174.7,443,174.7,443z M192.6,418.4c0.1,0,0.1,0,0.1,0c0,0.1-0.1,0.3-0.1,0.4
		C192.6,418.7,192.6,418.5,192.6,418.4C192.5,418.4,192.6,418.4,192.6,418.4z M191.3,398.1c0-0.4-0.1-0.7-0.1-1
		c0.2,0.2,0.3,0.4,0.2,0.6C191.4,398,191.3,398.1,191.3,398.1z M167.5,459.5c0-0.1,0-0.1,0-0.2c0,0,0.1,0.1,0.1,0.1
		C167.6,459.5,167.5,459.5,167.5,459.5z M218.1,362.9C218.1,362.9,218.1,362.9,218.1,362.9C218.1,362.9,218.1,362.9,218.1,362.9
		C218.1,362.9,218.2,362.9,218.1,362.9C218.1,362.9,218.1,362.9,218.1,362.9C218.1,362.9,218.1,362.9,218.1,362.9L218.1,362.9z
		 M218.1,362.9L218.1,362.9C218.1,362.9,218.1,362.9,218.1,362.9L218.1,362.9L218.1,362.9L218.1,362.9
		C218.1,362.9,218.1,362.9,218.1,362.9c-1.3-0.7-2.2-0.2-2.9,0.6C215.9,362.7,216.8,362.2,218.1,362.9z M214,365.6
		c0.1,0,0.1,0.1,0.2,0.1c-0.1,0.1-0.1,0.1-0.2,0.2C214,365.8,214,365.7,214,365.6z M216.2,424.3
		C216.2,424.3,216.2,424.3,216.2,424.3C216.2,424.3,216.2,424.3,216.2,424.3c0,0.1-0.1,0.2-0.1,0.3
		C216.1,424.5,216.2,424.4,216.2,424.3z M218,430.9c0,0,0.1-0.6,0-0.8C218.1,430.4,218,430.9,218,430.9c-2,0-2.3,2.2-3.7,2.9
		C215.7,433.1,216,431,218,430.9z M223.3,451.5c0-0.1,0-0.1,0-0.2c0,0.1,0.1,0.1,0.1,0.2C223.4,451.4,223.4,451.5,223.3,451.5z
		 M212.3,445.5L212.3,445.5L212.3,445.5C212.3,445.5,212.3,445.5,212.3,445.5C212.3,445.5,212.3,445.5,212.3,445.5
		S212.3,445.5,212.3,445.5L212.3,445.5z M222.1,430.4c0,0.2,0,0.5,0,0.7C221.9,430.9,221.9,430.6,222.1,430.4z M209.1,372.4
		c0,0-0.1,0-0.1,0.1l0,0C209.1,372.4,209.1,372.4,209.1,372.4z M209,372.5L209,372.5L209,372.5L209,372.5z M210.8,430.2
		c-0.1,0.2-0.1,0.5-0.2,0.8h0l0,0l0,0l0,0h0h0v0l0,0l0,0c0,0,0,0,0,0c0,0,0,0,0,0l0,0c0,0,0,0-0.1,0
		C210.6,430.7,210.7,430.4,210.8,430.2z M238.9,491.8C238.9,491.8,238.9,491.8,238.9,491.8C238.9,491.8,238.9,491.8,238.9,491.8
		C238.9,491.8,238.9,491.8,238.9,491.8z M226.2,396.2c0-0.2,0-0.2,0.1-0.3C226.3,396.1,226.2,396.1,226.2,396.2z M226.5,358.4
		L226.5,358.4L226.5,358.4L226.5,358.4z M249.8,521.2C249.8,521.2,249.8,521.2,249.8,521.2C249.8,521.2,249.8,521.2,249.8,521.2
		c0,0.1,0.1,0.2,0.1,0.2C249.9,521.4,249.8,521.3,249.8,521.2z M177.1,423.1L177.1,423.1C177.1,423.1,177.1,423.1,177.1,423.1
		C177.1,423.1,177.1,423.1,177.1,423.1z M174.3,521.6L174.3,521.6c-0.1,0.1-0.3,0.2-0.5,0.3C174,521.8,174.2,521.7,174.3,521.6z
		 M227.3,414.7c-0.1,0-0.3,0-0.4,0C227,414.6,227.2,414.6,227.3,414.7L227.3,414.7L227.3,414.7L227.3,414.7z M224.7,280.4
		C224.7,280.4,224.7,280.4,224.7,280.4L224.7,280.4C224.7,280.4,224.7,280.4,224.7,280.4z M246.9,261.9L246.9,261.9
		C246.9,261.9,246.9,261.9,246.9,261.9C246.9,261.9,246.9,261.9,246.9,261.9L246.9,261.9z M206.3,287.7c0-0.1,0-0.2,0-0.3
		c0.1,0.1,0.1,0.2,0.2,0.2C206.4,287.6,206.4,287.7,206.3,287.7z M185.3,306.8C185.3,306.8,185.3,306.8,185.3,306.8
		C185.4,306.8,185.4,306.8,185.3,306.8C185.4,306.8,185.3,306.8,185.3,306.8z M149.7,358.3c0,0.1-0.1,0.2-0.1,0.3
		c0,0-0.1-0.1-0.1-0.1C149.6,358.4,149.6,358.3,149.7,358.3z M149,375L149,375C149,375,149,375,149,375C149,375,149,375,149,375z
		 M135.6,420.5C135.6,420.5,135.6,420.6,135.6,420.5C135.6,420.6,135.6,420.5,135.6,420.5C135.5,420.5,135.5,420.5,135.6,420.5z
		 M146.5,405.7c0.1-0.3,0.1-0.7,0.2-1C146.6,405.1,146.6,405.4,146.5,405.7C146.5,405.7,146.5,405.7,146.5,405.7L146.5,405.7z
		 M153.4,359.1L153.4,359.1L153.4,359.1C153.4,359.1,153.4,359.1,153.4,359.1C153.4,359.1,153.4,359.1,153.4,359.1L153.4,359.1
		L153.4,359.1L153.4,359.1C153.4,359.1,153.4,359.1,153.4,359.1z M158,339.9L158,339.9C158,339.9,158,339.9,158,339.9
		C158,339.9,158,339.9,158,339.9L158,339.9z M158,339.9C158,339.9,158,339.9,158,339.9C158,339.9,158,339.9,158,339.9
		C158,339.9,158,339.9,158,339.9z M130.2,414.1C130.2,414.1,130.2,414.1,130.2,414.1C130.2,414,130.2,414,130.2,414.1
		C130.3,414,130.2,414.1,130.2,414.1z M135.5,420.5C135.5,420.5,135.5,420.5,135.5,420.5L135.5,420.5c-0.4-0.9-0.8-1.8-1.4-2.6
		C134.6,418.7,135.1,419.5,135.5,420.5C135.5,420.4,135.5,420.4,135.5,420.5L135.5,420.5C135.5,420.5,135.5,420.5,135.5,420.5
		C135.5,420.5,135.5,420.5,135.5,420.5C135.5,420.5,135.5,420.5,135.5,420.5L135.5,420.5L135.5,420.5
		C135.5,420.5,135.5,420.5,135.5,420.5C135.5,420.5,135.5,420.5,135.5,420.5c-2,0-3.6-1.3-5.1-2.4
		C131.9,419.2,133.4,420.4,135.5,420.5z M145.5,416.7L145.5,416.7C145.5,416.7,145.5,416.7,145.5,416.7L145.5,416.7z M294.1,251
		L294.1,251L294.1,251C294.1,251,294.1,251,294.1,251L294.1,251L294.1,251C294.1,251,294.1,251,294.1,251
		C294.1,251,294.1,251,294.1,251z M294.1,251C294.1,251,294.1,251,294.1,251L294.1,251C294.1,251,294.1,251,294.1,251L294.1,251
		c-0.5-0.5-0.3-1.1-0.2-1.6C293.9,250,293.6,250.5,294.1,251L294.1,251z M294.2,251L294.2,251C294.2,251,294.2,251,294.2,251
		C294.2,251,294.2,251,294.2,251z M314.4,236.3C314.4,236.3,314.4,236.3,314.4,236.3C314.4,236.3,314.4,236.3,314.4,236.3
		C314.4,236.3,314.4,236.3,314.4,236.3z M327.3,242.6c0.1,0,0.2,0.1,0.3,0.1c-0.1,0.1-0.2,0.2-0.3,0.3
		C327.3,242.8,327.3,242.7,327.3,242.6z M322.5,230.9C322.5,230.9,322.5,230.9,322.5,230.9C322.5,230.9,322.5,230.9,322.5,230.9
		C322.5,230.9,322.5,230.9,322.5,230.9z M298.8,235.3C298.8,235.3,298.8,235.3,298.8,235.3C298.8,235.3,298.8,235.3,298.8,235.3
		L298.8,235.3L298.8,235.3z M194.4,288.2C194.4,288.2,194.3,288.2,194.4,288.2C194.3,288.2,194.3,288.2,194.4,288.2
		C194.3,288.2,194.4,288.2,194.4,288.2z M182.7,297.2c-0.1,0.3-0.3,0.4-0.5,0.4C182.3,297.4,182.5,297.3,182.7,297.2z M155,325.2
		L155,325.2C155.1,325.2,155.1,325.2,155,325.2L155,325.2L155,325.2L155,325.2C155.1,325.2,155.1,325.2,155,325.2L155,325.2z
		 M136.3,377.3L136.3,377.3C136.3,377.3,136.3,377.3,136.3,377.3c-0.1-0.4-1.1,0.2-1-0.5C135.2,377.5,136.2,376.9,136.3,377.3z
		 M191,537.8C191,537.8,191,537.8,191,537.8C191,537.8,191,537.8,191,537.8L191,537.8c0-0.1,0-0.1,0-0.2
		C191,537.7,191,537.7,191,537.8C191,537.8,191,537.8,191,537.8z M215.9,561.5C215.9,561.5,215.9,561.5,215.9,561.5
		C215.9,561.5,216,561.5,215.9,561.5C215.9,561.5,215.9,561.5,215.9,561.5z M275.6,584.3c-0.4,0.8-1.1,0.6-1.7,0.4
		c-0.1,0-0.2-0.1-0.3-0.1c-0.5-1.2,0.7-1.2,1.2-1.7c0.1,0.1,0.3,0.2,0.4,0.3C275.7,583.4,275.9,583.8,275.6,584.3z M281.1,585.8
		C281.1,585.8,281.1,585.8,281.1,585.8L281.1,585.8L281.1,585.8C281.2,585.8,281.2,585.8,281.1,585.8
		C281.2,585.8,281.2,585.8,281.1,585.8L281.1,585.8C281.2,585.8,281.2,585.8,281.1,585.8L281.1,585.8
		C281.2,585.8,281.1,585.8,281.1,585.8C281.1,585.8,281.1,585.8,281.1,585.8L281.1,585.8L281.1,585.8
		C281.2,585.8,281.2,585.8,281.1,585.8L281.1,585.8L281.1,585.8L281.1,585.8C281.2,585.8,281.2,585.8,281.1,585.8
		C281.2,585.8,281.2,585.8,281.1,585.8L281.1,585.8L281.1,585.8L281.1,585.8C281.1,585.8,281.1,585.8,281.1,585.8
		C281.1,585.8,281.1,585.8,281.1,585.8z M281.2,585.8C281.2,585.8,281.2,585.8,281.2,585.8C281.2,585.8,281.2,585.8,281.2,585.8
		c0.7-0.3,1.4-1.2,2.4,0C282.6,584.6,281.9,585.5,281.2,585.8z M278.2,586.7L278.2,586.7L278.2,586.7L278.2,586.7z M289.4,575.1
		c-2-0.5-3.9-1.5-6-1.4c-0.4-0.1-0.7-0.3-1.1-0.4c-1.3-0.4-2.6-0.8-3.9-0.8c0,0-0.1,0-0.1,0c-2.9-0.9-5.7-2-8.7-2.6
		c-0.2-0.1-0.4-0.2-0.7-0.3c-0.5-0.2-1-0.3-1.5-0.5c-1.4-0.4-2.9-0.6-4.3-1.1c-0.1,0-0.2-0.1-0.3-0.1c-5.3-1.8-10.6-3.6-15.9-5.3
		c-6.6-2.1-12.9-5-19.5-6.8c-0.2-0.2-0.5-0.3-0.8-0.5c-1.4-0.8-2.8-1.4-4.3-1.9c-0.1,0-0.2-0.1-0.3-0.1c-1.6-1.2-3.5-1.6-5.3-2.4
		c-0.1,0-0.1,0-0.1-0.1c-3.6-2.4-7.2-4.8-10.8-7.2c-0.1,0-0.2-0.1-0.3-0.2c-0.6-0.4-0.9-1.1-1.5-1.6c-0.1-0.1-0.2-0.2-0.3-0.2
		c-0.4-0.3-0.8-0.6-1.2-0.9c-0.1-0.2-0.3-0.5-0.5-0.6c-0.8-0.7-1.8-1.1-2.4-2c-0.2-0.2-0.3-0.4-0.4-0.7c-0.4,1.1-0.5,2-0.1,2.6l0,0
		h0v0c-0.4-0.5-0.3-1.5,0.1-2.6c-0.5-0.6-1.1-1.1-1.6-1.7c0,0-0.1-0.1-0.1-0.1c-0.8-0.9-1.5-1.7-2.3-2.6c-0.2-0.2-0.4-0.4-0.6-0.6
		c-2.6-3.3-4.8-6.9-7-10.5c0-0.1-0.1-0.1-0.1-0.2c-0.2-0.5-0.5-1.1-0.8-1.6c-0.2-0.3-0.3-0.7-0.5-1c-1.3-3-2.5-6.1-3.8-9.1
		c0-0.1-0.1-0.2-0.1-0.2c-0.2-0.6-0.1-1.4-0.3-2c-0.1-0.3-0.2-0.5-0.4-0.8c0-0.1,0-0.2-0.1-0.3c0-0.1,0-0.1,0-0.2
		c0-0.7-0.4-1.5-0.2-2.2c0-0.2,0.1-0.3,0.2-0.5c3.1,2.3,6,4.7,9.2,6.8c1.4,0.9,3.1,1.2,4,3c0.5,0.9,2,0.7,3.1,0.6
		c0,0.2,0.1,0.3,0.2,0.5c1,2.5,4,2.7,5.7,4.4c0.3,0.3,1.2,0.3,1.6,0.9c0.1,0.1,0.1,0.2,0.2,0.4c0.7,0.4,1.4,0.9,2,1.3
		c0.2,0.2,0.4,0.4,0.6,0.5c0.8,0.6,1.9,0.8,2.6,1.5c0.1,0,0.1,0.1,0.1,0.1c2.9,1.7,5.8,3.3,8.8,5c0.1,0.2,0.1,0.3,0.2,0.4
		c0.4,0.4,0.9,0.4,1.3,0.4c1.7,0,2.2,2.2,3.9,2c1.2-0.1,1.4,1.3,2.3,1.7c0.1,0,0.1,0.1,0.2,0.1c0.6,0.6,1.4-0.1,2,0.5
		c0.1,0.3,0.2,0.5,0.3,0.7c0.2,0.3,0.5,0.5,0.9,0.5c1.5,0,2.4,0.9,3.4,1.8c0.5,0.5,1.2,0.9,2,1c0.1,0,0.1,0,0.2,0l0,0
		c0.1,0,0.2,0.1,0.3,0.2c1,0.5,1.9,1.2,3,1.6c0.3,0.1,0.6,0.2,0.8,0.3c3.3,2.1,7.2,2.9,10.6,4.7c2.8,1.5,5.7,2.5,8.6,3.7
		c0.1,0.2,0.3,0.3,0.5,0.4c0.4,0.3,0.9,0.4,1.4,0.6c0,0,0,0,0.1,0c2.4,0.8,4.7,1.9,7.2,2.4c0.2,0.1,0.3,0.2,0.5,0.3
		c1.9,1.1,4,1.5,6,2.1c0.5,0.2,1,0.3,1.5,0.5c5.4,0.9,9.2,4.6,13.5,7.4c7.8,5.1,16,9.4,24.4,13.4c5.9,2.8,12,5,18.2,7.2
		c0.3,0.1,0.5,0.2,0.8,0.3l0,0c0.4,0.2,0.8,0.4,1.1,0.7c-1-0.1-2-0.2-3-0.4C317.4,580.7,303.3,578.3,289.4,575.1z M395.1,588.3
		c-4.8-1-9.5-2.1-14.3-3.2c-7.7-1.8-15.3-3.7-22.8-6.1c-1.2-0.4-2.5-0.8-3.7-1.3c0.3-0.1,0.5-0.3,0.8-0.4c-0.2-0.1-0.3-0.1-0.5-0.2
		c0.1,0,0.3,0.1,0.5,0.2c8.8,2.1,17.6,4.1,26.4,6.4c4.8,1.3,9.6,2.8,14.4,4.1C395.6,588.1,395.4,588.2,395.1,588.3
		c0.2,0.1,0.4,0.1,0.5,0.2C395.5,588.5,395.3,588.4,395.1,588.3z M530.4,587.4c-0.6-0.1-1.1-0.1-1.7-0.1c-0.2,0-0.3,0-0.4,0
		c-0.6,0.1-1.2,0.2-1.7,0.4c-9.5,0.3-19.1,0.9-28.6,1.6c-9.3,0.7-18.7,1.4-28,1.4c-7.8,0-15.4-1.8-23.1-3.2
		c-10-1.7-19.9-3.8-29.8-6.3c-3.8-0.9-7.6-1.8-11.4-2.8c-0.5-0.2-1.1-0.4-1.6-0.6c-1.5-0.6-3-1.1-4.6-1.3c-0.4-0.1-0.8-0.1-1.3-0.1
		c-1.6-1.4-3.7-1.4-5.5-1.9c-4-1.1-7.9-2.6-12-3.4c-0.2-0.2-0.5-0.3-0.8-0.3c-0.8-0.2-1.7-0.1-2.6-0.4c-0.1,0-0.3-0.1-0.4-0.2
		c-0.8-0.3-1.6-0.6-2.5-0.8c-0.3-0.2-0.6-0.3-0.9-0.3c-0.9-0.1-1.8,0.1-2.7-0.2c-0.2-0.1-0.4-0.1-0.6-0.3
		c-5.9-1.9-11.8-3.4-17.9-4.2c-0.5-0.3-1-0.5-1.5-0.7c-1.6-0.5-3.2-0.7-4.8-1.2c-1.9-0.6-3.9-0.9-5.9-1.3c-0.1,0-0.3-0.1-0.4-0.1
		c-2.3-0.6-4.7-1.2-7-1.7c-0.1-0.1-0.3-0.1-0.5-0.2c-1.4-0.6-2.8-1-4.3-1.4c-1.9-0.5-3.9-0.7-5.7-1.6c0,0-0.1,0-0.1-0.1v0
		c-0.1-0.1-0.3-0.2-0.4-0.2c-1.2-0.6-2.4-0.8-3.7-1c-0.2,0-0.3,0-0.5-0.1c-8.4-3-17-5.3-25.5-7.9c-1.6-0.5-2.8-1.3-4-2.5
		c-5.4-5.2-10.6-10.6-16-15.7c-1.8-1.7-3.3-3.7-5-5.6c-1.2-1.4-2.5-2.6-3.8-3.8c0,0,0-0.1-0.1-0.1c-0.3-0.4-0.6-0.8-0.8-1.3
		c-0.1-0.1-0.2-0.2-0.2-0.4c-0.7-0.8-1.4-1.6-2.1-2.5c0,0,0-0.1-0.1-0.1c-0.6-1.4-2.1-1.8-3.1-2.9c-0.6-0.7-0.5-1.9-1.3-2.3
		c-0.1-0.1-0.3-0.1-0.5-0.2c-1.4-0.9-1.4-2.7-2.6-3.7c0-0.1,0-0.1,0-0.2c-0.1-0.8-0.8-1.4-1.2-2c-0.1-0.1-0.2-0.3-0.3-0.4
		c-0.5-1-1-2-1.7-2.9c0,0,0-0.1-0.1-0.1c-1.2-3.4-3.5-6.2-4.9-9.5c-0.2-0.2-0.3-0.5-0.5-0.8c-0.9-0.8-1.1-2-1.5-3
		c-0.2-0.3-0.3-0.5-0.5-0.8c-0.3-1.6-1.3-2.8-2.1-4.1c-0.3-0.3-0.7-0.5-0.9-0.8c-1.6-3-3.1-6.1-4.6-9.2c-1.4-2.9-2.7-5.9-4.1-8.9
		c-0.4-1.7-1.3-3.3-0.7-5.1c0.2-0.6-0.2-1-0.8-1.2l0,0c-0.3-0.2-0.3-0.5-0.3-0.8c0.1,0.3,0.1,0.5,0.3,0.8c0.1-1.2,0.6-2.4,0.1-3.7
		c-0.8-1.9-0.7-4-0.6-6c0-1,0.2-1.9-0.2-2.9c0.1-0.4-0.1-0.6-0.4-0.8c0.2-3-0.5-6.1-0.1-9.1c-0.1,0-0.2-0.1-0.3-0.1c0,0,0,0,0,0l0,0
		c0,0,0,0,0,0c-0.1,0-0.1,0-0.2,0.1c0.1,0,0.1,0,0.2-0.1h0c0-0.6,0-1.2-0.1-1.9c0-0.6,0-1.2-0.1-1.8c-0.1,0-0.1-0.1-0.2-0.1
		c0.1-0.1,0.2-0.1,0.3-0.2c0-0.1,0.1-0.3,0.1-0.4c0.2-0.8,0.2-1.7,0.1-2.5c-0.2-1.7-0.6-3.4-0.3-5.1c0-0.1,0-0.3,0.1-0.4
		c0-0.3,0-0.6,0.3-0.9c0.4-0.8,0.6-1.6,0.5-2.6c-0.1-1.3,0-2.7-0.1-4.1l0,0c0.2-2,0.7-3.9,0-5.9c0.8-0.8-0.2-1.9,0.3-2.8
		c0-0.1,0-0.1,0.1-0.2c0.2-0.4-0.1-1,0.4-1.3c0.2,0,0.3-0.1,0.4-0.3c0.1-0.2,0.1-0.4,0.1-0.5c-0.4-1.7-0.3-3.2,0.4-4.7
		c0.1-0.2,0.2-0.5,0.4-0.7c1-0.9-1.2-1.7,0-2.5c0.1-0.1,0.3-0.4,0.2-0.5c0,0,0,0,0,0c0-0.1,0.1-0.3,0.1-0.4c0.2-1.2-0.1-2.4,0.3-3.6
		c0.1-0.2,0.2-0.4,0.4-0.6c0,0,0,0,0-0.1c0.1-0.1,0.2-0.3,0.3-0.5c0.8-1.5,0.7-3.3,0.9-5c0,0,0-0.1,0-0.1c0.4-1.8,0.9-3.6,1.3-5.4
		c0.1-0.3,0.2-0.6,0.3-0.9c0.4-1,0.9-2.1,0.7-3.2c0-0.2-0.1-0.4-0.2-0.6l0,0c0-0.1,0.1-0.1,0.1-0.2c0.6-1.3,1.3-2.7,1.9-4
		c0.1-0.2,0.2-0.5,0.4-0.8c1.3-3.1,2-6.4,4-9.2c0.5-0.7,0.8-1.6,1.1-2.5c-0.1-0.2-0.1-0.4-0.1-0.6c0.1,0.2,0.1,0.4,0.1,0.6
		c0.1-0.3,0.2-0.6,0.3-0.9c0.4-1.2,1.2-2.2,2-3.1c0.1-0.1,0.2-0.3,0.2-0.4c0.1-0.3,0.2-0.7,0.4-1c0.1-0.3,0.3-0.5,0.4-0.8
		c0.1-0.3,0.3-0.5,0.4-0.8c0.3-0.4,0.6-0.8,0.7-1.2c0.1-0.1,0.1-0.3,0.1-0.5c2.2-4.8,6.8-7.1,10.7-10.1c5-3.7,10-7.3,15.1-10.9
		c0.2,0,0.3-0.1,0.5-0.1c0.8-0.2,1.5-0.7,2.1-1.3c0.2-0.2,0.3-0.4,0.5-0.6l0,0c0,0,0,0,0.1,0c0.7-0.2,1.4-0.4,1.9-0.9
		c0.1-0.1,0.3-0.3,0.4-0.4c1.1-0.8,2.5-1.1,3.4-2.1c0.1,0,0.1-0.1,0.2-0.1c1.5-0.7,2.6-2,4-2.8c0.3-0.2,0.7-0.3,1.1-0.4
		c1-0.7,2-1.4,3-2.1c0.1,0,0.2-0.1,0.3-0.1c0.8-0.3,1.5-0.5,2.2-1c0.2-0.1,0.4-0.3,0.5-0.5c0.2-0.2,0.5-0.4,0.7-0.6
		c0.1,0,0.2-0.1,0.2-0.1c1.5-0.8,2.7-2.1,4.4-2.8c0.3-0.1,0.6-0.2,0.9-0.3c2-1.5,4.5-2.3,6.2-4.2c0.1-0.1,0.3-0.1,0.4-0.2
		c3.5-1.7,6.7-3.9,10.2-5.5c0.5-0.2,1-0.4,1.5-0.6l0,0c0.1,0,0.2,0,0.2-0.1c0.9-0.2,1.5-0.9,2.2-1.4c0.1-0.1,0.3-0.2,0.5-0.2
		c1.1-0.6,2.2-1.2,3.3-1.7c0,0,0.1,0,0.2,0c0.5-0.1,0.9-0.2,1.3-0.5c0.1-0.1,0.2-0.2,0.3-0.3c0.5-0.3,1.1-0.6,1.6-1
		c0.1,0,0.2,0,0.2-0.1c1.2-0.3,2.2-1,3.2-1.7c0.1-0.1,0.2-0.2,0.4-0.2c4.2-2.1,8.3-4.2,12.5-6.3c0.1,0,0.2-0.1,0.3-0.1
		c1.5-0.8,3.1-1.1,4.5-2c0.2-0.1,0.3-0.2,0.5-0.4c0.2-0.1,0.3-0.2,0.5-0.4c0.1,0,0.2,0,0.3,0c0.4,0,0.7-0.2,1-0.4
		c0.9,0,0.8-1.3,1.7-1.3c2,0,3.5-1.1,5.3-1.8c0.2-0.1,0.3-0.1,0.5-0.2c0.4-0.2,0.8-0.4,1.2-0.5c0.1,0,0.1,0,0.2,0
		c0.8-0.1,1.6-0.3,2.3-0.8c0.1-0.1,0.3-0.2,0.4-0.3c1.7-0.5,3.4-1.1,4.6-2.5c0,0,0.1,0,0.1,0c1.2-0.4,2.6-0.2,3.8-0.8
		c0.3-0.1,0.5-0.2,0.7-0.4c0.2-0.2,0.5-0.3,0.8-0.5c0.1,0,0.1-0.1,0.2-0.1c0.9-0.3,1.6-0.9,2.3-1.4c0.1-0.1,0.3-0.2,0.4-0.3
		c0.5,0,1.1,0,1.7,0c0.1,0,0.2-0.1,0.3-0.1c1.8-0.4,3.5-1.1,5.2-1.9c0.7-0.3,1.4-0.5,2.1-0.8c1.1-0.4,2.1-0.9,3.2-1.3
		c2-0.5,4-1.1,5.8-2.2c0.9-0.1,1.8-0.1,2.6-0.7c1.2,0,1.9-1.3,3-1.3c2.2,0,4.1-0.9,6-1.7c0.6-0.2,1.3-0.4,2-0.5
		c0.1,0.1,0.4,0,0.6-0.2c1.8-1.2,3.9-1.8,5.9-2.4c1.1,0.6,2.1,0.1,3.1-0.3c2-0.7,4.2-1,5.9-2c1.7-1,3.4,0.2,4.8-1
		c0.8-0.3,1.6-0.7,2.4-1c0.6,0,1.2,0.1,1.6-0.5c0.6-0.2,1-0.8,1.7-0.6c1.9,0.5,3.4-0.4,5.1-0.9c0.5,0.2,0.9,0.1,1.2-0.1
		c0.1-0.1,0.3-0.2,0.4-0.3c0.6,0.2,0.8-0.3,1.2-0.4c0.2,0,0.3,0,0.5-0.1c1.2-0.1,2.4-0.3,3.6-0.7c0.5-0.1,0.9-0.3,1.4-0.5
		c2.2-0.6,4.4-1.1,6.6-1.7c0.1,0,0.1-0.1,0.2-0.1c1.5-0.6,3.2-0.3,4.7-0.9c0.1,0,0.1-0.1,0.2-0.1c0.1,0,0.2-0.1,0.3-0.1
		c0.6-0.4,1.3-0.4,2-0.5c0.1,0,0.2,0,0.3,0c1.1,0,2.1-0.4,3.2-0.7c0.5-0.1,1.1-0.3,1.6-0.4c1.3-0.2,2.7-0.2,3.7-0.8
		c1.7-1.1,3.6-1,5.4-1.4c1.4,0,2.8-0.3,4.2-0.8c3.4-0.6,6.8-1.3,10.2-1.9c0.2,0,0.5-0.1,0.7-0.1c0.1,0,0.2,0,0.3-0.1
		c0.2,0,0.4-0.1,0.6-0.1c2-0.3,4.1-0.2,6-1.2c2.3,0.4,4.3-1.2,6.5-1.2c0.2,0,0.4,0,0.6,0c5.8-0.3,11.4-1.6,17.1-2.3
		c1.7-0.2,3.5,0,5-1c0.2,0,0.4,0,0.5,0c0.8,0.1,1.7,0.2,2.5,0c0.3-0.1,0.5-0.2,0.8-0.4c5.7-0.2,11.4-1.2,17.1-1.8
		c7.2-0.7,14.3-1.7,21.4-2.1c9.1-0.6,18.1-1.5,27.1-2.2c5.1-0.4,10.2-0.5,15.4-1c6.6-0.6,13.2-0.4,19.8,0.1
		c7.5,0.5,15.1,1.2,22.6,1.9c10.8,1,21.5,3.1,32.2,4.4c5.2,0.7,10.3,1.4,15.5,2.1c9.3,1.3,18.6,3.1,27.8,5.1
		c14.8,3.2,29.7,6.5,44.4,10.1c7.7,1.9,15.4,3.7,22.6,7.1c3.5,1.7,6.9,3.8,10.3,5.7c4,2.1,7.7,5,11.9,6.8c1.9,0.8,3.4,2.3,5.3,3
		c0.1,0.1,0.2,0.2,0.3,0.3c1.3,1.3,2.7,2.4,4.2,3.4c0.3,0.2,0.6,0.4,1,0.6c1.2,1.3,3.1,1.7,4.2,2.8c2,2,4.7,3.5,6.2,6
		c0.3,0.1,0.5,0.2,0.6,0.4c0.3,0.4,0.5,0.8,0.9,1.1c0,0,0.1,0.1,0.2,0.1c1.4,1.1,2.7,2.3,4.1,3.4c0.1,0,0.2,0.1,0.2,0.1
		c1.4,0.9,2.3,2.7,4.4,2.3l0,0h0h0l0,0l0,0c0,1.1,0.2,2.2,1.4,2.5c1.9,0.5,3.4,1.4,4.5,3.1c0,0.1,0.1,0.1,0.2,0.1
		c0.2,0.1,0.5,0.2,0.7,0.4c1.6,1.2,3.2,2.3,4.8,3.5c0.1,0.1,0.2,0.2,0.3,0.4c0.3,0.5,0.7,0.9,1.4,0.9c1.5,0.7,2.2,2.6,4.2,2.5
		c0,0,0.1,0,0.1,0c0.1,0.1,0.3,0.2,0.4,0.2c0.7,0.6,0.6,1.8,1.6,2.1c0.1,0.1,0.1,0.1,0.2,0.2c0.6,0.6,1.4,0.6,2.2,0.7c0,0,0,0,0,0
		l0,0c0.1,0.1,0.2,0.2,0.3,0.4c0.5,0.6,0.8,1.3,1,2.1c0.8,0.4,1.1,2.3,2.5,0.8c0.9,0.2,0.3,1.5,1.2,1.8c0.3,0.4,0.7,0.8,1,1.2
		c1.8,1.3,3.8,2.4,5.2,4.1c0.9,1,2.7,1.1,3,2.7c0.1,0.1,0.3,0.2,0.4,0.4c1.1,0.8,2.2,1.7,3.4,2.5l0,0c1.1,1,2.2,2,3.3,3
		c0-0.1,0.1-0.2,0.2-0.2h0c-0.1,0.1-0.1,0.2-0.2,0.2c1.6,0.4,3.1,0.9,3.1,3c0,0.1,0.2,0.1,0.3,0.2c1,1.1,2,2.2,3,3.3
		c0.4,0.4,0.9,0.9,1.3,1.3c0.1,0.1,0.1,0.1,0.2,0.2c0,0.1,0,0.2,0.1,0.3c0.1,0.1,0.1,0.1,0.2,0.2c0.6,0.8,1.3,1.5,1.9,2.3l0,0l0,0
		c0.1,0.1,0.2,0.1,0.3,0.1c1.3,2.1,3,3.9,4.6,5.8c0.2,0.3,0.4,0.5,0.7,0.7c1.2,1.1,2.7,2,3.3,3.6c0.1,0.2,0.2,0.5,0.2,0.8
		c0.9,1.3,1.6,2.7,2.9,3.7c0.2,0.2,0.3,0.4,0.5,0.6c0.9,0.9,1.9,1.6,2.5,2.7c0.2,0.4,0.4,0.7,0.4,1.2c2,0.7,1.5,3.3,3.2,4.3
		c0,0.1,0.1,0.2,0.2,0.3c0.6,1.1,2,1.9,2.2,2.9c0.6,3.1,3.9,4.6,4.7,7.5c0.1,0.3,0.2,0.6,0.2,0.9c0.1,0.1,0.2,0.3,0.4,0.5
		c0,0.1,0.1,0.3,0.1,0.4c0.3,0.9,0.7,1.9,1.3,2.6c0.1,0.1,0.1,0.2,0.2,0.3l0,0c0.1,0.1,0.2,0.2,0.3,0.2c1,0.9,1.2,2.1,1.5,3.3
		c0.1,0.4,0.2,0.7,0.3,1c0.6,1.1,0.8,2.4,1.7,3.3c0.1,0.1,0.2,0.2,0.2,0.3c0.8,1.2,0.8,2.6,1.2,3.9c0.2,0.4,0.3,0.8,0.6,1.2
		c0.9,2.2,1.9,4.5,2.8,6.7c0,0.1,0,0.2,0.1,0.3c0.3,2,1.6,3.6,2.1,5.6c0.2,0.4,0.4,0.8,0.6,1.1c0.6,1.7,1.2,3.4,1.9,5.1
		c0.2,0.5,0.3,1,0.5,1.5c0.4,1,0.7,2,1.1,3c0.1,0.1,0.1,0.3,0.2,0.5c0.3,3.1,1.8,5.8,2.6,8.7c1.5,5.4,2.8,10.8,3.2,16.4
		c0,0.4,0.1,0.7,0.4,0.9c0,0.1,0,0.2,0.1,0.3c0.8,3.1,0.1,6.4,0.8,9.6c0.8,3.9,1.1,7.9,1.4,11.9c0.2,1.7,1.3,3.2,1.1,5v0
		c0.1-0.2,0.1-0.5,0.2-0.7c-0.1,0.2-0.1,0.5-0.2,0.7v0c0,0,0,0,0,0.1c-0.1,0.5-0.1,1-0.1,1.5c0,0.7,0.2,1.5,0.3,2.2
		c0.2,0.6,0.3,1.3,0.5,1.9c0.7,2.1,0.2,4.2-0.2,6.3c-0.2,0.8-0.2,1.6-0.3,2.4c0,0.2,0,0.4-0.1,0.5c-0.3,1.9-1.8,2.9-3.5,3.8
		c-2.7,1.5-5.5,3-8.2,4.5c0,0,0,0-0.1,0c-0.4,0-0.7,0.1-1,0.4c0,0-0.1,0.1-0.1,0.1c-0.2,0.1-0.3,0.2-0.5,0.3
		c-0.2,0.1-0.3,0.2-0.5,0.3c-0.9,0.5-1.9,0.9-2.8,1.4c-0.1,0-0.2,0.1-0.3,0.2c-0.8,0.4-1.7,0.8-2.6,1.2c-0.1,0-0.1,0.1-0.2,0.1
		c-2.1,0.9-3.7,2.8-6.1,3.2c-0.1,0-0.2,0.1-0.4,0.1c-2,1-3.9,1.9-5.9,2.9l0,0c0.5,0.6,1.3,1,1.6,2c-0.3-1-1.1-1.4-1.6-2c0,0,0,0,0,0
		c-1.2,0.3-2.3,0.8-3.3,1.6l0,0c-1.8,0.2-2.8,2.1-4.7,2.1c0,0,0,0,0,0c-0.6,0.1-1.2,0.3-1.6,0.7c0,0,0,0,0,0c-1.1,0.2-2,0.8-2.9,1.4
		c-0.1,0-0.2,0-0.2,0c-0.8,0.1-1.5,0.5-2.2,0.8c-0.2,0.1-0.4,0.2-0.6,0.3c-1.4,0.6-2.7,1.2-4.1,1.8c-0.1,0-0.1,0.1-0.2,0.1
		c-0.9,0.3-1.8,0.7-2.5,1.3c-0.1,0.1-0.2,0.1-0.3,0.2c0,0,0,0,0,0l0,0l0,0v0c-0.6,0.6-1.5,0.2-2.1,0.5c-0.1,0.1-0.3,0.2-0.4,0.3
		c-5.1,2.1-10.2,4.2-15.4,6.3c0,0-0.1,0-0.2,0.1c-1,0.5-2.1,0.6-3.1,1c-0.3,0.1-0.7,0.3-1,0.5c-0.7,0.3-1.4,0.5-2.1,0.8
		c-0.1,0-0.2,0-0.3,0c-0.6,0.1-1.1,0.4-1.6,0.7c-0.1,0-0.1,0.1-0.2,0.1c-8.5,3.1-17,6.2-25.5,9.2c-0.2,0.1-0.3,0.1-0.5,0.2
		c-3.2,1.1-6.5,2.2-9.7,3.3c-0.2,0.1-0.5,0.2-0.7,0.2c-2.5,1.4-5.5,0.9-8,2c0,0,0,0,0,0c0,0-0.1,0-0.1,0l-0.2-0.1l0,0.1l0,0.1
		c-3.4,0.7-6.8,1.4-10.2,2.1c-0.5,0.1-1.1,0.2-1.6,0.3c-4.3,0.7-8.6,1.4-12.8,2.5c-0.2,0.1-0.4,0.1-0.6,0.1c-0.4,0-0.9,0-1.3,0
		c-0.3,0-0.7,0.1-1,0.4c-3.6,0.5-7.2,1.2-10.8,2c-2.4,0.5-5,0.5-7.4,1c-3.4,0.8-7,0.5-10.4,1.9c-1.3,0.6-3.2,0-4.8,0.3
		c-5.5,1-11.1,1.8-16.6,2.7c-0.1,0-0.2,0-0.3,0.1c-1.2,0.2-2.4,0.1-3.6,0.3c-0.4,0.1-0.8,0.2-1.1,0.3c-1.9-0.1-3.6,0.2-5.2,1.4
		c-0.8,0.5-1.3-0.5-2.2-0.3c-8.5,1.6-17.2,2.8-25.6,4.5c-7.4,1.5-15,2-22.3,3.7c-0.3,0.1-0.6,0.1-0.9,0.2c-1.5,0.3-2.9,0.6-4.4,0.9
		c0,0-0.1,0-0.2,0c0,0-0.1,0-0.1,0c-0.3,0.1-0.7,0.1-1,0.2c-1.6,0.3-3.2,0.6-4.8,1c-1,0.2-2.2,0-3.2,0.6c-0.2,0.1-0.3,0.2-0.5,0.4
		c-2.3,0.6-4.8-0.1-7.1,0.8c0,0-0.1,0-0.2,0c-0.4,0-0.8,0-1.2,0.2c-0.1,0-0.3,0.1-0.4,0.2c-2.3,0.2-4.5,0.6-6.7,1.2
		c-0.4,0-0.8,0.1-1.1,0.1c-0.9,0.1-1.8,0.2-2.6,0.5c-0.3,0.1-0.6,0.2-0.9,0.2c-4.7,1-9.5,2-14.2,2.8c-5.1,0.8-10.2,1.6-15.3,2.6
		c-4.9,1-9.8,1.3-14.7,2.5c-1.9,0.4-3.9,0.9-5.8,1c-0.3,0-0.5,0.1-0.8,0.1c-1.2,0.1-2.5,0.1-3.6,0.4c-0.3,0.1-0.7,0.2-1,0.3
		c-1.1,0.2-2.2,0.3-3.3,0.5c-0.6,0-1.3,0-1.9,0.1c-1.2,0.1-2.5,0.3-3.7,0.5c-0.4,0.1-0.7,0.1-1.1,0.2c-5.5,0.9-11,1.6-16.5,2.2
		c-2.9,0.3-5.7,0.7-8.6,1.1c-0.1,0-0.2,0-0.3,0c-0.9,0.1-1.7,0.1-2.6,0.1c-0.2,0-0.5,0-0.7,0h0c-0.2,0-0.5,0-0.7,0.1
		c-0.1,0-0.2,0-0.4,0c-0.7,0.1-1.5,0.3-2.2,0.5c0,0-0.1,0-0.2,0c-2.4-0.5-4.7,0.1-7.1,0.2c-6.7,0.3-13.4,0.9-20.1,1.3
		C530.9,587.3,530.7,587.4,530.4,587.4z M875.7,293.1L875.7,293.1C875.7,293.1,875.7,293.1,875.7,293.1c0.2,0.2,0.6,0.2,1,0.3
		C876.3,293.3,875.9,293.3,875.7,293.1z M898.9,309.1C898.9,309.1,898.9,309.1,898.9,309.1C898.9,309.1,898.9,309.1,898.9,309.1
		c-1.1-0.8-1.6-1.6-1.3-2.7C897.4,307.4,897.9,308.3,898.9,309.1C898.9,309.1,899,309.1,898.9,309.1
		C899,309.1,898.9,309.1,898.9,309.1z M862.2,284.8c0.1,0.2,0.3,0.3,0.4,0.4c0.5,0.4,1.2,0.5,1.8,0.7c0.1,0,0.2,0.1,0.3,0.1l0.1,0
		c0.3,0.1,0.5,0.3,0.8,0.5c3.4,1.9,6.6,4.2,9.6,6.6c0.5,1,2.3,0.2,2.5,1.7c3.2,2.6,6.5,5.2,9.6,8c2.9,2.6,5.6,5.5,8.4,8.3
		c0,0.1,0,0.1,0.1,0.2c2.8,3.6,7.1,6,9.2,10.2c0.1,0.2,0.4,0.4,0.6,0.5s0.6,0.1,0.9,0.1c-0.3,2.2,1.7,3.1,2.8,4.3
		c3.3,4,6,8.5,9.5,12.2c0.5,0.5,0.7,1.2,1,1.8c0,0.1-0.1,0.2-0.2,0.4c0.1,0.1,0.2,0.2,0.2,0.3c0,0,0,0,0,0c0,0,0,0,0,0
		c-0.1-0.1-0.2-0.2-0.2-0.3v0c-0.1,0.1-0.1,0.3-0.2,0.4c-3.4-3.8-6.8-7.6-10.7-11c-0.6-0.5-1-1.1-1.9-1.2c0,0,0,0,0,0
		c-1.8-1.6-3.6-3.2-5.5-4.8c-3.1-2.6-6.5-4.9-9.4-7.7c-2.8-2.7-5.9-5-8.9-7.5c-0.6-0.4-1.1-0.9-1.7-1.3c-2.2-1.7-4.4-3.4-6.6-5
		c-0.5-0.3-1-0.7-1.5-1c-0.1-0.1-0.2-0.1-0.3-0.2c-3.2-2.4-6.4-4.7-9.6-7.1c-0.3-0.2-0.6-0.5-0.9-0.7c-1.6-1.3-3.2-2.5-4.7-3.8
		c0,0-0.1-0.1-0.2-0.1c-5-4.2-9.5-9-14.8-12.8C849.5,279.3,855.9,281.9,862.2,284.8z M933.5,547.4c0,0.9,0,1.4-0.2,1.7
		C933.6,548.8,933.6,548.3,933.5,547.4C933.5,547.4,933.5,547.4,933.5,547.4z M946.2,558.7c0-1.2-1.1-1.5-1.7-2.2
		C945.1,557.2,946.3,557.5,946.2,558.7C946.3,558.7,946.3,558.7,946.2,558.7z M952.8,547.4L952.8,547.4
		C952.8,547.4,952.8,547.4,952.8,547.4c0,0,0-0.1-0.1-0.1C952.8,547.3,952.8,547.3,952.8,547.4C952.8,547.4,952.8,547.4,952.8,547.4
		z M937.2,553.6C937.3,553.6,937.3,553.6,937.2,553.6c0.1,0.1,0.1,0.1,0.1,0.2C937.3,553.7,937.3,553.6,937.2,553.6z M939.4,498.5
		C939.4,498.5,939.4,498.5,939.4,498.5C939.4,498.5,939.4,498.5,939.4,498.5C939.4,498.5,939.5,498.5,939.4,498.5
		C939.5,498.5,939.4,498.5,939.4,498.5z M921.5,322C921.5,322,921.5,322,921.5,322C921.5,322,921.5,322,921.5,322
		c-0.1,0-0.2,0-0.4,0C921.2,322,921.4,322,921.5,322z M943.9,410C943.9,410,943.9,410,943.9,410c0,0-0.1,0-0.1,0
		C943.8,410,943.9,410,943.9,410z M945.4,360L945.4,360c0,0,0.1,0.1,0.1,0.1C945.4,360.1,945.4,360,945.4,360z M961.1,456.6
		C961.1,456.6,961.1,456.6,961.1,456.6C961.1,456.6,961.1,456.6,961.1,456.6C961.1,456.6,961.1,456.6,961.1,456.6z M959.9,463
		L959.9,463c-0.1-0.1-0.2-0.1-0.2-0.2C959.7,462.9,959.8,462.9,959.9,463z M958.4,461.6c0.2-0.1,0.4,0,0.6,0.1
		C958.8,461.6,958.7,461.5,958.4,461.6z M959.4,466.9c0,0.4-0.2,0.5-0.5,0.5C959,467.2,959.2,467.1,959.4,466.9z M966.1,529.9
		C966.1,529.9,966.1,529.9,966.1,529.9C966.2,529.9,966.2,529.9,966.1,529.9C966.2,529.9,966.2,529.9,966.1,529.9
		C966.1,529.9,966.1,529.9,966.1,529.9z M904.4,532C904.4,532,904.4,532,904.4,532C904.4,532,904.4,532,904.4,532
		C904.4,532,904.4,532,904.4,532z M882,315.4c0.3,1.1-0.4,1.8-0.9,2.6c0,0,0,0,0,0C881.7,317.2,882.3,316.4,882,315.4z M882,311.7
		c0,0.1,0,0.1,0,0.2c-0.1-0.1-0.2-0.2-0.3-0.2C881.9,311.7,882,311.7,882,311.7z M881.9,315.3C881.9,315.3,881.9,315.3,881.9,315.3
		C881.9,315.3,881.9,315.3,881.9,315.3C881.9,315.3,881.9,315.3,881.9,315.3z M896,332C896,332,896,332,896,332
		C896,332,896,332,896,332c0,0-0.1,0-0.1,0.1C896,332,896,332,896,332C896,332,896,332,896,332z M848.2,536
		C848.1,536,848.1,536.1,848.2,536C848.1,536.1,848.1,536.1,848.2,536c-0.1,0.1-0.1,0.1-0.1,0.1l0,0l0,0l0,0
		C848,536.1,848.1,536.1,848.2,536L848.2,536L848.2,536L848.2,536L848.2,536L848.2,536C848.1,536,848.1,536,848.2,536
		C848.1,536,848.1,536,848.2,536z M852.3,539.5C852.3,539.5,852.3,539.5,852.3,539.5c0.1,0,0.1,0,0.2-0.1
		C852.4,539.5,852.3,539.5,852.3,539.5z M851,539.5L851,539.5C851,539.5,851,539.5,851,539.5L851,539.5z M851,539.5
		C851,539.5,851,539.4,851,539.5C851,539.4,851,539.4,851,539.5C851,539.4,851,539.5,851,539.5z M831.4,551.6
		C831.4,551.6,831.4,551.6,831.4,551.6C831.4,551.6,831.4,551.6,831.4,551.6C831.4,551.6,831.4,551.6,831.4,551.6
		C831.4,551.6,831.4,551.6,831.4,551.6z M690.4,570.7c0-0.1,0-0.2,0-0.2c0,0,0.1,0.1,0.1,0.1C690.5,570.6,690.5,570.6,690.4,570.7z
		 M686.2,565.5c-0.1,0-0.2,0-0.2,0C686.1,565.5,686.1,565.4,686.2,565.5C686.2,565.4,686.2,565.5,686.2,565.5z M669.8,585.3
		c-0.1,0-0.1-0.1-0.2-0.1c-1.3-0.7-1.3-0.8,0.1-1.9C671,584.3,671,584.8,669.8,585.3z M602.2,581.2c0-0.2,0.1-0.3,0.1-0.5
		c0,0,0.1,0.1,0.1,0.1C602.4,581.1,602.3,581.2,602.2,581.2z M588.7,626.2C588.7,626.2,588.7,626.2,588.7,626.2
		C588.7,626.2,588.7,626.2,588.7,626.2C588.7,626.2,588.7,626.2,588.7,626.2z M674.4,602.9L674.4,602.9L674.4,602.9
		C674.4,602.9,674.4,602.9,674.4,602.9C674.4,602.9,674.4,602.9,674.4,602.9z M674.4,602.9L674.4,602.9c-0.4-0.3-0.8-0.6-1.2-0.9
		C673.5,602.3,674,602.6,674.4,602.9z M648.6,615.5L648.6,615.5C648.6,615.5,648.6,615.5,648.6,615.5c1-0.2,1.9-0.3,2.8-0.6
		C650.5,615.2,649.5,615.3,648.6,615.5z M653.8,611.7c0.1,0.2,0.3,0.4,0.5,0.6c1,0.9,2.5,1.1,3.5,2l0,0c-1-0.9-2.6-1.1-3.5-2
		C654.1,612.1,653.9,611.9,653.8,611.7z M651.2,600.7c-0.1,0-0.1,0-0.2,0v0c0-0.1,0.1-0.2,0.2-0.3
		C651.1,600.5,651.1,600.6,651.2,600.7C651.2,600.7,651.2,600.7,651.2,600.7z M655,628.7C655,628.7,655,628.7,655,628.7
		C655,628.7,655,628.7,655,628.7c0.1-0.2,0.2-0.5,0.2-0.7C655.2,628.2,655.1,628.5,655,628.7z M685.5,616.2c0.1,0.2,0.1,0.3,0,0.4
		C685.5,616.5,685.5,616.4,685.5,616.2z M713.2,624.6L713.2,624.6L713.2,624.6L713.2,624.6z M691.7,616.2
		C691.7,616.2,691.7,616.2,691.7,616.2C691.7,616.2,691.7,616.2,691.7,616.2C691.7,616.2,691.7,616.2,691.7,616.2z M713.2,624.6
		c0.1,0.1,0.1,0.2,0.2,0.3C713.4,624.9,713.3,624.8,713.2,624.6C713.2,624.6,713.2,624.6,713.2,624.6z M714.2,616.2L714.2,616.2
		c0.1,0,0.2,0.1,0.3,0.1C714.4,616.3,714.3,616.3,714.2,616.2z M701.6,630C701.6,630,701.6,630,701.6,630
		C701.6,630.1,701.6,630,701.6,630C701.6,630,701.6,630,701.6,630C701.6,630.1,701.6,630,701.6,630z M719,622.4
		c-0.1,0.2-0.1,0.4-0.2,0.6C718.7,622.8,718.7,622.5,719,622.4z M766,619.2C766,619.2,766,619.2,766,619.2c0,0.1,0.1,0.2,0.2,0.4
		C766.1,619.5,766.1,619.3,766,619.2z M766.2,618.9C766.2,618.9,766.2,618.9,766.2,618.9c0-0.2,0-0.4,0-0.6
		C766.2,618.6,766.2,618.8,766.2,618.9z M778.6,626L778.6,626C778.6,626,778.6,626,778.6,626C778.6,626,778.6,626,778.6,626z
		 M805.7,612.8C805.7,612.8,805.6,612.8,805.7,612.8c0-0.1,0-0.1,0.1-0.2c0,0,0,0.1,0.1,0.2C805.7,612.8,805.7,612.8,805.7,612.8z
		 M809.1,614.9C809.1,615,809.1,615,809.1,614.9C809.1,615,809.1,615,809.1,614.9C809.1,615,809.1,615,809.1,614.9z M807,607.7
		c0.1,0,0.2,0.1,0.3,0.3C807.2,607.9,807.1,607.8,807,607.7z M789.2,611.7C789.2,611.7,789.2,611.7,789.2,611.7
		C789.2,611.7,789.2,611.7,789.2,611.7C789.2,611.7,789.2,611.7,789.2,611.7z M757.8,617.4c-0.1,0-0.3,0-0.4,0c0,0,0,0,0,0
		c0-0.1,0-0.3-0.1-0.4c0.1,0.1,0.2,0.2,0.3,0.3C757.7,617.3,757.8,617.4,757.8,617.4z M765.2,630.9c0,0,0-0.1,0-0.2
		C765.2,630.8,765.3,630.8,765.2,630.9C765.3,630.9,765.2,630.9,765.2,630.9z M787.4,622.9L787.4,622.9
		C787.4,622.9,787.4,622.9,787.4,622.9c0.1,1.3,0.8,2.4,1,3.6C788.2,625.3,787.5,624.2,787.4,622.9z M812.1,601
		c-0.7,0.3-1.4,0.7-2,1c-0.1,0-0.3,0.1-0.4,0.1c-1.2,0.4-2.4,0.6-3.3,1.6c-1.1,0.8-2.6,0.6-3.8,1.3c-2.6,1.1-5.1,2.3-7.8,3
		c-0.3,0.1-0.7,0.2-1.1,0.2h-0.2l-0.1,0.1c-0.3,0.1-0.7,0.2-1,0.3c-0.8,0.3-1.6,0.6-2.4,1c-0.1,0.1-0.2,0.1-0.3,0.2v0
		c-0.1,0-0.2,0.1-0.3,0.1c-0.5,0.1-1-0.1-1.3,0.4c-0.8,0.1-1.6,0.2-2.2,0.8l0,0c-0.2,0-0.5,0.1-0.7,0.1c-0.5,0-0.9,0.1-1.2,0.3
		c-0.3,0.1-0.6,0.3-1,0.4c-1.2,0.5-2.6,0-3.6,1c0,0-0.1,0-0.1,0c-0.6,0.2-1.2,0.3-1.8,0.3c-0.5,0-1.1,0.1-1.6,0.3
		c-0.1,0-0.2,0.1-0.3,0.1l0,0c-0.1,0-0.1,0.1-0.2,0.1c-1.1,0.7-2.3,0.7-3.5,1c-0.2,0-0.4,0.1-0.5,0.1c-0.3,0-0.5,0.1-0.8,0.1
		c-0.3,0-0.5,0.1-0.8,0.2c-0.9,0.6-1.7,1-3,0.5c0,0,0,0,0,0c0,0,0,0,0,0c1.2,0.5,2.1,0.1,3-0.5c-0.2,0-0.4,0.1-0.6,0.1
		c-2.6,0.2-5.2,0.5-7.7,1c-0.5,0.1-0.9,0.2-1.4,0.3v0c0,0-0.1,0-0.1,0c-2.9,0.2-5.8,0.3-8.6,0.7c-1.4,0.2-2.8-0.5-4.1,0.2
		c0,0-0.1,0-0.1,0c-5.4,0.3-10.8-0.2-16.2-0.1c-0.2-0.1-0.5-0.1-0.7-0.2c-2-0.4-4-0.5-6.1-0.7c-0.2,0-0.5,0-0.7,0
		c-0.7,0-1.4-0.1-2.1-0.2c-1.8-0.2-3.6-0.4-5.4-0.2c0,0-0.1,0-0.1,0l0,0c-0.2-0.1-0.5-0.2-0.7-0.2c-0.1,0-0.2,0-0.4-0.1
		c-2.2-0.3-4.4,0.7-6.5-0.1c-4.3-0.8-8.6,0.6-12.9,0c-3.2-0.4-6.5-0.1-9.8,0c-0.1,0-0.2,0-0.2,0c-6-0.1-11.9-0.3-17.9,0
		c-7.1,0.3-14.2,0.8-21.4,1.2c-1.6-0.3-3.2,0.3-4.8-0.1c-0.1,0-0.1,0-0.2,0c0,0,0.1,0,0.1,0c1.5-0.6,3.1-0.2,4.5-1c0,0,0,0,0.1,0
		c0.7,0,1.5,0,2.2-0.2c0.1,0,0.1,0,0.2-0.1c0.2,0,0.3-0.1,0.4-0.2c0.8,0.1,1.5,0,2.2-0.1c1.9-0.3,3.8-1.2,5.7-1.2c0,0,0.1,0,0.1,0
		c0,0,0.1,0,0.1,0c0.4,0.1,0.7,0.1,1.1,0.1l0,0c0.1,0,0.2,0,0.3,0c0.6,0,1.2,0,1.7-0.1c0.3-0.1,0.6-0.2,0.9-0.3
		c4.2-0.5,8.3-1,12.5-1.6c6.8-0.9,13.6-1.7,20.3-2.6c0.5-0.1,1,0.1,1.3-0.4c0.1,0,0.2,0,0.3,0c1.4,0,2.8,0,4.2-0.3
		c2-0.4,4.1-0.4,6.1-0.8c3.1-0.5,6.2-0.4,9.3-1.2c0.2-0.1,0.4-0.1,0.7-0.2c3.8,0.1,7.5-0.7,11.2-1.3c0.1,0,0.1,0,0.2,0
		c0.5,0,1,0,1.5,0c0.8,0.2,1.5,0.1,2.1-0.4c2.1,0,4.2-0.2,6.2-0.9c0.8,0.1,1.7,0.2,2.5,0c1.9-0.6,4-0.1,5.9-0.7
		c0.1,0,0.2-0.1,0.4-0.1v0c0.5,0,1,0,1.6,0c0.2,0,0.5,0,0.7-0.1c4.3-0.9,8.7-0.9,13-1.6c0.1,0,0.1,0,0.2,0c1,0.3,1.9-0.6,2.9-0.5
		c0.4,0,0.7,0,1.1,0.1c0.8,0,1.6,0.1,2.3-0.1c0.6-0.1,1.1-0.3,1.7-0.7c2.8-0.7,5.6,0.2,8.4-0.4c0.7-0.2,1.4,0,1.9-0.5
		c1.6,0,3.2-0.2,4.8-0.4c1.3-0.2,2.5-0.4,3.8-0.6c0.5,0.1,1-0.1,1.5-0.2c4.6,0,9.1-1.3,13.6-1.7c0,0,0,0,0.1,0
		c2.8-0.3,5.6-0.9,8.4-1.7c0.3,0,0.5,0,0.8,0c1.5,0,3-0.5,4.6-0.7c0.3,0,0.7-0.1,1-0.1c4.4-0.8,8.8-1.7,13.2-2.5
		c0.5-0.1,1.1-0.4,1.4,0.2c0,0-0.4,0.4-0.6,0.5c-0.1,0-0.2,0.1-0.4,0.2C825,595.5,818.5,598.2,812.1,601z M730.5,600.2
		c0,0-0.1,0-0.1,0c0,0,0,0,0-0.1C730.4,600.2,730.5,600.2,730.5,600.2z M692.9,595.8c0.2-0.5,0.4-0.5,0.6-0.3
		C693.3,595.6,693.1,595.7,692.9,595.8z M714,604.8C714,604.8,714,604.8,714,604.8C714,604.8,714,604.8,714,604.8
		C714,604.8,714,604.8,714,604.8z M691.1,595.5C691.1,595.6,691.1,595.6,691.1,595.5C691,595.6,691,595.6,691.1,595.5
		C691,595.5,691.1,595.5,691.1,595.5z M826.3,602.7c-0.1,0-0.1,0-0.2-0.1c0.1,0,0.1-0.1,0.2-0.2
		C826.3,602.5,826.3,602.6,826.3,602.7z M830.5,578.3L830.5,578.3C830.6,578.3,830.6,578.3,830.5,578.3L830.5,578.3
		C830.6,578.3,830.6,578.3,830.5,578.3C830.5,578.3,830.5,578.3,830.5,578.3L830.5,578.3L830.5,578.3L830.5,578.3L830.5,578.3
		L830.5,578.3z M830.5,578.3L830.5,578.3L830.5,578.3L830.5,578.3C830.5,578.3,830.5,578.3,830.5,578.3L830.5,578.3
		c-0.1,0.1-0.3,0.2-0.4,0.2C830.3,578.4,830.4,578.4,830.5,578.3L830.5,578.3C830.5,578.3,830.5,578.3,830.5,578.3
		C830.5,578.3,830.5,578.3,830.5,578.3C830.5,578.3,830.5,578.3,830.5,578.3C830.5,578.3,830.5,578.3,830.5,578.3z M811.8,583.2
		c0.1-0.1,0.2-0.2,0.3-0.3C812,583,811.9,583.1,811.8,583.2C811.8,583.2,811.8,583.2,811.8,583.2z M787.3,585
		C787.3,585,787.3,585,787.3,585C787.3,585,787.3,585,787.3,585L787.3,585z M780.5,590c0-0.2,0-0.4,0.3-0.4
		C780.7,589.8,780.6,589.9,780.5,590z M781.6,586.1c0-0.4-0.2-0.8-0.3-1.2l0,0C781.4,585.3,781.6,585.7,781.6,586.1z M880.2,563.6
		L880.2,563.6L880.2,563.6L880.2,563.6L880.2,563.6c-0.1,0.1-0.2,0.2-0.3,0.2C880,563.8,880,563.7,880.2,563.6L880.2,563.6z
		 M884.8,562.4c-0.1,0-0.2,0-0.2,0c-1.4,0.1-2.7,0.4-4,1c-0.1,0.1-0.3,0.1-0.4,0.2c-0.1,0-0.2,0-0.3,0.1c-0.6,0.2-1.2,0.3-1.8,0.5
		c-0.3,0.1-0.6,0.2-1,0.3c-1.5-0.1-2.7,0.8-4,1.3c0,0,0,0.1,0.1,0.1c0,0-0.1,0-0.1-0.1c0,0.1,0,0.2,0,0.3c-0.1-0.1-0.1-0.2-0.2-0.3
		c-2.3,0.3-4.4,1.2-6.5,2.2c-1.1,0.5-2.2,0-3.2,0.4c-0.8,0.2-1.5,0.5-2.2,0.8c0,0,0,0,0,0c0,0,0,0-0.1,0c0,0,0,0,0,0c0,0,0,0,0,0
		c-1.6,0.4-3.5,0.3-4.8,1.5c-0.2,0-0.4,0.1-0.6,0.2c-1.1,0.3-2.2,0.8-3.4,0.8c-2.9,0-5.5,1-8.2,1.7c-0.5,0.1-0.9,0.2-1.4,0.3
		c-0.2,0-0.5,0.1-0.7,0.1c0,0-0.1,0-0.1,0c-1.4,0.6-3,0.5-4.4,1.2c-0.2,0.1-0.4,0.2-0.5,0.3l0,0c-0.1,0-0.2,0-0.4,0
		c-1.3,0.2-2.8,0-4.1,0.3c-0.4,0.1-0.7,0.2-1,0.4c-0.6,0.1-1.2,0.1-1.6,0.5c-0.1,0-0.2,0-0.3,0c-1.7,0-3.1,0.9-4.8,1.2
		c-1.5-0.2-2.7,1-4.1,0.8c-2.5,0.4-5,0.9-7.4,1.3c0,0-0.1,0-0.1,0c-2.9,0.7-6,0.4-8.7,1.8c-1.6,0.8-3.4-0.1-5.1,0.6
		c-2.3,0.9-4.7,0.5-7,1c-0.2,0.1-0.4,0.2-0.6,0.3c-0.9,0.4-1.8,1-3,0.1c-0.3-0.2-1.1-0.2-1.5,0.3c-0.9-0.3-1.7-0.2-2.4,0.5
		c-1.1-0.1-2.2-0.2-3.2,0.3c0,0-0.1,0-0.2,0.1l0,0l0,0l0,0l0,0l0,0c-0.4-0.1-0.8-0.1-1.2-0.2c-0.7,0-1.4,0-2,0.1
		c-0.7,0.1-1.5,0.3-2.2,0.5c-1.4,0.3-2.8-0.1-4.2,0.4c-0.3,0-0.6,0-0.9,0.1c-2,0.1-4,0.2-5.9,0.6c-0.1,0-0.2,0-0.3,0.1
		c-0.5,0.2-1,0.3-1.5,0.5c-0.4-0.1-0.8-0.2-1.2-0.2c-1.8,0-3.5,0.7-5.2,0.6c-1.2,0.6-2.5,0.1-3.7,0.5c-1.4-0.3-2.8-0.2-4,0.4
		c-1.9,0.9-4,0.4-6,0.8l0,0c-0.7,0-1.5,0-2.1,0.2c-1.2,0.3-2.5,0-3.8,0.1c-0.4,0-0.9,0.1-1.3,0.2c-0.2,0-0.5,0.1-0.7,0.3
		c-0.4,1.7-1.5-0.2-2.1,0.5c-0.1,0-0.1,0-0.2,0c-2.7-0.5-5.2,0.1-7.8,0.8c-1.2-0.1-2.5,0-3.7,0.1c-0.3,0-0.6,0.1-0.8,0.1
		c-0.2,0-0.4,0.1-0.6,0.1c-0.7,0-1.5-0.2-2.1,0.3c0,0-0.1,0-0.1,0c-1.7,0.4-3.5-0.2-5.1,0.5c0,0-0.1,0-0.1,0
		c-3.7,0.4-7.5,0.5-11.1,1.5c-1.1,0.3-2.3,0.1-3.5,0.2c-0.3-0.1-0.5-0.1-0.8-0.1c-0.5,0-0.9,0.1-1.3,0.4c-1.8,0.5-3.7,0.2-5.5,0.4
		c-0.4,0-0.7,0.1-1.1,0.2c-0.2,0-0.4,0.1-0.6,0.2c-2.1,1.3-4.5,0.2-6.6,0.9c-1.2,0-2.4,0.2-3.6,0.3c-1.2,0.1-2.5,0.3-3.7,0.6
		c-0.6,0.1-1.2,0.2-1.8,0.4l0,0c-0.1,0-0.3,0-0.4,0c-1.1,0-2,0.7-3.1,0.7c-3.4-0.2-6.6,0.5-9.9,1.1c-0.3,0.1-0.7,0.1-1,0.2
		c-0.3,0-0.7,0-1,0.2c-0.4,0-0.8,0-1.2,0c-0.6,0.1-1.2,0.2-1.7,0.2c-2.9,0.4-5.7,0.8-8.6,1.3c-0.2,0-0.4,0.1-0.6,0.1
		c-0.8,0.1-1.5,0.7-2.4,0.5c-0.1,0-0.2,0-0.2,0c-1.8,0.1-3.5,0.1-5.2,0.8v0c0,0,0,0,0,0v0h0c-0.5,0-1.1,0-1.6,0c-0.1,0-0.2,0-0.4,0
		c-0.4,0-0.9,0-1.3,0c-0.3,0-0.6,0-0.9,0.1c-0.1,0-0.3,0.1-0.4,0.1c-1.5,0.8-3.2,0.4-4.8,0.7c-5.2,0.8-10.5,1.4-15.7,2.1
		c-0.9,0.1-1.8,0.5-2.8,0.7c0,0-0.1,0-0.2,0c-1.3-0.3-2.6-0.1-3.8,0.1c-0.5,0.1-1,0.2-1.5,0.2c-10.3,1-20.5,2-30.8,2.5
		c-5.3,0.3-10.4-0.8-15.5-1.7c-6.3-1.1-12.6-2.3-18.8-3.4c-0.5-0.1-0.9-0.3-1.3-0.7c6.4-0.4,12.7-0.8,19.1-1.3
		c10.8-0.9,21.6-1.8,32.3-2.8c3.1-0.3,6.2-0.3,9.3-1h0c2.3-0.1,4.5-0.2,6.8-0.4c0.5-0.1,1-0.1,1.5-0.2c0.3,0,0.6-0.1,1-0.2
		c1.1-0.7,2.2-0.4,3.4-0.4c3-0.1,6-0.2,9-0.8c0,0,0,0,0-0.1c0,0,0,0,0,0c0.8,0,1.7,0.1,2.5,0c0.5,0,1.1-0.1,1.7-0.2
		c0.3,0,0.6-0.1,0.8-0.2c0.7-0.2,2.4,0.5,1-1.8c1.6,2.7,3.7,1.4,5.2,1.2c3-0.4,6.1,0,8.9-1.6c1.5-0.8,3,0.3,4.7,0.1
		c4.7-0.7,9.5-1.1,14.2-1.8c13-1.7,26-3.5,38.9-5.7c6.1-1.1,12.3-2,18.3-3.4c4-1,8.2-1.3,12.1-2.5c2.5-0.8,5.3-0.4,7.7-1.6
		c0-0.1,0-0.1,0.1-0.2c0,0,0,0.1,0,0.2c1,0.2,1.8-0.3,2.6-0.7c0.1-0.1,0.3-0.2,0.4-0.2c1,0.2,1.9-0.1,2.9-0.3c0.1,0,0.3-0.1,0.4-0.1
		c0.7-0.2,1.4-0.3,2.1-0.5c0.3-0.1,0.6-0.1,0.9-0.2c0.7-0.2,1.3-0.3,2-0.5c0.1,0,0.2-0.1,0.4-0.1c3.2-0.8,6.5-1.2,9.7-2.2
		c0.2,0,0.3-0.1,0.5-0.1c0.7,0,1.5,0.1,2-0.5c0.1,0,0.1,0,0.2,0c0.3,0,0.6,0,0.9-0.2c0.1,0,0.2-0.1,0.2-0.2c1.8-0.7,4-0.2,5.5-1.9
		c0.5-0.6,1.3,0.3,2,0.1c2.7-0.7,5.3-1.4,8-2.1c0.1,0,0.2,0,0.3,0c1.7-0.2,3.2-0.7,4.8-1.2c0.4-0.1,0.8-0.2,1.2-0.4
		c2.1-0.6,4.2-1.1,6.2-1.7c0.1,0,0.1,0,0.2,0c1.2-0.1,2.4-0.5,3.6-1c0.3-0.1,0.5-0.2,0.8-0.3l0,0c0.1,0,0.2,0,0.3,0
		c0.9-0.2,1.6-1,2.5-0.8c0,0,0.1,0,0.1,0c2.8-0.8,5.6-1.7,8.4-2.5c0,0,0.1,0,0.1,0c0.7-0.1,1.4-0.2,2-0.5c0.2-0.1,0.3-0.2,0.5-0.3
		c5-1.1,10-2.2,15-3.3c0.4-0.1,0.8-0.2,1.2-0.2c1.9-0.4,3.9-0.8,5.8-1.2c0.3,0,0.7-0.1,1-0.2c1.6-0.3,3.2-0.7,4.7-1.3c0,0,0,0,0,0
		c0,0,0,0,0,0.1c1.8,0.3,3.4-0.4,5.1-0.9c0.1,0,0.2,0,0.3,0c0.8,0,1.6-0.2,2.3-0.3c0.5-0.1,1-0.3,1.6-0.5c1.1-1,2.6,0.2,3.7-0.9
		c0.2,0,0.4-0.1,0.7-0.1c1.3-0.2,2.7-0.3,4-0.7c0.4-0.1,0.9-0.2,1.3-0.4c0.1-0.1,0.3-0.3,0.4-0.4c0,0,0.1,0,0.1,0
		c1.6,0.1,3-0.3,4.5-0.8c0.1,0,0.3-0.1,0.4-0.1c1.7-0.4,3.3-0.8,4.9-1.2c0,0,0,0,0-0.1c0,0,0.1,0,0.1,0l0.2,0.1l0.1-0.1l0,0l0,0
		c7.4-2,14.9-3.5,22.3-5.8c4.5-1.4,9.2-2.8,13.9-3.9c0.8-0.2,1.6-0.5,2.3-0.8l0,0c-0.3-0.1-0.7,0-1-0.2c0.2,0.2,0.7,0.1,1,0.2h0
		c0.1-0.2,0.3-0.3,0.6-0.3c-0.2,0-0.4,0.1-0.6,0.3c0.3,0.1,0.6,0.1,0.8-0.2c0,0,0,0,0.1-0.1c0.6,0,1.2-0.2,1.6-0.6
		c0.1,0,0.1,0,0.2,0c0.9-0.1,1.7-0.3,2.4-0.8c1.1-0.3,2.3-0.5,3.3-1.2c0,0,0,0,0,0c0,0,0,0-0.1,0c0,0,0,0,0.1,0l0,0
		c4.3-1,8.2-3,12.5-4.2c-3.9,3.7-7.3,7.8-11.4,11.2c0,0,0,0,0,0c-0.2,0-0.3,0.1-0.3,0.3l0,0c-2.1,1.3-3.9,3-5.8,4.7
		c0,0-0.1,0-0.1,0.1c-2.8,2-5.4,4.1-7.9,6.5c0,0,0,0,0,0c0,0,0,0,0,0c-0.7,0.6-1.4,1.2-2,1.8c-0.1,0.1-0.2,0.1-0.2,0.2
		c-2.3,1.7-4.4,3.6-6.5,5.5c0,0,0,0,0,0.1c0,0,0,0,0,0C888.2,561.7,886.3,561.3,884.8,562.4z M903.6,572.9
		C903.6,572.9,903.6,572.9,903.6,572.9L903.6,572.9L903.6,572.9C903.6,572.9,903.6,572.9,903.6,572.9L903.6,572.9
		C903.6,572.9,903.6,572.9,903.6,572.9L903.6,572.9z M910.3,570.8C910.3,570.8,910.3,570.8,910.3,570.8
		C910.3,570.8,910.3,570.8,910.3,570.8C910.3,570.8,910.3,570.8,910.3,570.8z M953,532.5c-1.4,2.1-3.6,3.5-5.1,5.5
		c0,0.1,0,0.1,0,0.2c0,0-0.1,0-0.2,0c-1.7,1.3-3.3,2.7-5,4c0,0,0,0,0,0s0,0,0,0c0,0,0,0,0,0c0.1,0.7,0.3,1.1,1,1.4
		c-0.7-0.3-0.9-0.8-1-1.4c-2.8,2.2-6.2,3.4-9.2,5.1h0c-0.2,0.1-0.5,0.2-0.7,0.3c-0.1,0.1-0.3,0.1-0.4,0.2c-0.6-0.9,0.4-1.1,0.8-1.5
		c2.1-2.3,4.5-4.2,6.4-6.7c0,0,0,0,0-0.1c0,0,0.1,0,0.1,0c0.4-0.2,0.8-0.4,1-0.8c0,0,0,0,0-0.1c2.9-2.7,5.6-5.6,8.1-8.6c0,0,0,0,0,0
		c0,0,0,0,0.1,0c1.6-1.9,3.2-3.9,4.9-5.8c0,0,0,0,0-0.1c0,0,0.1,0,0.1-0.1c1.3-1.4,2.7-2.8,3.7-4.5l0,0l0,0l0,0l0,0
		c1-1,2-2.1,2.8-3.4c0,0,0,0,0-0.1c0.5-0.4,1-1,1.2-1.6c0,0,0-0.1,0.1-0.1c1.9-1.8,3-4.3,5-6c0,0,0,0,0,0c-2.2,1.1-3.5,3-4.5,5.1
		c1.1-2,2.3-4,4.5-5.1c0,0,0,0,0,0c0,0,0,0,0,0c0.1,0,0.2,0.1,0.4,0.1c0.1,0,0.2,0.1,0.3,0.1c-1.7,4.2-4.1,8.1-6.2,12
		c-0.1,0.1-0.2,0.3-0.3,0.4C958.2,524.8,955.6,528.6,953,532.5z M993.3,462.5c-1.2,1.2-2.5,2.9-3.9,2.8c-1-0.1-0.9-2.5-1-3.9
		c-0.6-4.2-2.1-8.3-2.6-12.5c0,0,0-0.1,0-0.1c-0.1-1-1.4-1.5-1.2-2.6c0.3-1.7-0.5-3.1-1-4.5c0-0.2-0.1-0.4-0.1-0.5
		c0-0.2,0-0.4-0.1-0.6c0-0.1,0-0.2-0.1-0.3c0-0.1-0.1-0.1-0.1-0.2c-0.4-0.6-1-1.3-1-2.1c-0.1-0.7,0.4-1.5-0.2-2.2
		c-0.1-0.1-0.1-0.1-0.2-0.2c-1.7-4.5-3.2-9.1-5.2-13.5c-1.5-3.4-2.4-7.1-4.6-10.2c-0.6-0.9-0.3-2-0.7-3c-0.1-0.2-0.2-0.5-0.3-0.8
		c-0.2-0.4-0.3-0.8-0.5-1.2c-0.1-0.3-0.3-0.6-0.4-0.9c-1.7-4.2-3.2-8.4-5.1-12.5c-1.2-2.5-1.6-5.3-3.2-7.6c-0.1-0.1-0.1-0.3-0.2-0.4
		c-0.5-1-1-2-1.4-3c0-0.1-0.1-0.2-0.1-0.3c-0.6-2.5-1.8-4.7-2.8-7c-1.2-2.6-2.5-5.1-3.7-7.8c-0.4-0.9-1.2-1.4-1.5-2.4
		c0-0.1,0-0.1-0.1-0.2c-0.2-0.9-0.6-1.7-1.1-2.4c-0.6-1.5-1.2-3-2.5-4.1c0-0.8-0.5-1.4-0.8-2.1c-1.5-3.2-3.8-5.9-5.4-9.1
		c0,0,0-0.1-0.1-0.1c-0.4-0.5-1.1-0.5-1.3-1.2c-0.9-2.9-2.9-5.1-4.6-7.5c-1.8-2.5-4.1-4.6-5.5-7.4c-0.2-0.2-0.4-0.5-0.6-0.7
		c-0.8-1.1-1.5-2.3-2.7-3.1c0,0,0,0,0,0c0,0,0,0,0,0c-0.2,0-0.4-0.1-0.6,0c0.1-0.1,0.4,0,0.6,0c0,0,0,0,0,0
		c-0.5-0.7-1.1-1.4-1.6-2.1c-1.2-1.5-2.5-3-3.7-4.6c-1-0.9-1.9-1.8-2.6-2.9c-0.1-0.2-0.2-0.3-0.3-0.5c-0.5,1-0.1,2-0.1,3.2v0
		c0,0,0,0,0,0v0c0-1.1-0.4-2.2,0.2-3.2c-3.3-2.8-5.4-6.8-8.9-9.5c-0.1-0.1-0.2-0.2-0.3-0.3c-1.5-1.6-3.4-2.9-5.1-4.3
		c-1-1.8-3-2.6-4.1-4.2c-1-1.2-2.2-2.1-3.4-2.9c-4.6-4.2-10-7.3-15.1-10.8c-1.6-1.4-3.3-2.6-5.3-3.4c0,0,0,0,0,0c0,0,0,0,0,0l0,0
		l0,0l0,0l0,0c-0.1-0.1-0.2-0.2-0.3-0.3c-0.1,0-0.1,0-0.2,0c-0.2-0.1-0.3-0.2-0.5-0.3c-1.9-1.1-3.8-2.3-5.7-3.5
		c-0.3-0.2-0.6-0.4-0.9-0.5c-0.4-0.5-1-0.7-1.6-0.9c-0.2-0.1-0.5-0.3-0.7-0.5c-0.8-0.5-1.5-1.1-2.6-0.9c0,0,0,0-0.1,0c0,0,0,0,0,0
		c-0.3-0.5-0.8-1-1.4-1.1c-0.1,0-0.2-0.1-0.3-0.1c-3.1-1.7-6.5-2.9-9.7-4.3c-6.4-2.9-13-5.5-19.6-8.1c-2-0.8-4.2-0.8-5.9-2.1
		c0.1-0.1,0.3-0.1,0.4-0.2c0.2-0.1,0.3-0.2,0.5-0.3c4.2,1.1,8.4,2.1,12.5,3.2c4.4,1.2,8.8,2.5,13.2,3.6c5.5,1.4,10.9,3.1,16.2,5
		c0.8,0.3,1.7,0.5,2.6,0.7c0.5,0.2,1,0.4,1.6,0.6c3,1.1,6,2.2,9.1,3.3c0,0,0.1,0,0.1,0c0,0,0.1,0,0.1,0c0.3,0.3,0.7,0.5,1.2,0.4
		c0.3,0.1,0.6,0.2,0.8,0.3c7.7,2.8,15.3,5.6,23,8.5c0.8,0.6,1.7,0.5,2.6,0.7c0.7,0.3,1.2,0.9,2,0.8c1.2,0.5,2.5,0.9,3.7,1.3
		c0.2,0.5,0.6,0.9,1.2,0.8c2.2-0.3,3.8,1,5.4,2.1c1.9,0.9,4.2,1,5.7,2.8c0.2,0.2,0.7,0.1,1,0.2c0.7,0.3,1.4,0.6,2.1,0.9
		c0.2,0.1,0.3,0.2,0.5,0.3c1.2,0.6,2.5,1.2,3.7,1.8c0.2,0.4,0.5,0.3,0.8,0.4c0.4,0.1,0.8,0.3,1.3,0.4c0.8,1.3,2.5,0.6,3.3,1.7
		c1,0.6,2.2,0.7,3,1.6c0.3,0.5,0.7,0.7,1.2,0.9c1,0.6,2.4,0.3,3,1.6c0.1-0.1,0.2-0.2,0.3-0.4c0,0,0,0,0,0c-0.1,0.1-0.2,0.3-0.3,0.4
		c1.1,0.6,2,1.5,3.3,1.7c4,2.8,8,5.6,12.1,8.4c0.9,1,3,0.6,3.1,2.6c0,0.1,0.5,0.2,0.7,0.3c1.5,0.9,2.8,2.3,4.3,3.1
		c1.5,0.9,2.8,1.9,4.1,3.1c-0.2,0.6,0.2,0.9,0.6,1.2c2.7,2.2,5.5,4.5,8.2,6.7c0.1,0,0.1,0.1,0.2,0.1c1,0.7,2.3,1.2,2.2,2.9
		c0,0.2,0.3,0.6,0.5,0.6c2.8,0.1,2.5,3.8,4.9,4.3c0.7,2.1,2.7,3,3.9,4.7c1.7,1.8,4.1,2.9,5,5.4c0.1,0.2,0.2,0.5,0.4,0.7
		c2.5,2.5,5.4,4.7,6.9,8.1c0.1,0.3,0.4,1,1.1,0.5c0.8,0.3,0.9,0.9,0.8,1.6c-0.1,0.7,0.3,1,0.8,1.3c1.6,0.6,2.7,1.5,2.7,3.4
		c0,0.3,0.1,0.6,0.2,0.8c0.1,0.1,0.2,0.3,0.4,0.4c-0.2-0.2-0.2-0.5-0.1-0.8c0,0.3,0.1,0.5,0.1,0.8c0.2,0.3,0.3,0.5,0.5,0.8
		c0.1,0.1,0.1,0.1,0.2,0.2c0.2,0.3,0.5,0.6,0.7,1c0.1,0.2,0.2,0.3,0.4,0.5c1,1.4,1.9,2.8,2.8,4.2c0.1,0.1,0.1,0.2,0.2,0.3
		c0.3,0.8-0.1,1.9,0.4,2.7c0.1,0.1,0.2,0.2,0.3,0.3c0,0,0,0.1,0,0.1c0.2,0.8,0.4,1.5,1,2.1c0.1,0.1,0.2,0.2,0.3,0.2
		c0,0,0,0.1,0.1,0.1c0.9,1.6,0.4,3.6,1.2,5.3c0.1,0.3,0.3,0.5,0.4,0.8c0,0.7-0.1,1.5,0,2.2c0.1,0.3,0.2,0.5,0.3,0.8
		c1.2,3.4,0.3,6.9,0.4,10.3l0,0l0,0c-0.1,0.5-0.2,0.9-0.3,1.4c-0.2,1.4-0.1,2.9-0.4,4.3c-0.1,0.2-0.1,0.4-0.2,0.6
		c-0.1,0.2-0.1,0.5-0.1,0.8c0,0.1,0,0.2-0.1,0.3c-0.2,1-0.4,2.1-0.6,3.1c-0.1,1.2,0.3,2.3,0,3.5c0,0.1,0,0.2-0.1,0.2
		c-1.3,1.7-1.9,3.6-1.7,5.7c0,0.3,0,0.7-0.2,1c-2.3,3-3.2,6.7-4.8,10c-0.1,0.2-0.2,0.3-0.2,0.5c-0.6,1.1-1.2,2.3-1.8,3.5
		c0,0.1-0.1,0.1-0.1,0.2c-0.8,1.5-1.7,3-2.5,4.6c-0.2,0.4-0.5,0.8-0.7,1.2c-0.2,0.4-0.5,0.8-0.7,1.2c-0.1,0.2-0.2,0.3-0.3,0.5
		c-2.5,4-4.8,8.2-7.7,11.9C999.7,454.8,996.9,459,993.3,462.5z"/>
	<path class="st0" d="M234,525.3L234,525.3L234,525.3z"/>
	<path class="st0" d="M191,537.8C191,537.8,191,537.8,191,537.8L191,537.8C191,537.8,191,537.8,191,537.8z"/>
	<path class="st0" d="M257,518.6L257,518.6L257,518.6C256.9,518.6,256.9,518.6,257,518.6C257,518.6,257,518.6,257,518.6
		C257,518.6,257,518.6,257,518.6z"/>
	<path class="st0" d="M191,537.8C191,537.8,191,537.8,191,537.8C191,537.8,191,537.8,191,537.8L191,537.8z"/>
	<polygon class="st0" points="256.5,521.1 256.5,521.1 256.5,521.1 	"/>
	<path class="st0" d="M1030.9,387.1L1030.9,387.1C1030.9,387.1,1030.9,387.1,1030.9,387.1L1030.9,387.1L1030.9,387.1L1030.9,387.1z"
		/>
	<path class="st0" d="M922.8,504.8L922.8,504.8C922.8,504.8,922.8,504.8,922.8,504.8C922.8,504.8,922.8,504.8,922.8,504.8z"/>
	<path class="st0" d="M873.1,565.7C873.1,565.8,873.1,565.8,873.1,565.7C873.1,565.8,873.1,565.8,873.1,565.7L873.1,565.7z"/>
	<polygon class="st0" points="861,569.1 861,569.1 861,569.1 	"/>
	<path class="st0" d="M153.4,359.1L153.4,359.1C153.4,359.1,153.4,359.1,153.4,359.1C153.4,359.1,153.4,359.1,153.4,359.1z"/>
	<path class="st0" d="M153.4,359.1C153.4,359.1,153.4,359.1,153.4,359.1C153.4,359.1,153.4,359.1,153.4,359.1L153.4,359.1z"/>
	<polygon class="st0" points="153.4,359.1 153.4,359.1 153.4,359.1 	"/>
	<path class="st0" d="M914,256.5L914,256.5C914,256.5,914,256.5,914,256.5C914,256.5,914,256.5,914,256.5z"/>
	<path class="st0" d="M896,332C896,332,896,332,896,332C896,332,896,332,896,332C896,332,896,332,896,332z"/>
</g>
</svg>
