<?xml version="1.0" encoding="utf-8"?>
<!-- Generator: Adobe Illustrator 26.0.1, SVG Export Plug-In . SVG Version: 6.00 Build 0)  -->
<svg version="1.1" id="레이어_1" xmlns="http://www.w3.org/2000/svg" xmlns:xlink="http://www.w3.org/1999/xlink" x="0px"
	 y="0px" viewBox="0 0 1190.55 841.89" style="enable-background:new 0 0 1190.55 841.89;" xml:space="preserve">
<style type="text/css">
	.st0{fill:#EB605F;}
</style>
<g>
	<path class="st0" d="M910.28,570.78v0.01V570.78z"/>
	<polygon class="st0" points="830.54,578.27 830.55,578.27 830.55,578.27 	"/>
	<path class="st0" d="M1063.19,387.73c-0.46-0.86-0.16-1.47-0.18-2.22c-0.06-2.07,1.49-3.87,0.85-5.97
		c-0.53-0.59-0.27-1.36-0.45-2.03c0.27-2.58-1.23-4.96-0.8-7.55c0-0.41,0-0.82,0-1.23c0-0.42,0-0.83,0.01-1.25
		c-1.04-1.55-1.18-3.29-1.29-5.1c-0.07-1.08,0.14-2.33-0.83-3.22c-0.4-0.17-0.29-0.57-0.4-0.87c-0.48-2.78-1.04-5.53-3.28-7.54
		c-0.09-0.85,0.45-1.79-0.36-2.55l-0.01-0.01c-0.06-0.43-0.02-0.9-0.46-1.18c-0.85-1.19-1.16-2.9-3.19-2.9
		c0.41-0.56,1.19-0.52,1.06-1.24c-0.19-1.3-0.44-2.57-1.71-3.32c-1.75-1.06-1.42-3.38-2.8-4.67c-1.96-3.86-4.4-7.37-7.6-10.3l0,0
		c-0.52-0.71-1.04-1.43-1.57-2.13c-1.97-2.64-4.52-4.76-6.73-7.17c-0.76-0.46-0.85-1.71-2.01-1.7c-0.04-0.64-0.58-0.91-0.98-1.27
		c-4.7-4.34-9.51-8.54-14.55-12.49c-1.91-1.97-4.47-3.01-6.66-4.58c-0.37-0.99-1.21-1.38-2.14-1.65c-0.83-0.91-1.75-1.62-2.85-2.25
		c-1.25-0.73-2.78-1.15-3.73-2.38c-1.47-0.82-2.92-1.66-4.17-2.82c-1.21-1.12-2.59-1.95-4.28-2.11c-0.46-1.18-1.46-1.69-2.57-2.05
		c-1.07-0.38-1.56-1.64-2.77-1.81c-0.15-0.13-0.31-0.27-0.46-0.4c-1.36-0.27-2.42-1.08-3.44-1.95c-0.34-0.24-0.65-0.6-1.14-0.38
		c-1.29-0.08-1.75-1.58-2.99-1.74c-1.7-1.43-4.04-1.68-5.77-3.07c-1.77-1.45-4.09-1.87-5.92-3.19c-1.72-0.94-3.57-1.51-5.42-2.08
		c-0.35-0.53-0.8-0.86-1.31-1.12c0.01-0.03,0.01-0.06,0.02-0.09c-0.02,0.02-0.04,0.04-0.07,0.07c-0.49-0.23-1.01-0.4-1.53-0.59
		c-0.59-0.53-1.33-0.68-2.07-0.88c-1.52-0.41-3-0.92-4.17-2.05c-0.47-0.46-1.06-0.41-1.64-0.44c-0.42-0.61-1.07-0.72-1.74-0.78
		c-0.52-0.31-1.05-0.61-1.57-0.92c-1.84-0.89-3.62-1.98-5.55-2.64c-2.88-0.99-5.55-2.67-8.71-2.75c-0.14-0.15-0.29-0.3-0.43-0.44
		c-0.3-0.74-1.27-0.2-1.61-0.85c-1.27-0.67-2.55-1.34-3.82-2.01c-1.38-0.44-2.75-0.88-4.13-1.32c-0.3-0.39-0.64-0.73-1.17-0.78
		c-3.67-0.19-6.38-2.79-9.7-3.85c-1.31-0.42-2.67-0.71-3.78-1.6c-1.37-0.65-3.16-0.15-4.24-1.57c-0.7-0.03-1.33-1.11-2.1-0.16l0,0
		c-0.85-0.47-1.31-1.55-2.45-1.58c-0.92-0.02-1.74-0.34-2.5-0.84c-1.97-0.67-3.94-1.34-5.9-2c-3.45-1.14-6.9-2.29-10.36-3.43
		c-1.44-0.29-2.96-1.92-4.12,0.31c-0.78-0.3-0.05-1.34-0.93-1.45c-0.27-0.18-0.54-0.36-0.81-0.53c-1.07-0.61-2.4-1.41-3.38-0.89
		c-1.07,0.56-1.41,0.06-2-0.41c-0.75-1.18-2.01-0.38-2.97-0.78c-1.31-0.71-2.97-0.22-4.18-1.24c-0.25-0.04-0.5-0.08-0.75-0.13
		c-0.31-0.47-0.79-0.4-1.25-0.37c-0.85-0.49-1.75-0.43-2.66-0.29c-0.87-0.65-1.82-0.82-2.86-0.5c-1.84-0.27-3.47-1.4-5.41-1.25
		c-1.56-1.04-3.46,0.14-5.04-0.76c-1.67,0.01-3.09-0.87-4.63-1.32c-0.25-0.07-0.55,0.03-0.82,0.05c-1.39,0.28-2.76-1-3.95-0.45
		c-1.15,0.53-1.78,0.02-2.61-0.34c-0.23,0.63-0.54,1.65-1.3,1.11c-1.29-0.92-2.32-0.19-3.46,0.07c-2.44,0.56-3.74-1.31-5.36-2.5
		c-0.81,0.42-1.76,0.55-2.49,0.13c-1.29-0.73-2.74-0.64-4.08-1.07c-1.12-0.47-2.29-0.45-3.47-0.35c-0.82-0.11-1.64-0.22-2.46-0.32
		c-0.98,0.1-2.01-0.12-2.95,0.36c-0.15-0.13-0.3-0.26-0.45-0.39c-1.54-0.25-3.08-0.51-4.61-0.76c-0.65-0.18-1.52-0.42-1.6,0.5
		c-0.14,1.62-1.1,0.57-1.7,0.67c0.2,0.46,0.12,0.72-0.08,0.89c0.07-0.3,0.11-0.6,0.08-0.89h-0.01c-0.31-0.84-1.25-0.28-1.76-0.82
		c-1.34-1.44-2.9-1.15-4.48-0.44c-1.63-0.47-3.25-1.2-4.98-0.38c-0.5,0.19-1.01,1.15-1.49-0.06c-0.16-0.41-0.59-0.52-1.03-0.44
		c-0.57-0.15-1.14-0.32-1.72-0.02c-2.08-0.12-4.13-0.77-6.23-0.32c-1.29-0.3-2.6-0.29-3.92-0.32c-2.32-0.06-4.67,0.04-6.97-0.15
		c-2.47-0.2-4.91-0.61-7.4-0.44c-2.39-0.14-4.77-0.28-7.15-0.42c-0.57-0.24-1.12-0.05-1.67,0.07c-1.51-0.47-3.04-0.66-4.61-0.44
		c-0.28-0.01-0.56-0.02-0.83-0.02c-0.69,0.01-1.39,0.02-2.09,0.03c-0.26-0.01-0.53-0.03-0.79-0.04c-0.25-0.14-0.61-0.24-0.86-0.2
		c-1.8-0.35-3.62-0.25-5.44-0.19c-3.07-0.13-6.11-0.78-9.2-0.38c-7.1-0.24-14.19-0.48-21.29-0.73c-7.9-0.27-15.85-0.1-23.69-0.93
		c-8.77-0.93-17.51-2.21-26.34-2.55c-8.04-0.31-16.06-1.28-24.13-1.06c-9.24,0.25-18.44-0.69-27.65-1.1
		c-10.18-0.45-20.37-0.77-30.55-1.04c-5.18-0.14-10.38-0.01-15.56-0.03c-5.27-0.02-10.54,0.03-15.79,0.2
		c-8.73,0.28-17.45,1.05-26.17,1.49c-1.38,0.07-2.54,1.28-3.66,0.98c-2.97-0.77-5.77,0.11-8.63,0.34
		c-5.08,0.4-10.17,0.82-15.23,1.46c-3.35,0.43-6.79,0.29-10.06,1.3c-1.81,0.52-3.72-0.66-5.49,0.33
		c-7.82,0.83-15.66,1.26-23.52,1.41c-8.02,0.16-16.03,0.47-24.04,0.71c-2.65,0.06-5.31-0.13-7.93,0.46
		c-3.95-0.1-7.85,0.54-11.77,0.78c-3.04,0.19-6.08,0.58-9.11,0.87c-1.24,0.56-2.62-0.74-3.82,0.3c-2.65-0.24-5.23,0.49-7.86,0.5
		c-1.8,0.25-3.59,0.51-5.41,0.58c-1.4,0.06-2.89-0.08-4.18,0.72c-2.96,0.14-5.96-0.05-8.75,1.22c-1.4,0.19-2.79-0.98-4.19-0.02
		c-0.15,0.11-0.3,0.23-0.45,0.35c-1.04,0.49-2.35-0.74-3.27,0.5c-0.15,0.13-0.3,0.27-0.45,0.4c-2.36-0.49-4.7-0.23-7.02,0.24
		c-0.17,0-0.36,0.03-0.57,0.12c-0.76,0.11-1.48,0.32-2.1,0.8c-1.28-0.6-2.56-0.49-3.83-0.04c-0.1,0.03-0.2,0.07-0.3,0.11
		c-0.86,0.13-1.69,0.39-2.56,0.5c-1.67,0.22-3.43,0.26-4.98,1.12c-1.83,0.34-3.66,0.98-5.48,0.94c-3.52-0.08-6.7,1.15-10,1.99
		c-0.12-0.01-0.23,0.02-0.33,0.08c-1.25,0.24-2.57-0.17-3.79,0.38c-0.58,0.07-1.23-0.19-1.71,0.35c-3.21,0.68-6.43,1.36-9.64,2.04
		c-1.95,1.08-4.13,1.46-6.22,2.14c-3.6-0.33-6.5,1.6-9.56,2.98c-2.95,0.77-5.95,1.35-8.8,2.49c-0.44,0.02-0.88,0.06-1.2,0.42
		c-1.13,0.41-2.26,0.83-3.39,1.24c-0.7,0.26-1.41,0.51-2.11,0.77c-0.93,0.59-1.95,0.93-3,1.22c-0.1,0.03-0.21,0.06-0.31,0.09
		c-2.2,0.9-4.4,1.8-6.58,2.72c-0.81,0.34-1.73,0.54-2.21,1.41c-3.1,0.46-5.36,2.94-8.36,3.65c-0.24-0.02-0.5,0.04-0.8,0.15
		c-1.61,1.31-3.55,2.03-5.35,3c-1.97,0.23-3.59,1.17-5.06,2.44c-0.98,0.39-1.97,0.79-2.95,1.18c-3.84,1.15-6.61,4.33-10.43,5.49
		c-1.52,0.84-3.03,1.67-4.55,2.51c-2.53,0.73-4.1,3.14-6.68,3.78c-0.3,0.25-0.6,0.5-0.9,0.75c-1.6,1.35-3.51,2.12-5.38,2.99
		c-0.14-0.03-0.26,0-0.35,0.11c-2.64,0.89-4.67,2.71-6.76,4.45c-0.96,0.38-1.8,0.93-2.52,1.67c-1.34,0.1-2.37,0.8-3.31,1.68
		c-0.58,0.2-0.88,0.76-1.53,0.98c-2.84,0.98-4.83,3.32-7.17,5.04c-1.71,1.26-3.37,2.71-5.12,3.99c-0.25,0.17-0.49,0.34-0.73,0.51
		c-2.57,1.13-4.06,3.42-5.83,5.41c-0.95,1.37-2.83,1.54-3.79,2.91c-0.87,0.04-1.06,0.62-1.19,1.36c-0.2,1.09-1.1,2-1.91,2.26
		c-1.7,0.55-2.49,1.94-3.62,3.03c-0.14,0.13-0.28,0.27-0.42,0.4c-1.36,1.04-2.22,2.51-3.33,3.77c-0.41,0.13-0.38,0.5-0.44,0.82
		c-0.9,0.25-0.19,1.4-0.59,1.48c-1.8,0.38-1.93,2.21-2.95,3.24c-0.09,0.09-0.17,0.18-0.27,0.25c-0.93,1.44-1.86,2.87-2.79,4.31
		c-0.11,0.1-0.18,0.21-0.22,0.33c-0.59,0.87-1.19,1.75-1.12,2.89l0,0c-1.29,0.6-1.59,2-2.4,2.99c-1.42,1.53-1.4,3.76-2.58,5.4
		c-0.75,0.36-0.5,1.38-1.18,1.78c-1.03,1.17-0.55,2.97-1.71,4.08c-0.31,0.14-0.48,0.38-0.5,0.72c-1.27,2.93-2.54,5.86-3.82,8.78
		c-0.55,0.65-1.42,1.19-0.81,2.25c-0.4,0.66-1.21,1.1-1.1,2.03c-0.1,0.08-0.14,0.19-0.12,0.32c-0.07,0.28-0.07,0.49-0.05,0.66
		c-0.26,1.23-1.44,2.22-1.12,3.61c-0.29,0.69-0.58,1.37-0.87,2.06c-1.36,2.47-1.24,5.42-2.54,7.91l0.03,0.01
		c-0.05,0.16-0.1,0.33-0.15,0.49c-0.75,2.49-1.5,4.99-2.25,7.48c-0.18,0.82-0.78,1.56-0.44,2.47c-0.16,1.12-0.33,2.23-0.49,3.35
		c-0.4,0.48-0.94,0.87-0.87,1.6c-0.49,0.65-0.38,1.4-0.39,2.13c-0.47,0.53-0.32,1.06-0.12,1.67c0.37,1.1,0.07,2.08-0.8,2.86
		c-0.62,0.69-0.33,1.55-0.39,2.33c-0.14,1.66-0.1,3.34-0.69,4.94c-0.18,0.46-0.25,0.89-0.26,1.31c-0.36,1.88-0.64,3.77-0.65,5.7
		c-0.27,1.81-0.54,3.62-0.8,5.44c0.62,1.6,0.05,3.06-0.56,4.51c-0.18,1.74-0.87,3.53,0.52,5.11c-0.11,0.84-0.21,1.68-0.32,2.52
		c-0.26,3,0.35,5.9,1.04,8.79c0.33,1.15,0.35,2.43,1.35,3.31c-0.71,0.88-0.42,1.69,0.2,2.44c0.31,0.37,0.77,0.66,0.78,1.18
		c0.11,3.31,3.02,5.59,3.25,8.85c0.25,0.68,0.57,1.32,1.22,1.72c0.03,1.73,1.14,2.91,2.1,4.17c0.64,1.2,1.22,2.45,1.94,3.61
		c3.71,6.01,7.42,12.03,12.17,17.31c0.86,0.65,1.04,1.75,1.71,2.52c1.26,1.51,2.51,3.03,3.77,4.54c1.62,1.48,2.28,3.77,4.18,5.02
		l-0.01,0.01c0.52,0.65,0.71,1.36,0.85,2.22c0.3,1.82-0.13,3.68,0.25,5.47c0.04,0.21,0.1,0.43,0.17,0.64
		c0.47,2.49,0.06,5.13,1.27,7.49c0.14,0.97,0.28,1.95,0.42,2.92l0,0c0.46,1.36,0.1,2.96,1.2,4.14c-0.14,0.3-0.13,0.59,0.07,0.86
		c0.99,1.07,1.41,2.34,1.3,3.78c0.15,0.4,0.29,0.8,0.44,1.2c0.86,0.78,0.26,2.17,1.21,2.91l-0.02,0.03c1.52,0.63,0.97,2.3,1.68,3.33
		c0.33,1.47,1.07,2.72,2.03,3.85c-0.01,0.11,0.02,0.21,0.11,0.28c1.25,0.75,1.49,2.15,2.09,3.31c0.57,0.69,0.79,1.64,1.57,2.19
		c1.07,1.56,1.86,3.33,3.39,4.54c0.12,0.17,0.24,0.33,0.36,0.49c0.62,1.71,2.89,1.89,3.39,3.7c3.48,4.09,7.8,7.23,11.97,10.52
		c0.15,0.48,0.57,0.45,0.95,0.6c1.04,0.42,2.44,0.88,2.62,1.93c0.28,1.62,1.2,2.47,2.39,3.26c1.31,1.29,3.17,1.51,4.67,2.43
		c0.24,0.17,0.49,0.34,0.73,0.51c6.08,3.3,12.44,6.01,18.75,8.84c0.7,0.26,1.4,0.53,2.1,0.79c0.74,0.67,1.61,1.05,2.59,1.18
		c0.97,0.42,1.94,0.85,2.9,1.27c0.29,0.19,0.59,0.31,0.91,0.4c3.42,1.49,6.82,3.03,10.38,4.19c3.26,1.45,6.61,2.68,10,3.79
		c0.32,0.35,0.73,0.44,1.18,0.44c0.49,0.48,1.12,0.64,1.74,0.8c1.08,0.69,2.26,0.5,3.43,0.39c-0.15,0.38-0.22,0.74,0.33,0.86
		c1.98,1.03,4.11,1.62,6.28,2.09c1.81,1.05,3.78,1.67,5.81,2.11c0.15,0.1,0.29,0.13,0.43,0.13c1.67,0.52,3.34,1.03,5,1.55
		c0.5,0.42,1.13,0.29,1.71,0.38c-0.18-0.92,0.36-1.23,1.14-1.33c0,0,0.01,0,0.01,0.01c-0.79,0.09-1.32,0.4-1.15,1.32
		c1.28,0.78,2.73,1,4.16,1.28c11.89,3.54,23.95,6.31,36.26,7.95c0.31-0.08,0.63-0.09,0.97-0.07c-0.24,0.08-0.47,0.13-0.71,0.11
		c2.85,0.46,5.71,0.85,8.53,1.44c1.94,0.4,3.95,0.03,5.84,0.68c0.23,0.34,0.6,0.28,0.94,0.3c4.47,0.35,8.86,1.26,13.37,1.53
		c2.97,0.18,6.01,0.84,9.02,1.17c8.07,0.86,16.17,1.41,24.24,2.29c9.94,1.08,19.83,2.55,29.84,2.9c4.16,0.14,8.35-0.12,12.46,0.68
		c7.83,1.52,15.65,3.09,23.48,4.65c10.97,2.18,22.07,3.59,33.13,5.21c1.88,0,3.61,1.06,5.53,0.77c7.09,1.05,14.17,2.18,21.27,3.13
		c3.12,0.42,6.3,0.37,9.43,0.75c8.8,1.05,17.64,1.6,26.49,1.98c0.13-0.15,0.29-0.2,0.46-0.21c-0.15,0.07-0.31,0.14-0.46,0.21
		c1.7,0.02,3.4,0.04,5.09,0.06c1.69-0.93,3.31,0.28,5,0.17c5.44-0.35,10.9-0.22,16.35-0.44c4.57-0.18,9.04,1.15,13.54,1.94
		c1.39,0.29,2.79,0.59,4.18,0.88c0.67,0.4,1.44,0.3,2.17,0.43c1.78,0.34,3.65,0.06,5.36,0.82c0.8,0.61,1.73,0.23,2.59,0.33
		c1.08,0.17,2.17,0.34,3.25,0.5c2.95,0.11,5.75,1.32,8.74,1.21c0.02,0,0.03,0.01,0.05,0.01c0.12,0.03,0.24,0.05,0.37,0.07
		c3.61,0.76,7.3,0.84,10.96,1.1c1.81,0.13,3.64,0.14,5.43,0.43c2.79,0.45,5.58,0.01,8.41,0.39c5.07,0.69,10.2-0.8,15.33-0.28
		c0.41,0.04,0.87-0.34,1.31-0.53c2.5,0.27,5,0.82,7.5,0.01c0.29,0.43,0.59,0.32,0.91,0.03c0.61,0.24,0.96-0.51,1.52-0.42
		c3.09,0.48,6.17-0.03,9.25-0.1c4.05,0.3,8.07-0.38,12.11-0.33c0.14-0.01,0.29-0.02,0.43-0.03c5.84,0.12,11.68,0.25,17.52,0.37
		c2.25,0.15,4.44-0.93,6.77-0.05c0.73,0.28,2.02,0.64,2.89-0.29c1.09-0.29,2.19-0.46,3.29-0.04c0.99,1.28,2.32-0.52,3.35,0.37
		c0.6,0.09,1.23,0.36,1.69-0.3c0.67-0.01,1.34-0.01,2.01-0.02c0.56,0.65,1.33,0.33,2.01,0.44c0.94,0.77,2.02,0.23,3.04,0.32
		c0.27-0.01,0.55-0.02,0.82-0.03c1.51,0.37,3.14-0.37,4.61,0.47c3.74,0.51,7.5,0.67,11.28,0.42c1.34,1.11,2.76-0.31,4.12,0.12
		c2.99,1.06,6.11,0.49,8.97-0.03c4.15-0.76,8.32,0.14,12.39-0.86c2.26,0.02,4.42-0.69,6.65-0.94c2.22-0.59,4.31-1.72,6.7-1.65
		c2.22,0.25,4.3-0.18,6.25-1.26c2.3-1.01,5.1-0.52,7.09-2.41c2.75,0.13,4.95-1.64,7.52-2.16c0.72-0.26,1.43-0.52,2.15-0.78
		c0.76-0.08,1.43-0.4,2.04-0.85c1.04-0.73,2.16-1.17,3.47-1.31c0.67-0.07,1.52-0.1,2.05-0.75c0.24-0.17,0.48-0.34,0.72-0.51
		c1.43-0.89,2.89-1.67,4.64-1.61c1.33-0.82,2.58-1.84,4.28-1.82c0.1,0,0.2-0.17,0.3-0.25c1.71-0.72,3.42-1.43,5.13-2.15
		c0.56-0.23,1.28-0.3,1.22-1.17c1.19,0.12,2.23-0.29,3.22-0.91c1-0.57,2-1.16,3.12-1.49c0.1-0.02,0.2-0.06,0.29-0.09l0.01-0.01
		c0.88-1.05,2.08-1.22,3.34-1.26c0.39-0.3,0.79-0.6,1.18-0.9c0.89-0.07,1.8-0.08,2.43-0.88c0.16-0.11,0.33-0.23,0.49-0.34
		c0.05,0.05,0.09,0.12,0.15,0.14c0.05,0.01,0.15-0.02,0.17-0.06c0.56-1.37,1.86-1.48,3.03-1.81c3.21-0.88,6.04-2.7,9.2-3.7
		c1.05-1.38,3.27-0.42,4.17-2.09c0.36-0.69,1.27-0.22,1.68-0.8c2.78-0.84,4.7-3.44,7.78-3.76c0.73-0.08,1.12-0.94,1.44-1.64
		c1.52-0.03,2.98-0.27,4.2-1.28c2.54-1.11,4.97-2.43,7.36-3.82c2.37-1.37,4.59-2.93,6.78-4.54c1.35-0.91,3.02-1.26,4.18-2.48
		c3.55-2.13,6.02-5.95,10.46-6.69l0,0c2.21-0.7,4.42-1.41,6.63-2.11l0,0l0,0c3.3-0.22,6.12-2.02,9.26-2.79
		c3.28-0.8,6.45-2.04,9.78-2.76c1.63-0.35,3.6-0.32,4.74-2c1.51,0.77,2.66-0.1,3.76-0.91c0.63-0.47,1.25-1.03,2.01-0.98
		c2.46,0.14,4.14-1.77,6.33-2.29c0.04-0.06,0.08-0.1,0.12-0.16c0.97-1.37,2.57-1.71,3.99-2.36c0.34-0.43,0.71-0.83,1.29-0.92
		c0.54-0.47,0.94-1.14,1.82-1.03c0.5,0.05,1.12-0.15,1.21-0.61c0.45-2.08,2.18-2.58,3.79-3.23c0.6-0.24,1.15-0.48,1.23-1.22
		c0.24-0.3,0.49-0.6,0.73-0.91c0.85-0.25,1.63-0.57,1.63-1.66c0.01-0.62,0.37-0.99,0.88-1.25c1.82-0.35,2.31-2.05,3.29-3.26
		c1.07-0.14,1.61-0.94,2.14-1.74c1.07-0.85,1.05-2.42,2.14-3.26c0.49-0.31,0.55-0.86,0.72-1.34c0.44-0.44,0.87-0.88,1.31-1.32
		c0.15-1.83,2.39-2.02,2.85-3.53c0.88-2.87,3.1-4.84,4.68-7.24c0.11-0.11,0.15-0.2,0.13-0.29c1.21-2.69,3.42-4.91,3.67-8.04
		c1.17-0.18,1.43-1.29,1.37-2.01c-0.13-1.4,0.49-2.39,1.19-3.41c0.36-0.3,0.36-0.73,0.39-1.14c0.12-0.45,0.25-0.9,0.38-1.35
		c1.01-0.96,0.1-2.26,0.66-3.36c1.31-2.59,1.55-5.4,1.45-8.26c0.61-0.65,0.76-1.55,0.71-2.31c-0.23-3.05,1.16-5.22,3.46-6.97
		c6.46-5.84,11.93-12.59,17.47-19.26c0.94-1.41,2.07-2.64,3.4-3.69c0.28-0.26,0.57-0.51,0.85-0.77c0.9-0.32,1.51-1,2.1-1.7
		c2.67-2.38,5.34-4.75,8-7.14c5.34-4.79,10.28-9.97,14.91-15.44c0.55-0.7,1.1-1.41,1.65-2.11c0.26-0.43,0.53-0.87,0.79-1.3
		c1.28-1.4,2.62-2.75,3.43-4.51c1.83-1.07,2.59-2.99,3.73-4.61c0.54-0.87,1.08-1.73,1.62-2.6c1.02-1.02,1.76-2.21,2.19-3.59
		l0.01-0.01c0.55-0.92,1.39-1.71,1.3-2.92c0.55-0.26,0.64-0.79,0.75-1.3c0.81-0.49,0.97-1.34,0.9-2.13
		c-0.11-1.21,0.44-2.06,1.17-2.89c0.68-2.36,1.35-4.73,2.03-7.09c-0.12-0.89,0.97-1.24,0.91-2.1c0.37-2.96,1.89-5.72,1.55-8.81
		c0.15-0.4,0.58-0.69,0.44-1.19c-0.08-0.13-0.16-0.28-0.17-0.42c0.06,0.14,0.12,0.28,0.17,0.42
		C1062.68,390.35,1063.89,389.06,1063.19,387.73z M949.8,301.95L949.8,301.95L949.8,301.95C949.81,301.95,949.8,301.95,949.8,301.95
		z M1025.25,318.14c0.01-0.02,0.02-0.03,0.02-0.06c0,0.02-0.01,0.04-0.01,0.06C1025.26,318.15,1025.25,318.15,1025.25,318.14z
		 M1025.25,318.18L1025.25,318.18c0.01,0.03,0.02,0.06,0.03,0.09C1025.27,318.24,1025.26,318.21,1025.25,318.18z M1025.84,320.24
		c-0.04,0.75,0.55,1.2,1.37,1.55c0,0,0,0,0,0.01C1026.39,321.45,1025.81,320.99,1025.84,320.24z M1031.47,321.34
		c-0.08-0.35-0.15-0.62-0.22-0.84c0.17,0.17,0.27,0.38,0.23,0.69C1031.48,321.25,1031.48,321.29,1031.47,321.34z M1045.53,342.39
		c-0.41-0.11-0.82-0.23-0.97-0.63C1044.7,342.17,1045.12,342.28,1045.53,342.39z M1044.51,341.13L1044.51,341.13
		C1044.51,341.13,1044.51,341.12,1044.51,341.13C1044.51,341.12,1044.51,341.13,1044.51,341.13z M1044.59,337.24v-0.01l0,0
		C1044.59,337.23,1044.59,337.23,1044.59,337.24z M1057.23,373.49L1057.23,373.49c0-0.05,0-0.1,0-0.15
		C1057.23,373.38,1057.23,373.43,1057.23,373.49z M1057.23,373.5c0,0,0.01-0.01,0.02-0.02
		C1057.24,373.49,1057.23,373.5,1057.23,373.5c0,0.08,0,0.17,0,0.25C1057.22,373.67,1057.23,373.58,1057.23,373.5z M1053.91,395.43
		c-0.03-0.04-0.05-0.07-0.08-0.11c0.06,0.02,0.12,0.04,0.18,0.06C1053.98,395.39,1053.94,395.41,1053.91,395.43z M1047.31,352.27
		c-0.01,0-0.01,0.02-0.01,0.02c0.02,0.04,0.03,0.07,0.06,0.1c-0.03-0.03-0.04-0.06-0.07-0.09
		C1047.29,352.3,1047.3,352.28,1047.31,352.27z M1049.34,346.86c-0.09-0.19-0.17-0.39-0.24-0.58
		C1049.34,346.46,1049.41,346.66,1049.34,346.86z M1045.52,336.14v0.01l0,0V336.14c-0.06,0.01-0.11,0.02-0.17,0.03
		C1045.4,336.16,1045.46,336.15,1045.52,336.14z M1040.53,327.06c-0.02,0-0.02,0-0.03,0.01c0.01-0.01,0.01-0.01,0.02-0.02
		C1040.52,327.05,1040.53,327.05,1040.53,327.06z M1040.38,326.34c-0.01-0.03-0.02-0.07-0.03-0.1
		C1040.36,326.27,1040.37,326.3,1040.38,326.34C1040.38,326.33,1040.38,326.34,1040.38,326.34z M1044.58,346.51
		c0.05-0.19,0.13-0.35,0.26-0.45C1044.75,346.19,1044.67,346.35,1044.58,346.51z M1049.05,376.17c0.01,0.12,0,0.23-0.05,0.31
		C1049.02,376.37,1049.03,376.26,1049.05,376.17z M1023.61,406.68C1023.61,406.68,1023.61,406.69,1023.61,406.68
		c0.04,0.01,0.08,0.01,0.11,0.01c-0.04,0-0.07,0-0.11,0C1023.61,406.69,1023.61,406.68,1023.61,406.68z M997.1,336.98L997.1,336.98
		C997.1,336.99,997.1,336.99,997.1,336.98c-0.01-0.01-0.02-0.01-0.02-0.01s0.01-0.01,0.02-0.01c-0.01,0-0.01,0.01-0.01,0.01h-0.01
		C997.08,336.97,997.09,336.98,997.1,336.98c0-0.01-0.01-0.01-0.01-0.01L997.1,336.98z M985.02,318.19L985.02,318.19L985.02,318.19
		L985.02,318.19z M986.05,318.04c0.17-0.13,0.28-0.27,0.07-0.38C986.34,317.77,986.22,317.91,986.05,318.04z M976.62,315.68
		L976.62,315.68c-0.01-0.01-0.01-0.01-0.01-0.01l0,0l-0.01-0.01C976.6,315.67,976.61,315.67,976.62,315.68L976.62,315.68
		c0-0.01,0,0,0.01,0.01C976.63,315.69,976.62,315.68,976.62,315.68z M976.66,315.68L976.66,315.68l-0.02,0.02L976.66,315.68z
		 M976.67,315.73c0,0.01,0,0.01,0,0.01c0.01,0.01,0.02,0.02,0.04,0.03c-0.01-0.01-0.02-0.02-0.04-0.03
		C976.67,315.74,976.67,315.74,976.67,315.73z M989.97,332.72c0.01,0.04,0.03,0.07,0.05,0.1c-0.05,0-0.1,0-0.15,0.01
		C989.91,332.79,989.94,332.76,989.97,332.72z M1030.91,387.05c0.01-0.01,0.02-0.03,0.03-0.04c0.01,0.02,0.02,0.05,0.03,0.07
		c-0.01,0-0.02,0-0.04,0v-0.01c0-0.01,0-0.01,0-0.02l-0.01,0.01C1030.92,387.07,1030.91,387.06,1030.91,387.05
		C1030.91,387.06,1030.91,387.05,1030.91,387.05L1030.91,387.05z M1026.87,384.98c0.07,0.14,0.11,0.25,0.12,0.35
		c-0.08-0.12-0.15-0.26-0.19-0.44C1026.82,384.92,1026.86,384.95,1026.87,384.98z M1014.24,346.43c0.09,0.05,0.16,0.12,0.19,0.26
		c-0.13,0.12-0.26,0.18-0.39,0.23C1014.1,346.79,1014.17,346.62,1014.24,346.43z M1012.2,346.64L1012.2,346.64
		c0.05,0.04,0.1,0.08,0.15,0.12C1012.3,346.72,1012.25,346.68,1012.2,346.64z M1020.24,357.5c0.11,0.06,0.22,0.12,0.33,0.17
		c-0.05,0.03-0.1,0.07-0.14,0.11C1020.38,357.69,1020.32,357.6,1020.24,357.5z M926.86,280.21c-0.97-0.38-1.89-0.89-2.83-1.33
		C924.97,279.31,925.88,279.82,926.86,280.21C926.86,280.2,926.86,280.21,926.86,280.21L926.86,280.21z M893.51,273.49
		L893.51,273.49L893.51,273.49L893.51,273.49z M888.32,276.06c0.02-0.05,0.05-0.11,0.07-0.16c0.06,0.03,0.13,0.05,0.19,0.08
		c-0.06,0.05-0.12,0.1-0.18,0.15s-0.12,0.1-0.18,0.15C888.25,276.21,888.28,276.14,888.32,276.06z M1000.24,289.25
		c-0.01,0.06-0.01,0.1-0.01,0.16c-0.01-0.05,0-0.1,0-0.15C1000.22,289.26,1000.23,289.25,1000.24,289.25z M1000.8,296.44
		c-0.01-0.01-0.02-0.02-0.03-0.03c0.02-0.01,0.03-0.01,0.05-0.02C1000.81,296.41,1000.81,296.42,1000.8,296.44z M1007.95,303.6
		c0.03,0.08,0.03,0.15,0.02,0.23l0,0l0,0C1007.98,303.75,1007.98,303.67,1007.95,303.6z M999.99,293.11c-0.01,0-0.01,0-0.02,0
		C999.98,293.1,999.98,293.1,999.99,293.11C999.99,293.1,999.99,293.1,999.99,293.11c2.04,0.24,2.3,0.28,1.67,1.86
		C1002.29,293.39,1002.03,293.35,999.99,293.11z M1014.14,300.9c-0.02,0.02-0.04,0.03-0.06,0.05c-0.09-0.06-0.16-0.15-0.22-0.24
		C1013.96,300.77,1014.05,300.83,1014.14,300.9z M1008.89,295.72c-0.12,0.15-0.25,0.28-0.37,0.4
		C1008.61,295.98,1008.75,295.85,1008.89,295.72z M1002.86,296.21c-0.13-0.63-0.54-0.64-0.99-0.56
		C1002.33,295.57,1002.74,295.58,1002.86,296.21C1002.87,296.21,1002.87,296.21,1002.86,296.21z M995.06,293.93
		c-0.49-0.53-1.13-0.52-1.77-0.45h-0.01v-0.01v0.01C993.93,293.41,994.57,293.41,995.06,293.93z M926.13,256.84
		c0.09,0.39,0.14,0.8,0.28,1.17C926.27,257.64,926.22,257.23,926.13,256.84L926.13,256.84
		C926.12,256.84,926.13,256.83,926.13,256.84L926.13,256.84L926.13,256.84z M926.12,256.84L926.12,256.84L926.12,256.84
		L926.12,256.84z M911.48,252.43c0.12-0.39,0.39-0.62,0.85-0.63C911.87,251.81,911.6,252.03,911.48,252.43L911.48,252.43z
		 M913.6,251.28c0.01,0,0.02-0.01,0.02-0.01C913.62,251.28,913.61,251.28,913.6,251.28z M914.83,250.58c0,0,0-0.01,0.01-0.01
		c0.02,0.02,0.03,0.03,0.05,0.04C914.87,250.6,914.85,250.59,914.83,250.58z M914.82,250.57c-0.03,0.02-0.07,0.04-0.1,0.06
		C914.75,250.61,914.78,250.59,914.82,250.57C914.81,250.57,914.82,250.57,914.82,250.57z M918.45,257.8
		c0.1-0.05,0.2-0.08,0.31-0.06C918.65,257.72,918.55,257.75,918.45,257.8c0.01,0-0.01,0-0.02-0.01
		C918.44,257.79,918.45,257.8,918.45,257.8z M926.13,256.83L926.13,256.83L926.13,256.83L926.13,256.83L926.13,256.83
		C926.13,256.82,926.14,256.82,926.13,256.83L926.13,256.83C926.14,256.82,926.14,256.82,926.13,256.83L926.13,256.83
		C926.13,256.83,926.14,256.83,926.13,256.83C926.14,256.83,926.13,256.83,926.13,256.83z M957.23,271.16l0.01,0.01
		C957.24,271.16,957.24,271.16,957.23,271.16c-0.03-0.02-0.06-0.05-0.09-0.07C957.17,271.11,957.2,271.14,957.23,271.16z
		 M914.84,250.55L914.84,250.55C914.85,250.55,914.84,250.55,914.84,250.55L914.84,250.55z M914.84,250.55c-0.02,0-0.04,0-0.07,0
		C914.8,250.55,914.82,250.55,914.84,250.55L914.84,250.55z M883.54,245.93L883.54,245.93c-0.32-0.37-0.7-0.49-1.11-0.53
		C882.84,245.44,883.22,245.56,883.54,245.93z M838.03,233.03h-0.02H838.03C838.02,233.02,838.03,233.02,838.03,233.03
		c0-0.01,0,0.01,0.01,0.01C838.03,233.04,838.03,233.03,838.03,233.03z M838.03,233.02h0.01l0.01,0.01L838.03,233.02z
		 M814.44,230.83c-0.01-0.05-0.02-0.1-0.03-0.16c0.02,0,0.04,0.02,0.06,0.01C814.66,230.64,814.56,230.82,814.44,230.83z
		 M787.05,224.28c-0.02-0.08-0.05-0.16-0.07-0.25C787.05,224.14,787.07,224.22,787.05,224.28z M785.67,220.61
		c-0.08-0.15-0.16-0.29-0.25-0.43C785.55,220.32,785.66,220.47,785.67,220.61z M759,230.2h0.01c2.06-0.2,3.84,0.1,5.61,0.12
		c2.08,0.02,4.16,0.21,6.24,0.32c10.26,0.54,20.52,1.09,30.78,1.63c0.38,0.05,0.75,0.1,1.13,0.15c1.74,0.24,3.48,0.44,5.23,0.54
		c0.48,0.03,0.97,0.04,1.46,0.05c0.48,0.01,0.96,0.03,1.45,0.02c0-0.01,0.01-0.02,0.01-0.03c0.02,0.01,0.03,0.02,0.05,0.03
		c3.39,0.29,6.77,0.59,10.16,0.88c0.06,0.01,0.13,0.01,0.19,0.02c2.1,0.77,4.34,0.5,6.51,0.86c3.93,0.66,7.9,1.09,11.86,1.62
		c0.25,0.04,0.49,0.08,0.74,0.12c1.04,0.17,2.07,0.35,3.11,0.52c0.26,0.04,0.52,0.09,0.78,0.13c2.05,0.3,4.1,0.61,6.16,0.91
		c0.45,0.09,0.9,0.19,1.35,0.28c2.21,0.46,4.42,0.92,6.64,1.39c0.42,0.27,0.86,0.36,1.31,0.39c0.6,0.03,1.21-0.05,1.81,0
		c0.07,0.01,0.14,0.01,0.2,0.02c2.78,0.65,5.57,1.3,8.35,1.95c0.07-0.01,0.15-0.02,0.22-0.03c1.48-0.15,2.56,1.18,3.97,1.31
		c0.17,0.02,0.33,0.02,0.51,0c2.04,0.6,4.08,1.21,6.12,1.81c0.23,0.16,0.48,0.26,0.73,0.34c0.6,0.2,1.25,0.26,1.87,0.38h0.03
		c1.94,0.56,3.88,1.13,5.82,1.69c0.03,0.01,0.06,0.02,0.1,0.03c2.6,0.94,5.19,1.89,7.79,2.83c0-0.03,0.01-0.06,0.01-0.09
		c0.03,0.04,0.05,0.08,0.07,0.12c0.11,0.04,0.22,0.06,0.34,0.07c0.1-0.01,0.2-0.03,0.3-0.04c-0.05,0.04-0.1,0.09-0.16,0.13
		c0.85,0.55,1.83,0.61,2.79,0.74l0,0c0,0.01,0.01,0.01,0.02,0.01l0.01-0.01c0.01,0,0.03,0,0.04,0c-0.01,0.01-0.01,0.03-0.02,0.04
		c0.88,1,2.25,0.66,3.3,1.19h0.01l0,0c2.36,1.25,5,1.66,7.49,2.53c0.17,0.08,0.34,0.19,0.49,0.3c0.61,0.43,1.16,0.97,1.99,0.94
		l-0.01-0.01c-0.38-0.41-0.82-0.71-1.3-0.92c0.48,0.21,0.92,0.5,1.3,0.91c0,0,0.01,0.01,0.02,0.01l0.02,0.01
		c0.05,0.01,0.1,0.02,0.15,0.03c1.35,0.21,2.45,1,3.64,1.58c0.1,0.06,0.21,0.08,0.33,0.08c1.92,0.77,3.84,1.54,5.76,2.31
		c0.47,0.19,0.94,0.38,1.41,0.57c4.31,1.8,8.62,3.61,12.94,5.41c0.21,0.01,0.42,0.04,0.62,0.08c2.45,0.47,4.24,2.77,6.96,2.62
		c0.91-0.05,1,1.95,2.43,1.42c0.05,0.02,0.09,0.05,0.14,0.07c1.07,0.56,2.13,1.11,3.19,1.67c0.69,0.28,1.39,0.56,2.08,0.83
		c1.35,0.66,2.91,0.86,4.15,1.75c0.15,0.11,0.3,0.23,0.45,0.36c3.46,1.67,6.93,3.33,10.39,5c0.15,0.11,0.31,0.21,0.46,0.31
		c1.83,1.21,4.06,1.69,5.8,3.07c0.14,0.08,0.29,0.15,0.43,0.22c0.51,0.27,1.01,0.53,1.52,0.79c0.08,0.04,0.16,0.08,0.24,0.12
		c0.61,0.79,1.93,0.23,2.43,1.22c0.01,0.03,0.03,0.04,0.04,0.07c0.85,0.54,1.69,1.08,2.54,1.61c0.02,0.03,0.05,0.04,0.08,0.07
		c1.01,1.08,2.59,1.23,3.76,2.05c0.29,0.2,0.55,0.43,0.77,0.74c0.27,0.17,0.55,0.33,0.82,0.5c0.1,0.07,0.2,0.14,0.3,0.21
		c0.47,0.32,0.94,0.65,1.4,0.97c0.19,0.13,0.38,0.27,0.57,0.4c-0.06-0.06-0.11-0.15-0.15-0.24c0.11,0.12,0.23,0.25,0.34,0.37
		c0.91,0.37,1.53,1.28,2.61,1.32c0.11,0.01,0.2,0.03,0.3,0.06c0.42,0.11,0.73,0.35,0.98,0.82c0.86,1.64,2.5,2.37,3.99,3.27
		c0.36,0.4,0.63,0.94,1.32,0.78c1.09,0.4,1.19,1.95,2.48,2.13c0.28,0.14,0.55,0.27,0.83,0.41c0.22,0.19,0.5,0.19,0.79,0.18
		c1.04,0.52,1.25,2.06,2.47,2.51c0.8,0.3,1.73,0.98,2.13,1.96c0.38,0.33,0.75,0.65,1.13,0.98c0.07,0.06,0.13,0.12,0.2,0.17
		c0.41,0.51,0.97,0.74,1.58,0.89c0.04,0.08,0.09,0.14,0.14,0.22c0.43,0.73,1.03,1.28,1.76,1.68c0.09,0.05,0.17,0.11,0.27,0.15
		c1,0.96,2,1.91,3,2.87c0.12,0.11,0.24,0.22,0.35,0.33c0.72,0.68,1.45,1.35,2.17,2.03c0.09,0.09,0.18,0.17,0.28,0.26
		c0.61,1.01,1.85,1.17,2.63,1.94c0.02,0.35,0.09,0.67,0.19,0.97c0.57,1.89,2.31,3.05,3.7,3.8c1.58,0.86,2.25,1.77,2.72,3.22
		c0.75,0.92,2.2,1.16,2.46,2.57c0.29,1.62,1.35,2.84,2.32,4.08c2.08,2.66,3.75,5.62,5.63,8.39c1.12,1.65,1.79,4.09,2.6,6.2
		c0.01,0.07,0.01,0.14,0.03,0.21c0.78,2.85,2.69,5.27,3.35,8.16c0.06,0.25,0.11,0.51,0.14,0.77c0.03,0.19,0.05,0.39,0.06,0.59
		c0.7,2.78,1.4,5.56,2.1,8.34c0.05,0.09,0.1,0.18,0.15,0.26c0.61,1.05,0.99,2.08,0.81,3.47c-0.23,1.78-0.19,3.67,0.32,5.47
		c0.03,0.81,0.05,1.61,0.08,2.42c-0.2,1.65,0.59,3.32-0.1,4.96c-0.5,3.35-1.27,6.67-1.19,10.09c-0.97,1.96-0.51,4.21-1.23,6.22
		c-0.04,0.12-0.07,0.24-0.13,0.36c-0.49,0.32-0.29,0.82-0.35,1.26c-0.09,0.27-0.18,0.55-0.26,0.82c-0.79,2.46-1.59,4.95-2.45,7.6
		c-0.01,0.04-0.03,0.09-0.04,0.13c-0.03-0.04-0.04-0.07-0.07-0.11c-0.82-1.26,0.02-2.23,0.06-3.2c0.01-0.19-0.01-0.37-0.09-0.56
		c0.53-6.08,1.24-12.15,0.02-18.25c-0.32-1.62-1.08-3.09-1.28-4.72c0-0.03-0.01-0.06-0.01-0.09c-0.05-0.66-0.15-1.3-0.43-1.89
		c-0.09-0.2-0.21-0.4-0.35-0.58c-0.79-2.57-1.6-5.13-3.04-7.43c-0.01-0.04-0.03-0.07-0.04-0.11c-0.83-2.27-2.37-4.13-3.64-6.14
		c-0.28-0.44-0.55-0.89-0.79-1.36c-2.06-3.05-3.92-6.26-6.8-8.67c-0.1-0.13-0.19-0.27-0.28-0.4c-0.71-1-1.42-2.01-2.13-3.01
		c-0.11-0.43-0.42-0.67-0.81-0.84c-1.13-0.73-1.72-1.92-2.48-2.96c-0.24-0.7-0.79-1.14-1.34-1.58c-0.56-0.41-1.12-0.81-1.68-1.22
		c-0.59-0.46-0.1-1.68-1.24-1.75c-1.83-1.64-3.04-3.86-5-5.38c-2.8-2.91-5.6-5.82-8.4-8.73c-1.07-1.01-2.14-2.03-3.21-3.04
		c-4.89-4.55-9.93-8.94-15.4-12.78c-1.25-0.88-2.01-2.51-3.78-2.63c-1.3-1.75-3.71-2.04-5.03-3.78c-1.4-0.83-3.18-1.35-4.13-2.54
		c-1.95-2.45-5.13-2.82-7.23-4.88c-3.19-2.92-7.42-4.17-10.84-6.72c-1.11-0.57-2.22-1.13-3.33-1.7c-0.16-0.41-0.47-0.5-0.86-0.41
		c-1.16-0.42-1.96-1.51-3.23-1.75c-0.02-0.12-0.07-0.22-0.17-0.29c-1.14-0.76-2.64-0.75-3.67-1.73c-0.41-0.16-0.82-0.31-1.23-0.47
		c-0.38-0.98-1.14-1.3-2.13-1.2c-0.96,0.03-1.01-1.43-2.07-1.24c-2.36-1.12-4.72-2.23-7.08-3.34c-0.59-0.59-1.37-0.67-2.13-0.76
		c-0.95-0.45-1.9-0.89-2.85-1.34c-0.88-1.12-2.29-0.3-3.31-0.91c-0.24-0.89-1.18-0.71-1.73-1.12c-1.51-0.64-2.94-1.52-4.63-1.67
		c-0.51-0.35-0.94-0.85-1.61-0.91c-0.97-0.36-1.87-1-2.99-0.73c-1.38-1.32-3.24-1.55-4.92-2.2c-1.13-0.41-2.27-0.81-3.4-1.22
		c-0.96-0.29-1.91-0.58-2.87-0.87c-1.43-0.61-2.87-1.22-4.31-1.83c-0.12-0.05-0.25-0.11-0.37-0.16c-0.11-0.07-0.23-0.1-0.36-0.08
		c-0.41-0.14-0.82-0.28-1.22-0.42c-2.19-0.76-4.37-1.52-6.56-2.27c-0.2-0.07-0.39-0.14-0.59-0.2l0.01-0.01
		c-0.18-0.07-0.35-0.13-0.53-0.2c-1.44-0.54-2.87-1.07-4.31-1.61c-0.21-0.08-0.42-0.16-0.62-0.23c-2.87-1.12-5.69-2.35-8.73-2.97
		c-0.16-0.09-0.32-0.18-0.48-0.26c-0.52-0.28-1.07-0.51-1.67-0.58c-0.11-0.01-0.22-0.04-0.35-0.04c-4.73-1.52-9.46-3.04-14.18-4.56
		c-0.18-0.08-0.36-0.15-0.54-0.21c-1.45-0.51-3.05-0.53-4.47-1.15c-0.17-0.07-0.33-0.14-0.49-0.23l0.01-0.03
		c-0.35-0.1-0.7-0.21-1.05-0.31c-1.5-0.44-3.01-0.89-4.51-1.33c-0.09-0.02-0.17-0.05-0.26-0.08c-27.9-7.88-56.22-13.97-85.07-19.78
		C758.35,230.28,758.68,230.24,759,230.2z M827.57,258.57c0.01,0.01,0.03,0.01,0.03,0.01c0.01,0,0.01,0,0.01,0l0,0
		C827.61,258.58,827.58,258.57,827.57,258.57z M747.92,218.05c-0.11,0.12-0.19,0.31-0.29,0.61c-0.13-0.07-0.23-0.17-0.28-0.38
		C747.53,218.11,747.72,218.05,747.92,218.05z M736.05,218.72C736.05,218.72,736.06,218.72,736.05,218.72
		c-0.02,0.04-0.04,0.06-0.06,0.1C736.02,218.78,736.04,218.76,736.05,218.72z M492.18,240.33c0.06,0.04,0.11,0.08,0.17,0.11
		c-0.08-0.01-0.14-0.01-0.21-0.02C492.15,240.4,492.17,240.37,492.18,240.33z M467.32,247.06c0,0.01,0,0.02,0,0.03
		c-0.16,0.07-0.29,0.1-0.41,0.1C467.05,247.15,467.18,247.11,467.32,247.06z M461.82,244.95c0,0-0.02,0.01-0.03,0.01
		C461.81,244.95,461.82,244.95,461.82,244.95c0.02-0.09,0.05-0.16,0.05-0.26C461.87,244.78,461.84,244.86,461.82,244.95z
		 M458.06,245.27c0.03,0.79,0.32,1.63,0.89,2.4l0,0C458.38,246.9,458.09,246.06,458.06,245.27z M449.08,233.87
		c12.45-2.48,24.97-4.26,38.05-3.94c-6.01,1.18-11.73,2.26-17.42,3.42c-15.15,3.1-30.2,6.59-45.09,10.78c-1.2,0.34-2.4,0.67-3.61,1
		c-0.18,0.05-0.36,0.1-0.54,0.15c-1.9,0.52-3.81,1.04-5.71,1.55c-1.4,0.41-2.8,0.81-4.2,1.22c-0.48,0.03-1.01-0.06-1.44,0.1
		c-6.63,2.56-13.61,4.05-20.26,6.54c-3.46,1.3-7.07,2.19-10.38,3.87c-0.72-0.08-1.33,0.11-1.75,0.74c-1.23,0.32-2.46,0.65-3.69,0.97
		c-1.24,1.4-3.06,1.44-4.67,1.98c-1.17,0.07-1.99,0.96-3,1.41c-0.23,0.1-0.47,0.19-0.73,0.23c-0.26,0.02-0.51,0.05-0.77,0.07
		c-1.48,1.03-3.46,1.19-4.66,2.8c-0.24,0.32-1.41-0.07-2.04-0.12c1.36-2.43,4.32-2.1,6.21-3.65c0.09,0.01,0.18,0.02,0.27,0.04
		c0.05,0.01,0.1,0.02,0.16,0.02c0.13-0.07,0.27-0.14,0.4-0.21c1.9-0.98,3.8-1.95,5.7-2.93c0.08-0.04,0.16-0.08,0.25-0.13
		c0.89-0.09,1.41-0.77,2.03-1.3c0.1-0.05,0.2-0.09,0.3-0.13c0.9-0.38,1.89-0.56,2.79-0.95c0.37-0.16,0.72-0.35,1.05-0.61
		c2.94-1.09,5.7-2.6,8.61-3.77c3.58-1.44,7.22-2.77,10.76-4.28c7.24-3.09,14.84-5.08,22.28-7.58c0.79-0.27,1.57-0.52,2.19-1.1
		c0.12,0.03,0.23,0.03,0.35,0.04c0.56,0.06,1.08-0.05,1.58-0.31c0.06-0.03,0.13-0.06,0.19-0.1c0.14,0.06,0.27,0.04,0.39-0.05
		c0.21-0.14,0.45-0.22,0.68-0.26c0.42-0.08,0.86-0.06,1.28-0.1c0.37-0.03,0.73-0.12,1.05-0.36
		C433.43,237.05,441.25,235.43,449.08,233.87z M370.93,256.83L370.93,256.83c0-0.01-0.01-0.01-0.02-0.01v0.01l0.01,0.01
		L370.93,256.83l-0.01,0.01l-0.01,0.01c0,0,0-0.01,0-0.02l0,0c0.01-0.01,0.02-0.01,0.03-0.02L370.93,256.83L370.93,256.83
		L370.93,256.83L370.93,256.83z M381.33,237.6L381.33,237.6C381.34,237.6,381.33,237.6,381.33,237.6L381.33,237.6z M431.47,251.43
		c0-0.02-0.01-0.03-0.01-0.05l0,0l0.01,0.02c0,0,0-0.01-0.01-0.02c0,0,0,0,0.01,0v0.01v0.01l0.01-0.01l-0.01,0.01l0,0l-0.01-0.02
		C431.46,251.4,431.47,251.41,431.47,251.43c0-0.01,0,0.01,0,0.02C431.47,251.44,431.47,251.43,431.47,251.43z M425.17,257.66
		c-0.02-0.01-0.04-0.02-0.06-0.03c0.05-0.01,0.1-0.01,0.15-0.02C425.24,257.63,425.2,257.64,425.17,257.66z M412.8,247.99
		c-0.01-0.02-0.03-0.04-0.04-0.06c0.02,0,0.05-0.01,0.07-0.01C412.82,247.94,412.81,247.96,412.8,247.99z M374.55,267.2
		c0.1-0.05,0.19-0.09,0.3-0.16c-0.07,0.08-0.14,0.15-0.21,0.22C374.62,267.24,374.58,267.22,374.55,267.2z M355.48,277.69
		L355.48,277.69L355.48,277.69L355.48,277.69z M355.47,277.69L355.47,277.69c-0.01-0.01-0.02-0.02-0.03-0.03
		c0.01,0.01,0.02,0.01,0.02,0.02l0,0C355.47,277.68,355.47,277.69,355.47,277.69L355.47,277.69
		C355.48,277.7,355.48,277.7,355.47,277.69L355.47,277.69l0.01,0.01l0,0l0,0C355.48,277.71,355.48,277.7,355.47,277.69z
		 M301.61,306.08C301.61,306.08,301.62,306.08,301.61,306.08L301.61,306.08L301.61,306.08L301.61,306.08L301.61,306.08z
		 M306.24,305.68c-0.02-0.02-0.03-0.04-0.05-0.07c-0.01-0.05-0.02-0.09-0.03-0.14c0.04,0.07,0.07,0.13,0.11,0.2L306.24,305.68z
		 M298.54,304.1c-0.34-0.21-0.62-0.45-0.88-0.67c0.23-0.03,0.47-0.08,0.74-0.16C298.4,303.5,298.44,303.76,298.54,304.1z
		 M306.2,305.67L306.2,305.67c0.01,0.01,0.01,0.01,0.01,0.01l0.01-0.02v0.02C306.22,305.68,306.21,305.68,306.2,305.67
		c0,0.01,0-0.01,0-0.02C306.2,305.66,306.2,305.67,306.2,305.67z M301.62,306.09L301.62,306.09L301.62,306.09L301.62,306.09
		L301.62,306.09L301.62,306.09L301.62,306.09L301.62,306.09L301.62,306.09z M416.98,223.56L416.98,223.56L416.98,223.56
		c0.09-0.03,0.18-0.07,0.28-0.13C417.16,223.5,417.07,223.53,416.98,223.56z M401.72,224.03L401.72,224.03
		c0.02,0.07,0.04,0.14,0.07,0.21C401.76,224.18,401.74,224.11,401.72,224.03z M401.81,224.25
		C401.81,224.25,401.81,224.26,401.81,224.25C401.81,224.26,401.81,224.26,401.81,224.25c0,0.01,0,0.01-0.01,0.02l-0.02,0.01
		l0.02-0.02C401.81,224.26,401.81,224.26,401.81,224.25c-0.01,0-0.01,0-0.01,0H401.81L401.81,224.25z M401.8,224.28
		c0.01,0,0.01-0.01,0.01-0.01C401.81,224.27,401.81,224.28,401.8,224.28L401.8,224.28z M387.13,234.96
		c0.02,0.01,0.05,0.02,0.09,0.02C387.18,234.97,387.15,234.97,387.13,234.96C387.1,234.96,387.13,234.96,387.13,234.96z
		 M387.23,234.98L387.23,234.98c0,0,0.01,0,0.02,0C387.24,234.98,387.23,234.98,387.23,234.98z M349.62,231.81l0.01-0.01
		C349.63,231.8,349.62,231.8,349.62,231.81l0.02-0.02l-0.01,0.01h0.01v-0.02l0,0l0,0l0,0c0.02,0,0.03,0,0.05,0.01
		C349.67,231.79,349.64,231.8,349.62,231.81c0,0-0.02,0.01-0.03,0.01c0.01,0,0.02-0.01,0.02-0.01H349.62L349.62,231.81z
		 M357.68,234.84C357.69,234.84,357.69,234.84,357.68,234.84c0.01,0-0.02,0-0.03-0.01C357.67,234.84,357.68,234.84,357.68,234.84z
		 M348.89,239.79c5.23-0.8,10.52-1.27,15.72-2.23c5-0.93,10.13-0.8,15.08-2c1.18,0.09,2.34,0,3.48-0.21
		c0.66-0.12,1.32-0.27,1.98-0.47c0.63-0.19,1.44-0.64,1.84,0.12c0,0,0.02,0,0.03,0c-0.01,0-0.02,0-0.02,0
		c0.06,0.14,0.13,0.3,0.17,0.52c-0.84,0.26-1.67,0.52-2.51,0.78c-0.17,0.07-0.35,0.13-0.52,0.2c-0.84,0.33-1.68,0.66-2.53,0.98
		c-0.09,0.04-0.19,0.07-0.28,0.11l0,0c-0.16,0.09-0.32,0.16-0.48,0.23c-1.37,0.61-2.92,0.8-4.21,1.62
		c-0.12,0.07-0.23,0.14-0.34,0.22c-3.18,1.86-6.96,2.39-9.99,4.58c-0.15,0.06-0.3,0.13-0.45,0.19c-0.66,0.28-1.32,0.57-1.99,0.85
		c-0.17,0.07-0.34,0.14-0.5,0.21v-0.01c-0.12,0.07-0.25,0.13-0.38,0.19c-0.69,0.29-1.45,0.43-2.08,0.84
		c-0.13,0.09-0.27,0.18-0.39,0.3c-1.05,0.43-2.11,0.87-2.95,1.67c-0.13,0-0.24,0.02-0.36,0.04c-0.43,0.07-0.81,0.26-1.15,0.54
		c-0.07,0.06-0.15,0.12-0.22,0.19c-4.23,2.38-8.79,4.1-12.88,6.75c-0.08,0.02-0.16,0.05-0.23,0.08c-1.54,0.48-2.85,1.4-4.22,2.19
		c-0.08,0.05-0.16,0.1-0.25,0.14c-2.41,1.3-5.09,2.14-7.07,4.2c-0.46,0.48-1.35,0.55-2.04,0.81c-0.12,0-0.23,0.02-0.34,0.05
		c-0.74,0.23-0.93,1.14-1.67,1.51c-4.69,2.32-9.38,4.67-13.82,7.46c-0.32,0.2-0.64,0.39-0.95,0.6c-1.1,0.29-2.04,0.87-2.87,1.64
		c-0.12,0.06-0.25,0.12-0.37,0.19c-0.83,0.42-1.67,0.84-2.5,1.26c-0.16,0.08-0.33,0.17-0.49,0.25c-1.94,1.11-3.87,2.22-5.81,3.34
		c-0.07,0.04-0.15,0.08-0.22,0.11c-0.41,0.22-0.83,0.43-1.25,0.65c-0.06,0.03-0.13,0.06-0.19,0.1l0,0
		c-0.13,0.05-0.26,0.11-0.38,0.17c-1.58,0.71-2.89,1.93-4.61,2.36c-0.36,0-0.61,0.17-0.8,0.46c-1.11,0.08-1.74,1.05-2.65,1.5
		c-0.1,0.05-0.19,0.09-0.3,0.13c-3.65,1.93-7.3,3.85-10.95,5.78c-0.13-0.02-0.22,0.03-0.28,0.14c-1.16,0.84-2.44,1.45-3.73,2.05
		c-0.28,0.13-0.57,0.27-0.85,0.4c-3.31,2.74-7.58,3.92-10.89,6.66c-0.45,0.26-0.88,0.55-1.3,0.85c-1.85,1.33-3.47,2.98-5.37,4.25
		c-0.41,0.27-0.82,0.53-1.26,0.76l0,0c-0.03,0.02-0.06,0.04-0.09,0.05c-2.21,1.17-3.79,2.97-5.14,5.01
		c-0.07,0.11-0.15,0.22-0.22,0.34c-4.15,2.61-6.65,6.72-9.58,10.45c-0.21,0.33-0.43,0.66-0.65,0.99c-1.2,1.77-2.47,3.52-3.1,5.61
		c-0.04,0.14-0.1,0.28-0.13,0.42c-1.99,2.55-3.18,5.57-4.39,8.49c-1.28,3.1-3.14,5.62-5.48,7.9c-0.2,0.18-0.4,0.37-0.6,0.56
		c-0.57,0.52-1.14,1.05-1.72,1.57c-0.1,0.09-0.19,0.18-0.29,0.27c-0.4,0.42-0.81,0.83-1.21,1.25c-0.21,0.09-0.47,0.13-0.64,0.25
		c-0.03,0.02-0.07,0.05-0.09,0.08c-1.94,2.5-4.39,4.49-6.56,6.76c-0.17,0.18-0.35,0.36-0.51,0.54c-0.1,0.25,0.04,0.37,0.24,0.46
		c-0.04,0.1-0.08,0.19-0.13,0.29c-1,2.08-3.75,2.4-4.73,4.5c-0.02,0.04-0.05,0.09-0.07,0.13l0.03,0.05c-0.02,0.44-0.1,0.84-0.23,1.2
		c-0.08-0.38-0.04-0.77,0.23-1.2c-0.16,0.05-0.28,0.11-0.39,0.18c-0.48,0.33-0.48,0.89-0.41,1.45c0.06,0.48-0.08,0.96-0.45,1.06
		c-2.02,0.59-2.89,2.28-3.93,3.82c-0.12,0.17-0.23,0.34-0.35,0.51c-0.5,0.33-0.4,0.81-0.33,1.3c0.18,1.16,0.97,2.67-1.53,1.92
		c-1.02-0.31-1.3,1.12-1.88,1.8c-0.1,0.23-0.2,0.46-0.3,0.69c-0.34,0.78-0.67,1.56-1.02,2.34c-0.29,0.66-1.59,0.34-1.58,1.31
		c0,0.09,0,0.17,0.02,0.27c0.09-0.16,0.22-0.23,0.38-0.24c-0.13,0.08-0.25,0.17-0.38,0.24l0,0c-0.17,0.07-0.31,0.16-0.43,0.27
		c-0.46,0.39-0.63,0.99-0.75,1.53c-0.41,1.77-1.21,3.25-2.68,4.34c-0.66,1.29-1.31,2.59-1.97,3.88c0.01,0.28,0.03,0.56,0.04,0.83
		c-0.08,0.55-0.11,1.19-0.65,1.46c-1.81,0.93-2.23,2.68-2.7,4.41c0.13,0.03,0.26,0.06,0.38,0.09v0.01v-0.01
		c-0.12-0.03-0.24-0.06-0.38-0.1c-0.98,0.76-0.87,1.85-0.87,2.9c-0.44,0.39-0.87,0.78-1.3,1.17c-1.29,2.3-2.32,4.71-3.29,7.15
		c-1,1.68-1.67,3.49-2.17,5.37c-0.83,1.66-1.66,3.32-2.49,4.98c-0.39,0.21-0.33,0.58-0.35,0.93c-0.33,1.74-1.67,3.15-1.7,4.99
		c-1.5,3.4-2.83,6.86-3.74,10.47c-1.03,2.84-2.11,5.68-2.53,8.7c-0.04,0.12-0.08,0.25-0.12,0.37c-0.49,1.57-0.97,3.15-1.46,4.72
		c-0.53,4.72-2.66,9.1-2.94,13.87c-0.42,0.65-0.62,1.34-0.52,2.1c0.01,0.09,0.01,0.18,0.03,0.28c-0.25,0.91-0.5,1.81-0.81,2.93
		c-2.62-3.32-4.84-6.67-6.84-10.18c-1.96-3.45-4.03-6.84-6.06-10.26c-0.09-0.23-0.17-0.46-0.26-0.69c-0.38-1.01-0.75-2.02-1.13-3.04
		c-0.1-0.28-0.21-0.56-0.31-0.84c-0.71-1.94-1.43-3.89-2.14-5.83c-0.13-0.15-0.21-0.32-0.27-0.49c-0.2-0.6-0.03-1.27-0.07-1.91
		c-0.02-0.37-0.1-0.72-0.38-1.03c-0.86-3.82-0.98-7.73-1.37-11.61c0.04-0.66,0.12-1.33,0.1-1.98c0-0.24-0.03-0.48-0.07-0.72
		c-0.06-0.37-0.16-0.74-0.34-1.1c0.02-0.08,0.04-0.17,0.06-0.25c0.27-1.24,0.54-2.48,0.82-3.71c0.14-0.6-0.01-1.07-0.5-1.45
		c-0.22-1.94,0.87-3.61,1.18-5.43c0.22-0.26,0.15-0.54,0.04-0.81c0.55-1.84,0.94-3.71,1.22-5.6c0.22-1.46,0.39-2.93,0.5-4.42
		c0.61-1.79,0.51-3.67,0.77-5.51c0.22-0.53,0.4-1.07,0.55-1.62c0.37-1.37,0.55-2.79,0.88-4.17c0.07-0.28,0.14-0.55,0.22-0.83
		c0.59-0.7-0.05-1.15-0.34-1.66c0.02-0.12,0.06-0.23,0.09-0.34c0.6-2.45,2.17-4.56,2.46-7.12c0.69-1.22,1.25-2.48,1.51-3.83
		c0.1-0.52,0.16-1.06,0.17-1.61c0.96-1.38,0.59-3.24,1.65-4.58c0.02-0.17,0.06-0.34,0.09-0.51c0.37-1.78,1.44-3.32,1.92-5.06
		c0.03-0.1,0.06-0.19,0.08-0.29c-0.33-2.19,1.93-3.38,2.09-5.39l0,0c0.55-1.38,1.1-2.76,1.65-4.13c0.01-0.02,0.01-0.04,0.02-0.05
		l0,0c0.11-0.27,0.19-0.56,0.27-0.85c0.27-1.01,0.48-2.05,1.36-2.75c0.1-0.08,0.2-0.16,0.32-0.23c0.41-1.3,0.85-2.59,1.23-3.9
		c0.52-1.82,2.13-2.88,3.01-4.45c-0.03-0.21-0.06-0.42-0.08-0.63c0.08,0.17,0.11,0.37,0.08,0.63c0.13-0.12,0.21-0.24,0.27-0.38
		c0.37-0.8-0.21-1.84,0.57-2.66c0.49-0.52,1.53-0.4,1.69-1.24c0.02-0.08,0.03-0.17,0.03-0.27h-0.01c0.07-0.19,0.17-0.36,0.28-0.53
		c0.53-0.85,1.35-1.53,1.67-2.5c0.04-0.11,0.08-0.22,0.1-0.34c-0.01-0.27-0.01-0.54-0.02-0.81c0.04-0.06,0.08-0.11,0.11-0.16
		c0.46-0.67,0.92-1.33,1.37-2c0.08-0.11,0.16-0.23,0.24-0.34c1.97-1.14,2.51-3.4,3.91-5.01c1.19-1.38,2.44-2.75,3.59-4.19
		c0.15-0.19,0.3-0.37,0.45-0.55c0.99-1.22,2.03-2.41,3.14-3.52c0.46-0.46,0.94-0.91,1.43-1.35c0.95-0.87,2.16-1.45,2.88-2.58
		c0.11-0.17,0.23-0.33,0.35-0.49c0,0,0-0.01,0-0.02c0.95-1.29,2.07-2.35,3.83-2.57c0.06-0.01,0.11-0.07,0.16-0.14
		c0.09-0.14,0.17-0.34,0.26-0.48c1.26-0.98,2.52-1.96,3.78-2.93c0.2-0.14,0.4-0.27,0.6-0.41c1.62-1.1,3.25-2.21,4.87-3.31
		c1.37-1.61,2.72-3.24,4.77-3.88c0.35-0.11,0.72-0.2,1.12-0.25c0.13,0.03,0.23-0.01,0.31-0.12c0.05-0.01,0.09-0.03,0.14-0.04
		c0.44-0.12,0.78-0.37,1.02-0.77c1.15-0.7,2.29-1.41,3.44-2.12c0.94-1.41,2.36-1.92,3.82-2.38c0.43-0.14,0.86-0.27,1.29-0.41
		c1.8-1.71,4.23-2.42,6.17-3.88c0.17-0.02,0.33-0.06,0.49-0.1c1.35-0.39,2.19-1.7,3.4-2.34c0.35-0.19,0.74-0.32,1.17-0.36l0,0l0,0
		l0,0l0,0l0,0l0,0l0,0l0,0l0,0l0,0c0.06-0.06,0.13-0.12,0.2-0.18c1.17-1.13,2.5-2.13,3.99-2.65c0.87-0.3,1.86-0.25,2.65-0.72
		c0.25-0.15,0.48-0.35,0.68-0.63c1.02-0.06,1.77-0.61,2.43-1.32c0.11-0.06,0.22-0.13,0.33-0.19c2.29-1.35,4.58-2.69,6.87-4.04
		c0.14-0.08,0.29-0.17,0.43-0.25c0.12,0.01,0.23-0.01,0.33-0.08c0.06,0.02,0.11,0.02,0.17,0.03c0.97,0.2,1.63-0.27,2.16-0.98
		c0.07-0.09,0.13-0.18,0.2-0.28c0.13-0.01,0.26-0.03,0.38-0.05c0.66-0.11,1.26-0.39,1.85-0.68c0.37-0.18,0.74-0.37,1.12-0.52
		c0.79-0.16,1.52-0.22,2.12-1.02c0.76-1,1.95-1.51,3.27-1.52c0.09-0.12,0.19-0.22,0.29-0.32c0.96-0.93,2.31-0.93,3.51-1.28
		l0.02-0.02l0.01,0.01c0.27-0.14,0.54-0.27,0.81-0.41c0-0.02,0.01-0.03,0.01-0.05c0.01,0.01,0.01,0.02,0.02,0.02
		c0.62-0.75,1.69-0.32,2.38-0.88c-0.01-0.01-0.02-0.02-0.03-0.04c0.02,0.01,0.03,0.01,0.05,0.02h0.01c0.25-0.33,0.52-0.6,0.81-0.83
		c1.1-0.9,2.46-1.18,3.96-1.14c0.22,0.01,0.45-0.27,0.67-0.42c0,0,0.01-0.01,0.02-0.02l0.01,0.01c0.64-0.31,1.32-0.55,1.84-1.04
		c0.09-0.09,0.19-0.16,0.28-0.27c0.12,0.01,0.23-0.02,0.34-0.09c0.1-0.07,0.2-0.13,0.29-0.19c1.04-0.67,2.2-1.01,3.4-1.24
		c0.31-0.06,0.63-0.11,0.94-0.16c1.13-0.34,2.06-1.21,3.29-1.31c0.09-0.01,0.19-0.02,0.28-0.02c0.54-0.04,1.08-0.07,1.53-0.38
		c0.13-0.09,0.25-0.19,0.36-0.33c0.83-0.47,1.72-0.79,2.42-1.51c1.28-1.32,3.04-0.86,4.61-1.08c0.08-0.01,0.15-0.03,0.23-0.04
		c0.8-0.14,1.62-0.25,2.3-0.77c0.83-0.28,1.66-0.55,2.49-0.83c1.83-1.14,3.77-1.87,5.97-1.71c0.23,0.02,0.48-0.25,0.72-0.38
		c1.4-0.4,2.8-0.79,4.19-1.19c1.68-0.43,3.36-0.86,5.04-1.28c1.08,0.09,1.74-1.07,2.83-0.95c0.93-0.37,1.85-0.74,2.83-0.83
		c0.45-0.04,0.9-0.03,1.37,0.07c0.28-0.01,0.55-0.02,0.83-0.03c0.08,0,0.15,0,0.23,0c3.43,0.01,6.52-1.87,9.9-2.12
		c0.56-0.04,1.12-0.04,1.69,0.02c0.36,0.04,0.76-0.25,1.13-0.39C339.37,241.41,344.12,240.52,348.89,239.79z M257.75,522.34
		c-0.36-0.01-0.59-0.25-0.78-0.54C257.17,522.09,257.39,522.33,257.75,522.34z M256.46,520.97L256.46,520.97
		C256.46,520.97,256.47,520.97,256.46,520.97C256.47,520.97,256.46,520.97,256.46,520.97z M256.54,521.07L256.54,521.07
		L256.54,521.07C256.54,521.07,256.54,521.08,256.54,521.07c0.01,0.01,0.01,0.01,0.01,0.02l-0.01-0.01l0,0
		C256.54,521.08,256.54,521.08,256.54,521.07L256.54,521.07L256.54,521.07z M256.94,518.63c0-0.01,0-0.03,0-0.04
		c-0.03,0.01-0.07,0-0.11,0.01c0.04-0.02,0.07-0.04,0.11-0.07c0,0,0.01,0.02,0.01,0.03c0.05,0,0.1-0.01,0.16-0.02
		C257.06,518.57,257,518.6,256.94,518.63z M256.54,521.09C256.54,521.09,256.53,521.09,256.54,521.09L256.54,521.09L256.54,521.09
		c0,0,0.01,0.01,0.02,0.01C256.55,521.1,256.55,521.09,256.54,521.09c-0.09,0.68,0.07,1.14,0.44,1.41
		C256.61,522.23,256.45,521.77,256.54,521.09z M258.18,533.23c1.31,0.89,2.24,2.27,3.76,2.88c0.01,0.1,0.02,0.2,0.02,0.29
		c0,0.03,0.01,0.07,0.01,0.1c0.01,0,0.02,0.01,0.03,0.01c0.06,0.01,0.11,0.02,0.17,0.03c0.71,0.16,1.4,0.5,1.31,1.25
		c-0.08,0.69-0.62,0.4-1.09,0.31c-0.14-0.02-0.28-0.03-0.39,0.01c-0.19-0.23-0.38-0.47-0.57-0.7c-6.34-2.68-12.69-5.37-19.03-8.05
		c-0.15-0.08-0.3-0.16-0.45-0.24c-0.75-0.41-1.51-0.81-2.26-1.22c-0.1-0.05-0.19-0.1-0.28-0.15c-0.27-0.15-0.55-0.29-0.82-0.44
		c-0.32-0.14-0.64-0.27-0.95-0.41c-1.22-0.52-2.45-1.03-3.64-1.62c0.03,0.05,0.05,0.09,0.08,0.14c0.12,0.21,0.24,0.41,0.36,0.58
		c-0.12-0.05-0.25-0.1-0.37-0.16c-0.04-0.13-0.06-0.27-0.06-0.42c0-0.05-0.01-0.09-0.01-0.15c-1.18-0.59-2.32-1.26-3.35-2.13
		c-3.26-1.69-6.58-3.25-9.62-5.33c-0.11-0.08-0.22-0.15-0.33-0.22c-3.54-2.46-7.11-4.88-10.84-7.06c-0.05-0.02-0.09-0.04-0.14-0.06
		c-1.28-0.52-2.44-1.22-3.28-2.36c-2.22-1.57-4.45-3.13-6.67-4.7c-0.14-0.1-0.28-0.2-0.43-0.3c-2.07-1.38-3.99-2.95-5.83-4.61
		c-0.03-0.06-0.07-0.1-0.11-0.15c-0.14-0.16-0.31-0.25-0.52-0.29c-0.06-0.01-0.12-0.02-0.18-0.03c-4.35-4.01-8.76-7.98-12.72-12.39
		c-0.58-0.65-0.47-1.32-0.38-2.12c0.32-3.09,1.17-6.11,1.01-9.25c0.07-0.17,0.13-0.34,0.19-0.51c0.72-2.04,0.73-4.22,1.11-6.33
		c0.53-2.98,0.42-6.04,1.18-8.99c0.16-0.62,1.06-0.92,0.74-1.77c-0.7-1.83,0.31-3.34,0.92-4.93c-0.22-0.14-0.4-0.19-0.55-0.18v-0.01
		c0.15,0,0.33,0.04,0.55,0.19c0.02-0.25,0.04-0.51,0.06-0.76c0.4-0.14,0.84-0.34,0.81-0.81c-0.11-2.36,1.34-4.41,1.26-6.75
		c1.56-0.81,0.5-2.77,1.65-3.76c0.59-2.87,2.28-5.42,2.4-8.42c0.55-1.19,0.92-2.43,0.89-3.76c1.55-1.96,2.77-4.08,2.56-6.67
		c-0.06-0.76,0.21-1.27,0.64-1.6c1.38-1.08,1.79-2.64,2.31-4.17c2.35-5.01,4.71-10.02,7.06-15.04c0.27-1.61,1.7-2.64,2.15-4.16
		c0.63-0.58,0.44-1.61,1.18-2.12c0.57-1.09,1.15-2.18,1.72-3.27c0.07-0.14,0.15-0.28,0.22-0.43c0.08-0.15,0.15-0.29,0.23-0.44
		c0.59-0.88,1.18-1.76,2.11-3.15c-0.39,3.06-0.71,5.53-1.03,8c-0.28,0.8-0.39,1.63-0.46,2.46c-0.08,0.9-0.11,1.8-0.24,2.69
		c-0.32,2.2-0.76,4.39-0.92,6.6c-0.1,1.4-0.7,2.83-0.02,4.25c-0.57,1.12-0.49,2.28-0.13,3.43c0.36,1.13,0.27,2.17-0.39,3.16
		c-0.67,0.55,0.03,0.9,0.2,1.33c0,1.96,0.01,3.92,0.01,5.87c-0.81,2.31-0.51,4.69-0.38,7.05c0.89,1.34-0.13,2.8,0.28,4.17l0,0
		c-0.95,1.36-0.24,2.76-0.08,4.14c-0.85,1.03,0.18,2,0.1,3c-0.39,2.48,0.46,4.83,0.78,7.23c0.34,2.47,0.5,4.94,1.03,7.42
		c0.77,3.61,1.94,7,3.25,10.4c-0.1,0.84,0.41,1.44,0.85,2.06c1.93,3.78,3.85,7.56,5.78,11.34c0.84,1.47,1.63,2.98,2.54,4.4
		c1.04,1.63,1.61,3.59,3.32,4.75c0.58,0.88,0,2.11,0.85,2.92c0.38,0.35,0.18,1.07,0.82,1.25c1.27,2.48,2.53,4.96,3.8,7.44
		c0.93,0.86,1.51,1.94,2.09,3.05c1.25,2.38,2.79,4.58,4.55,6.63c0.81,1,1.62,2,2.43,3c2.03,2,3.63,4.4,5.83,6.24
		c0.89,1.42,1.95,2.68,3.17,3.82c0.24,0.22,0.47,0.45,0.72,0.66C253.2,527.89,255.69,530.56,258.18,533.23z M199.06,507.38
		c0.62-1.29,0.7-1.79-0.12-2.02c0.82,0.23,0.75,0.72,0.13,2.02C199.08,507.38,199.07,507.38,199.06,507.38z M206.11,508.49
		c-0.01,0-0.01-0.01-0.01-0.01c-0.07,0.08-0.14,0.18-0.2,0.27c0.06-0.1,0.12-0.19,0.19-0.28
		C206.1,508.48,206.11,508.49,206.11,508.49z M170.63,443.41C170.64,443.41,170.64,443.41,170.63,443.41
		c0.05-0.11,0.08-0.23,0.11-0.35c-0.03,0.12-0.06,0.24-0.09,0.36C170.65,443.42,170.64,443.41,170.63,443.41z M226.97,414.41v0.01
		C226.97,414.42,226.97,414.42,226.97,414.41c0.07-0.42,0.11-0.83,0.13-1.25C227.09,413.58,227.05,414,226.97,414.41z
		 M172.46,441.62c0.05,0.03,0.1,0.06,0.15,0.08c0.01,0.01,0.03,0.02,0.04,0.02c-0.02,0-0.04,0-0.05-0.01c0-0.01,0.01-0.01,0.01-0.01
		C172.56,441.67,172.51,441.64,172.46,441.62z M177.06,443.84c-0.06,0.05-0.11,0.09-0.16,0.14c0-0.01-0.01-0.02-0.02-0.04
		C176.94,443.9,176.99,443.87,177.06,443.84z M175.97,464.73C175.98,464.72,175.97,464.72,175.97,464.73
		C175.97,464.72,175.97,464.72,175.97,464.73C175.97,464.72,175.98,464.72,175.97,464.73C175.98,464.73,175.97,464.73,175.97,464.73
		z M175.97,464.71c0.07-0.1,0.15-0.18,0.22-0.24l0,0C176.12,464.54,176.04,464.62,175.97,464.71
		C175.97,464.71,175.97,464.72,175.97,464.71c0,0-0.01,0-0.01-0.01C175.96,464.71,175.97,464.71,175.97,464.71z M179.23,462.02
		L179.23,462.02c-0.16-0.01-0.32,0.02-0.47,0.05C178.91,462.04,179.07,462.02,179.23,462.02z M174.17,453.62
		c-0.1,0.1-0.19,0.2-0.26,0.31C173.9,453.78,173.97,453.67,174.17,453.62z M177.83,465.79
		C177.83,465.78,177.83,465.78,177.83,465.79C177.83,465.78,177.83,465.78,177.83,465.79C177.83,465.78,177.83,465.79,177.83,465.79
		z M174.69,443.03C174.69,443.03,174.7,443.04,174.69,443.03c0.03,0.01,0.05,0.01,0.07,0.01c-0.02,0-0.04,0-0.06,0
		C174.7,443.04,174.69,443.03,174.69,443.03z M192.58,418.4c0.05,0,0.08-0.02,0.13-0.03c-0.03,0.13-0.06,0.26-0.09,0.39
		c-0.04-0.12-0.07-0.25-0.11-0.37C192.53,418.39,192.55,418.4,192.58,418.4z M191.26,398.12c-0.03-0.4-0.06-0.73-0.1-1
		c0.16,0.17,0.26,0.37,0.22,0.64C191.36,397.94,191.31,398.05,191.26,398.12z M167.49,459.53c0.01-0.08,0.03-0.14,0.04-0.22
		c0.02,0.04,0.06,0.07,0.08,0.1C167.57,459.44,167.53,459.48,167.49,459.53z M218.13,362.87c0,0,0.01-0.01,0.01-0.02
		C218.14,362.86,218.14,362.87,218.13,362.87c0.01,0,0.02,0.01,0.02,0.01C218.15,362.88,218.14,362.88,218.13,362.87
		C218.14,362.87,218.13,362.87,218.13,362.87L218.13,362.87z M218.12,362.85v0.01C218.12,362.86,218.12,362.85,218.12,362.85
		l0.01,0.01v0.01l0,0C218.12,362.86,218.12,362.85,218.12,362.85c-1.29-0.67-2.17-0.21-2.91,0.64
		C215.95,362.64,216.83,362.17,218.12,362.85z M214.01,365.63c0.05,0.03,0.11,0.06,0.18,0.08c-0.07,0.06-0.14,0.13-0.21,0.21
		C213.98,365.81,214,365.72,214.01,365.63z M216.2,424.3c0,0,0.01,0,0.02,0C216.21,424.29,216.21,424.3,216.2,424.3
		c-0.02,0.09-0.06,0.19-0.15,0.28C216.14,424.48,216.19,424.39,216.2,424.3z M217.99,430.92c0,0,0.11-0.56-0.01-0.75
		C218.09,430.36,218,430.92,217.99,430.92c-1.96,0.05-2.33,2.18-3.74,2.85C215.66,433.11,216.03,430.98,217.99,430.92z
		 M223.33,451.45c0.01-0.07,0.02-0.14,0.03-0.21c0.03,0.07,0.05,0.12,0.08,0.18C223.41,451.42,223.37,451.44,223.33,451.45z
		 M212.29,445.52L212.29,445.52L212.29,445.52C212.29,445.52,212.29,445.53,212.29,445.52
		C212.29,445.53,212.29,445.52,212.29,445.52S212.29,445.53,212.29,445.52L212.29,445.52z M222.11,430.42
		c-0.01,0.22,0,0.45,0.02,0.68C221.88,430.84,221.93,430.61,222.11,430.42z M209.14,372.38c-0.04,0.02-0.08,0.05-0.12,0.07
		l-0.01-0.01C209.05,372.42,209.1,372.4,209.14,372.38z M208.96,372.46l0.01,0.01h-0.01V372.46z M210.79,430.15
		c-0.05,0.25-0.11,0.5-0.16,0.75h0.01l-0.01,0.01l-0.01,0.01l0.01,0.01h-0.01h0.01v-0.01l0.01-0.01l0.01-0.01c0,0-0.02,0-0.03,0
		c0,0.01,0.01,0.02,0.01,0.02l0,0c-0.02,0-0.03,0-0.05,0C210.62,430.66,210.7,430.4,210.79,430.15z M238.9,491.78
		c-0.01,0.01-0.01,0.01-0.02,0.02c-0.01-0.01-0.02-0.02-0.03-0.03C238.87,491.77,238.88,491.78,238.9,491.78z M226.18,396.23
		c-0.01-0.16,0.04-0.25,0.14-0.29C226.27,396.04,226.23,396.13,226.18,396.23z M226.52,358.33L226.52,358.33L226.52,358.33
		L226.52,358.33z M249.8,521.23c0,0,0.02-0.01,0.03-0.01C249.82,521.22,249.81,521.23,249.8,521.23c0.03,0.08,0.07,0.16,0.11,0.23
		C249.87,521.38,249.84,521.3,249.8,521.23z M177.13,423.06L177.13,423.06c-0.01,0.03-0.02,0.06-0.03,0.09
		C177.11,423.12,177.12,423.09,177.13,423.06z M174.31,521.54L174.31,521.54c-0.14,0.12-0.3,0.21-0.46,0.3
		C174.01,521.75,174.17,521.65,174.31,521.54z M227.32,414.64c-0.15-0.03-0.28-0.04-0.4-0.04
		C227.04,414.6,227.18,414.61,227.32,414.64L227.32,414.64L227.32,414.64L227.32,414.64z M224.66,280.35c0-0.01,0-0.01,0-0.01v-0.01
		C224.66,280.34,224.66,280.35,224.66,280.35z M246.93,261.83v0.01c0,0,0.01,0,0.02-0.01c-0.01,0.01-0.01,0.01-0.02,0.02V261.83z
		 M206.3,287.71c0.01-0.12,0.01-0.22,0.02-0.33c0.07,0.08,0.13,0.16,0.2,0.22C206.44,287.62,206.37,287.66,206.3,287.71z
		 M185.32,306.8c0.01-0.02,0.02-0.04,0.03-0.06c0,0.02,0.01,0.04,0.01,0.07C185.35,306.8,185.33,306.8,185.32,306.8z M149.71,358.27
		c-0.04,0.1-0.07,0.18-0.1,0.27c-0.03-0.05-0.06-0.1-0.09-0.15C149.58,358.35,149.64,358.31,149.71,358.27z M148.98,374.97
		L148.98,374.97c0,0-0.01,0-0.01-0.01C148.97,374.97,148.98,374.97,148.98,374.97z M135.55,420.49c0,0.03,0.02,0.06,0.03,0.09
		C135.57,420.55,135.55,420.52,135.55,420.49C135.54,420.48,135.54,420.49,135.55,420.49z M146.54,405.72c0.05-0.34,0.11-0.67,0.2-1
		C146.65,405.04,146.59,405.38,146.54,405.72C146.54,405.71,146.54,405.72,146.54,405.72L146.54,405.72z M153.41,359.1L153.41,359.1
		L153.41,359.1c0.01,0,0.02-0.01,0.03-0.01c0,0.01,0,0.02,0,0.02v0.01l0,0h-0.01C153.43,359.12,153.41,359.11,153.41,359.1z
		 M158.01,339.9L158.01,339.9c0,0.01,0,0.01-0.01,0.01C158.01,339.9,158.01,339.9,158.01,339.9L158.01,339.9z M158.01,339.91
		c0.01,0.01,0.01,0,0.02,0C158.02,339.91,158.01,339.92,158.01,339.91C158,339.92,158,339.91,158.01,339.91z M130.25,414.08
		c-0.03-0.01-0.06-0.03-0.09-0.04c0.04-0.02,0.07-0.03,0.11-0.05C130.26,414.03,130.25,414.06,130.25,414.08z M135.47,420.46
		c0.01-0.01,0.01-0.03,0.02-0.04v-0.01c-0.39-0.89-0.84-1.75-1.46-2.53c0.62,0.77,1.06,1.63,1.46,2.52c0,0.01,0.01,0.02,0.01,0.02
		l-0.01-0.01C135.49,420.43,135.48,420.44,135.47,420.46c0,0-0.01,0.02-0.01,0.03c0.01,0,0.02,0,0.02,0l0.01-0.02v0.03
		c0,0-0.02,0-0.03,0C135.47,420.47,135.47,420.47,135.47,420.46c-2.04-0.04-3.55-1.29-5.08-2.36
		C131.93,419.17,133.43,420.42,135.47,420.46z M145.53,416.68L145.53,416.68C145.54,416.68,145.53,416.68,145.53,416.68
		L145.53,416.68z M294.12,251L294.12,251h-0.03c0,0,0,0,0-0.01L294.12,251L294.12,251C294.12,251,294.13,251,294.12,251
		C294.13,251,294.12,251,294.12,251z M294.12,251C294.12,251,294.12,250.99,294.12,251l-0.02-0.02c0,0,0,0-0.01,0l0,0
		c-0.44-0.47-0.24-1.03-0.18-1.57c-0.05,0.54-0.26,1.1,0.18,1.57L294.12,251z M294.16,250.96L294.16,250.96c0-0.01,0-0.01,0.01-0.02
		C294.17,250.95,294.16,250.96,294.16,250.96z M314.42,236.26c-0.01,0.03-0.02,0.05-0.04,0.08c-0.01-0.02-0.02-0.03-0.03-0.04
		C314.37,236.29,314.4,236.28,314.42,236.26z M327.29,242.56c0.08,0.04,0.17,0.08,0.26,0.11c-0.09,0.1-0.18,0.19-0.28,0.3
		C327.3,242.81,327.29,242.69,327.29,242.56z M322.54,230.89c-0.01,0.01-0.02,0.04-0.03,0.06c-0.02-0.03-0.04-0.05-0.06-0.09
		C322.48,230.87,322.51,230.88,322.54,230.89z M298.83,235.27c0,0,0.01,0.02,0.01,0.03C298.84,235.28,298.83,235.28,298.83,235.27
		L298.83,235.27L298.83,235.27z M194.36,288.16c-0.01,0-0.02,0.01-0.03,0.01c0-0.01,0-0.02,0-0.02
		C194.34,288.16,194.35,288.16,194.36,288.16z M182.68,297.15c-0.11,0.34-0.29,0.42-0.52,0.36
		C182.34,297.4,182.52,297.28,182.68,297.15z M155.04,325.23L155.04,325.23C155.05,325.23,155.05,325.23,155.04,325.23
		L155.04,325.23L155.04,325.23L155.04,325.23C155.05,325.23,155.05,325.23,155.04,325.23L155.04,325.23z M136.34,377.25l0.01,0.01
		C136.34,377.25,136.34,377.25,136.34,377.25c-0.15-0.35-1.1,0.24-1.04-0.5C135.24,377.48,136.19,376.89,136.34,377.25z
		 M190.99,537.78c0,0,0,0.01-0.01,0.01c-0.01-0.01-0.01-0.02-0.02-0.03h0.01c0-0.04-0.01-0.09-0.01-0.13
		c0.03,0.05,0.07,0.1,0.11,0.14C191.04,537.78,191.02,537.78,190.99,537.78z M215.88,561.5c0.02-0.03,0.04-0.05,0.06-0.08
		c0.01,0.03,0.02,0.05,0.03,0.08C215.94,561.5,215.91,561.5,215.88,561.5z M275.64,584.27c-0.43,0.79-1.08,0.59-1.71,0.37
		c-0.1-0.03-0.19-0.07-0.29-0.1c-0.45-1.21,0.72-1.22,1.25-1.71c0.15,0.09,0.3,0.18,0.44,0.28
		C275.7,583.38,275.93,583.73,275.64,584.27z M281.15,585.78C281.15,585.79,281.15,585.78,281.15,585.78L281.15,585.78v-0.01
		c0.01,0,0.01,0.01,0.02,0.01c0.01,0,0.01-0.01,0.01-0.01l0,0c0,0,0,0-0.01,0L281.15,585.78
		C281.16,585.78,281.15,585.79,281.15,585.78c0,0.01,0,0.01,0,0.01l0.01-0.01l0,0c0,0,0.01,0,0.01,0.01h0.01l0,0l0.01,0.02
		c-0.01-0.01-0.02-0.01-0.03-0.02c0,0,0,0,0.01,0h-0.01h-0.01l-0.01,0.01C281.15,585.8,281.15,585.79,281.15,585.78
		C281.15,585.79,281.15,585.78,281.15,585.78z M281.18,585.79c0,0-0.01-0.01-0.01-0.02C281.18,585.78,281.18,585.78,281.18,585.79
		c0.74-0.26,1.44-1.21,2.43-0.01C282.63,584.58,281.93,585.53,281.18,585.79z M278.21,586.66L278.21,586.66L278.21,586.66
		L278.21,586.66z M289.35,575.06c-2-0.46-3.89-1.46-6.01-1.43c-0.35-0.13-0.7-0.26-1.06-0.38c-1.27-0.44-2.57-0.78-3.94-0.8
		c-0.04,0-0.07,0-0.11,0c-2.86-0.94-5.7-1.97-8.66-2.59c-0.22-0.12-0.44-0.22-0.67-0.29c-0.49-0.19-0.99-0.35-1.5-0.48
		c-1.44-0.37-2.93-0.59-4.32-1.14c-0.1-0.04-0.2-0.07-0.3-0.11c-5.32-1.77-10.62-3.57-15.95-5.29c-6.56-2.13-12.85-4.99-19.5-6.85
		c-0.24-0.18-0.5-0.33-0.75-0.49c-1.35-0.85-2.82-1.44-4.34-1.9c-0.11-0.05-0.22-0.08-0.33-0.1c-1.62-1.15-3.53-1.62-5.32-2.38
		c-0.05-0.02-0.1-0.04-0.15-0.06c-3.59-2.4-7.18-4.8-10.77-7.21c-0.12-0.04-0.24-0.1-0.34-0.16c-0.63-0.39-0.95-1.12-1.5-1.61
		c-0.1-0.09-0.2-0.17-0.32-0.23c-0.4-0.29-0.81-0.58-1.22-0.87c-0.15-0.25-0.33-0.45-0.54-0.64c-0.75-0.71-1.77-1.14-2.42-1.96
		c-0.17-0.21-0.31-0.43-0.41-0.71c-0.4,1.12-0.53,2.03-0.14,2.57l0.01,0.01h-0.01v-0.01c-0.39-0.54-0.26-1.45,0.14-2.57
		c-0.54-0.57-1.08-1.14-1.62-1.71c-0.04-0.04-0.08-0.09-0.12-0.13c-0.76-0.86-1.51-1.73-2.27-2.59c-0.18-0.21-0.37-0.42-0.55-0.63
		c-2.65-3.29-4.84-6.88-7.03-10.47c-0.03-0.07-0.06-0.13-0.1-0.2c-0.25-0.53-0.5-1.07-0.75-1.6c-0.17-0.35-0.33-0.7-0.49-1.05
		c-1.27-3.05-2.54-6.1-3.81-9.15c-0.03-0.08-0.05-0.16-0.07-0.25c-0.16-0.65-0.11-1.35-0.27-2c-0.07-0.27-0.18-0.54-0.37-0.79
		c0.01-0.12-0.02-0.22-0.1-0.31c0.01-0.06,0-0.12,0-0.18c0.01-0.73-0.38-1.46-0.23-2.19c0.03-0.16,0.08-0.31,0.17-0.47
		c3.06,2.27,6.02,4.71,9.24,6.75c1.44,0.91,3.11,1.2,4.01,3.01c0.46,0.93,1.97,0.71,3.07,0.62c0.04,0.18,0.1,0.34,0.16,0.5
		c0.96,2.54,3.96,2.74,5.71,4.39c0.3,0.28,1.16,0.28,1.55,0.9c0.07,0.12,0.13,0.25,0.16,0.41c0.68,0.43,1.36,0.87,2.04,1.3
		c0.17,0.2,0.36,0.36,0.56,0.51c0.81,0.59,1.85,0.83,2.62,1.48c0.05,0.04,0.11,0.08,0.15,0.13c2.92,1.66,5.83,3.32,8.75,4.99
		c0.05,0.16,0.13,0.27,0.22,0.37c0.35,0.38,0.94,0.4,1.32,0.4c1.71,0.02,2.2,2.22,3.94,2.05c1.2-0.07,1.42,1.26,2.3,1.65
		c0.07,0.03,0.13,0.07,0.21,0.09c0.58,0.6,1.43-0.06,2.04,0.45c0.05,0.27,0.16,0.51,0.31,0.71c0.22,0.31,0.53,0.52,0.91,0.52
		c1.47,0.02,2.38,0.88,3.36,1.79c0.54,0.5,1.23,0.91,2.01,1.05c0.06,0.01,0.11,0.03,0.17,0.04l-0.01,0.02
		c0.11,0.05,0.22,0.11,0.32,0.16c1.02,0.52,1.95,1.2,3.01,1.63c0.27,0.11,0.55,0.21,0.84,0.28c3.33,2.07,7.23,2.87,10.65,4.66
		c2.79,1.46,5.7,2.52,8.58,3.69c0.15,0.17,0.33,0.3,0.51,0.42c0.42,0.27,0.9,0.42,1.38,0.56c0.02,0.01,0.04,0.01,0.06,0.02
		c2.39,0.8,4.68,1.88,7.16,2.39c0.16,0.11,0.33,0.19,0.49,0.29c1.86,1.08,3.97,1.49,5.99,2.12c0.5,0.16,0.99,0.32,1.47,0.52
		c5.36,0.92,9.21,4.57,13.52,7.43c7.75,5.14,15.99,9.43,24.39,13.41c5.9,2.8,12.02,5.03,18.18,7.18c0.26,0.09,0.51,0.2,0.75,0.32
		l0,0c0.38,0.19,0.75,0.41,1.1,0.71c-1.01-0.14-2.03-0.24-3.03-0.41C317.4,580.64,303.3,578.27,289.35,575.06z M395.11,588.32
		c-4.76-1.05-9.53-2.07-14.28-3.16c-7.68-1.76-15.31-3.72-22.84-6.06c-1.25-0.39-2.48-0.85-3.72-1.28c0.27-0.13,0.53-0.27,0.8-0.4
		c-0.17-0.06-0.34-0.11-0.51-0.17c0.14,0,0.32,0.07,0.51,0.17c8.8,2.11,17.64,4.07,26.4,6.4c4.84,1.29,9.61,2.82,14.44,4.1
		C395.64,588.05,395.38,588.18,395.11,588.32c0.18,0.06,0.35,0.11,0.52,0.16C395.5,588.49,395.31,588.41,395.11,588.32z
		 M530.38,587.42c-0.56-0.07-1.11-0.09-1.65-0.06c-0.15,0.01-0.29,0.02-0.43,0.03c-0.58,0.07-1.16,0.2-1.72,0.43
		c-9.55,0.28-19.09,0.93-28.62,1.6c-9.34,0.65-18.7,1.44-28.05,1.4c-7.76-0.03-15.43-1.84-23.09-3.17
		c-9.99-1.74-19.9-3.84-29.75-6.26c-3.8-0.94-7.62-1.84-11.43-2.76c-0.54-0.22-1.09-0.43-1.63-0.64c-1.51-0.58-3.04-1.08-4.64-1.33
		c-0.42-0.07-0.84-0.12-1.27-0.14c-1.56-1.41-3.7-1.42-5.53-1.92c-4.03-1.09-7.94-2.63-12.05-3.43c-0.25-0.18-0.51-0.28-0.78-0.35
		c-0.83-0.22-1.74-0.11-2.56-0.38c-0.13-0.04-0.26-0.09-0.39-0.16c-0.83-0.28-1.65-0.56-2.48-0.84c-0.29-0.19-0.6-0.28-0.92-0.33
		c-0.88-0.14-1.84,0.06-2.69-0.22c-0.19-0.06-0.38-0.14-0.56-0.27c-5.86-1.86-11.78-3.43-17.89-4.2c-0.48-0.28-0.97-0.5-1.48-0.68
		c-1.56-0.55-3.24-0.74-4.82-1.2c-1.93-0.56-3.92-0.9-5.89-1.31c-0.15-0.03-0.29-0.06-0.44-0.09c-2.33-0.57-4.67-1.15-7-1.72
		c-0.15-0.06-0.3-0.12-0.45-0.18c-1.39-0.56-2.82-0.99-4.27-1.38c-1.92-0.51-3.93-0.71-5.73-1.62c-0.04-0.02-0.08-0.04-0.12-0.06
		v-0.02c-0.13-0.08-0.27-0.15-0.4-0.22c-1.16-0.59-2.42-0.81-3.7-0.98c-0.16-0.02-0.32-0.04-0.47-0.06c-8.4-3-17-5.33-25.53-7.89
		c-1.59-0.48-2.83-1.34-4.01-2.47c-5.4-5.19-10.61-10.57-16.03-15.73c-1.77-1.68-3.33-3.69-4.96-5.56
		c-1.19-1.36-2.48-2.59-3.81-3.78c-0.02-0.04-0.05-0.07-0.07-0.11c-0.28-0.42-0.56-0.84-0.84-1.26c-0.08-0.12-0.16-0.25-0.24-0.37
		c-0.71-0.82-1.43-1.64-2.14-2.47c-0.02-0.05-0.05-0.09-0.07-0.13c-0.62-1.38-2.13-1.83-3.11-2.86c-0.64-0.67-0.46-1.85-1.26-2.33
		c-0.13-0.08-0.29-0.15-0.49-0.18c-1.36-0.87-1.42-2.67-2.6-3.67c-0.01-0.07-0.02-0.13-0.03-0.19c-0.15-0.83-0.76-1.38-1.24-2.01
		c-0.1-0.13-0.2-0.27-0.28-0.41c-0.46-1.02-0.98-2.01-1.73-2.85c-0.01-0.04-0.03-0.08-0.05-0.12c-1.2-3.4-3.52-6.23-4.94-9.52
		c-0.17-0.25-0.34-0.5-0.51-0.75c-0.91-0.81-1.15-1.96-1.53-3.03c-0.16-0.26-0.33-0.51-0.49-0.76c-0.31-1.57-1.32-2.79-2.12-4.11
		c-0.29-0.27-0.69-0.49-0.87-0.82c-1.65-3-3.08-6.13-4.62-9.17c-1.45-2.87-2.73-5.9-4.1-8.86c-0.44-1.67-1.32-3.26-0.74-5.1
		c0.18-0.56-0.23-1.04-0.84-1.22l-0.02,0.04c-0.26-0.24-0.31-0.51-0.28-0.78c0.05,0.27,0.13,0.53,0.28,0.78
		c0.1-1.22,0.58-2.41,0.05-3.67c-0.81-1.93-0.69-4-0.63-6.04c0.03-0.97,0.18-1.94-0.23-2.86c0.12-0.4-0.06-0.64-0.4-0.81
		c0.19-3.04-0.49-6.07-0.11-9.11c-0.1-0.04-0.2-0.07-0.31-0.1c0-0.01,0-0.01,0-0.01l-0.01-0.01c0,0,0,0,0,0.01
		c-0.06,0-0.11,0.02-0.17,0.06c0.06-0.04,0.11-0.05,0.17-0.06h0.01c-0.02-0.62-0.04-1.25-0.06-1.87c-0.02-0.6-0.04-1.19-0.06-1.79
		c-0.07-0.02-0.13-0.07-0.18-0.12c0.09-0.06,0.19-0.13,0.29-0.2c0.04-0.13,0.08-0.27,0.11-0.4c0.19-0.83,0.19-1.67,0.12-2.51
		c-0.16-1.7-0.6-3.39-0.26-5.09c0.03-0.14,0.04-0.29,0.05-0.44c0.02-0.32,0.04-0.64,0.31-0.89c0.45-0.8,0.62-1.61,0.52-2.57
		c-0.14-1.34-0.04-2.71-0.05-4.07l0,0c0.2-1.95,0.74-3.9,0.01-5.85c0.82-0.84-0.2-1.9,0.28-2.77c0.03-0.06,0.04-0.11,0.09-0.16
		c0.16-0.42-0.1-0.98,0.44-1.27c0.2-0.04,0.31-0.14,0.38-0.27c0.09-0.16,0.1-0.35,0.06-0.52c-0.37-1.66-0.26-3.23,0.45-4.72
		c0.12-0.24,0.25-0.48,0.4-0.72c1.01-0.87-1.2-1.68-0.04-2.55c0.14-0.15,0.31-0.36,0.22-0.54c-0.01-0.01-0.01-0.02-0.02-0.03
		c0.04-0.14,0.07-0.29,0.09-0.44c0.16-1.17-0.13-2.43,0.3-3.56c0.08-0.22,0.2-0.44,0.35-0.65c0.01-0.02,0.02-0.04,0.04-0.07
		c0.1-0.15,0.18-0.3,0.26-0.46c0.79-1.55,0.74-3.27,0.86-4.96c0-0.04,0-0.09,0.01-0.13c0.43-1.79,0.86-3.59,1.29-5.38
		c0.1-0.29,0.22-0.57,0.34-0.86c0.45-1.04,0.94-2.08,0.71-3.25c-0.04-0.19-0.09-0.39-0.17-0.59l0,0c0.04-0.07,0.07-0.15,0.11-0.22
		c0.64-1.33,1.28-2.66,1.92-3.99c0.12-0.25,0.24-0.5,0.36-0.75c1.28-3.08,2.03-6.38,3.97-9.18c0.5-0.72,0.75-1.63,1.11-2.45
		c-0.05-0.23-0.06-0.44-0.06-0.65c0.05,0.2,0.08,0.42,0.06,0.65c0.07-0.3,0.18-0.57,0.29-0.85c0.45-1.17,1.17-2.18,1.98-3.15
		c0.11-0.13,0.18-0.28,0.25-0.43c0.14-0.33,0.23-0.7,0.36-1.04c0.14-0.28,0.28-0.55,0.42-0.83c0.11-0.28,0.27-0.54,0.44-0.79
		c0.28-0.4,0.57-0.79,0.74-1.25c0.05-0.14,0.1-0.29,0.12-0.45c2.2-4.82,6.81-7.1,10.73-10.06c4.95-3.73,10.05-7.27,15.08-10.89
		c0.16-0.03,0.3-0.09,0.45-0.14c0.82-0.25,1.52-0.67,2.09-1.29c0.16-0.18,0.32-0.35,0.46-0.56l0,0c0.03-0.01,0.05-0.02,0.08-0.02
		c0.7-0.17,1.35-0.41,1.87-0.88c0.15-0.13,0.29-0.27,0.41-0.44c1.08-0.79,2.45-1.11,3.41-2.09c0.08-0.03,0.15-0.08,0.23-0.12
		c1.49-0.71,2.59-2.05,4.05-2.8c0.34-0.18,0.7-0.33,1.09-0.42c0.99-0.69,1.99-1.38,2.99-2.07c0.11-0.04,0.23-0.08,0.34-0.12
		c0.76-0.26,1.53-0.51,2.17-1.01c0.18-0.13,0.35-0.28,0.5-0.46c0.24-0.19,0.48-0.38,0.72-0.56c0.09-0.04,0.17-0.09,0.25-0.14
		c1.51-0.82,2.74-2.13,4.35-2.78c0.3-0.12,0.6-0.22,0.93-0.28c2.02-1.47,4.47-2.31,6.19-4.22c0.13-0.06,0.26-0.13,0.39-0.19
		c3.48-1.7,6.7-3.91,10.25-5.48c0.48-0.21,0.97-0.42,1.46-0.61l0,0c0.09-0.01,0.17-0.04,0.25-0.06c0.88-0.22,1.48-0.93,2.25-1.36
		c0.15-0.09,0.31-0.16,0.48-0.22c1.09-0.58,2.18-1.16,3.26-1.74c0.05,0,0.11-0.02,0.16-0.02c0.46-0.06,0.89-0.19,1.26-0.47
		c0.11-0.08,0.21-0.16,0.31-0.27c0.53-0.32,1.06-0.63,1.58-0.95c0.08-0.02,0.16-0.04,0.24-0.06c1.2-0.31,2.21-0.99,3.21-1.67
		c0.13-0.09,0.25-0.17,0.38-0.25c4.17-2.1,8.33-4.19,12.5-6.28c0.09-0.05,0.19-0.1,0.29-0.15c1.48-0.77,3.14-1.13,4.54-2.05
		c0.17-0.11,0.34-0.23,0.5-0.36c0.17-0.13,0.34-0.25,0.5-0.38c0.11,0.03,0.2,0.03,0.3,0.03c0.36-0.01,0.67-0.21,0.98-0.4
		c0.92,0.02,0.8-1.34,1.71-1.32c2,0.05,3.55-1.14,5.28-1.84c0.17-0.07,0.34-0.14,0.52-0.2c0.4-0.18,0.81-0.35,1.21-0.53
		c0.08,0,0.15-0.02,0.22-0.03c0.84-0.08,1.63-0.3,2.33-0.78c0.15-0.1,0.3-0.2,0.44-0.33c1.73-0.46,3.35-1.13,4.62-2.46
		c0.03-0.01,0.07-0.02,0.11-0.03c1.22-0.4,2.59-0.23,3.77-0.76c0.26-0.11,0.5-0.25,0.74-0.44c0.25-0.16,0.5-0.32,0.75-0.48
		c0.07-0.02,0.13-0.06,0.19-0.08c0.85-0.31,1.57-0.85,2.3-1.36c0.14-0.1,0.28-0.2,0.42-0.29c0.55-0.01,1.11-0.03,1.66-0.04
		c0.11-0.02,0.21-0.06,0.32-0.08c1.79-0.42,3.49-1.1,5.16-1.87c0.71-0.27,1.43-0.55,2.14-0.82c1.08-0.43,2.15-0.87,3.23-1.3
		c2.04-0.48,4.01-1.13,5.84-2.16c0.9-0.13,1.83-0.14,2.59-0.74c1.22-0.02,1.94-1.33,3.03-1.34c2.2-0.03,4.09-0.91,6.02-1.74
		c0.65-0.18,1.3-0.37,1.95-0.55c0.14,0.06,0.36-0.02,0.62-0.17c1.81-1.19,3.86-1.8,5.9-2.41c1.1,0.62,2.15,0.09,3.13-0.28
		c1.97-0.73,4.2-1.04,5.92-2.05c1.66-0.98,3.44,0.16,4.84-1c0.79-0.33,1.58-0.66,2.36-0.99c0.58,0.05,1.18,0.14,1.58-0.45
		c0.56-0.21,1-0.84,1.68-0.65c1.86,0.51,3.44-0.35,5.08-0.95c0.47,0.16,0.87,0.07,1.25-0.14c0.14-0.08,0.28-0.17,0.41-0.27
		c0.56,0.25,0.81-0.32,1.23-0.45c0.17-0.01,0.33-0.04,0.49-0.06c1.22-0.13,2.42-0.33,3.59-0.67c0.47-0.13,0.93-0.28,1.39-0.46
		c2.22-0.57,4.43-1.14,6.65-1.7c0.07-0.03,0.15-0.05,0.22-0.08c1.52-0.56,3.21-0.34,4.73-0.93c0.06-0.02,0.11-0.05,0.17-0.07
		c0.11-0.01,0.22-0.05,0.33-0.15c0.63-0.38,1.34-0.4,2.05-0.46c0.09,0.01,0.18,0.01,0.27,0.01c1.11,0.02,2.13-0.39,3.16-0.74
		c0.55-0.15,1.1-0.3,1.65-0.45c1.26-0.24,2.74-0.16,3.74-0.81c1.72-1.11,3.6-1,5.42-1.35c1.44,0,2.82-0.29,4.16-0.81
		c3.41-0.63,6.82-1.26,10.23-1.88c0.23-0.04,0.47-0.09,0.7-0.13c0.12,0.01,0.23-0.03,0.33-0.1c0.21-0.04,0.41-0.07,0.62-0.1
		c2.03-0.3,4.13-0.24,6.04-1.17c2.31,0.4,4.28-1.16,6.51-1.24c0.2-0.01,0.4-0.01,0.61,0.01c5.77-0.27,11.41-1.56,17.12-2.32
		c1.68-0.22,3.47-0.03,5-1.01c0.18,0.01,0.36,0.02,0.55,0.04c0.84,0.08,1.68,0.23,2.48-0.04c0.26-0.09,0.51-0.2,0.76-0.39
		c5.73-0.24,11.38-1.25,17.07-1.8c7.15-0.69,14.27-1.68,21.44-2.15c9.06-0.6,18.09-1.54,27.14-2.24c5.11-0.4,10.25-0.47,15.36-0.96
		c6.6-0.64,13.17-0.39,19.75,0.08c7.54,0.54,15.07,1.19,22.59,1.88c10.81,0.99,21.47,3.08,32.23,4.44
		c5.17,0.66,10.33,1.37,15.47,2.1c9.33,1.33,18.61,3.14,27.83,5.12c14.85,3.2,29.69,6.49,44.43,10.15c7.65,1.9,15.4,3.7,22.58,7.11
		c3.55,1.68,6.88,3.83,10.35,5.68c4.03,2.14,7.65,4.97,11.9,6.76c1.86,0.79,3.4,2.3,5.34,3.05c0.08,0.09,0.18,0.17,0.26,0.26
		c1.26,1.28,2.67,2.36,4.15,3.35c0.32,0.21,0.63,0.42,0.95,0.62c1.15,1.34,3.09,1.68,4.19,2.81c2.02,2.05,4.66,3.46,6.18,5.99
		c0.27,0.08,0.46,0.24,0.63,0.43c0.32,0.35,0.55,0.81,0.94,1.1c0.05,0.04,0.1,0.08,0.16,0.11c1.37,1.14,2.74,2.29,4.11,3.44
		c0.08,0.04,0.16,0.09,0.23,0.13c1.41,0.87,2.32,2.69,4.39,2.31l0,0h0.01h-0.01l0,0l0,0c0.03,1.08,0.18,2.2,1.38,2.5
		c1.92,0.49,3.44,1.43,4.52,3.1c0.04,0.06,0.09,0.1,0.15,0.15c0.2,0.15,0.51,0.23,0.74,0.36c1.62,1.16,3.24,2.33,4.85,3.49
		c0.11,0.12,0.21,0.24,0.31,0.37c0.35,0.45,0.69,0.91,1.38,0.91c1.45,0.73,2.21,2.62,4.17,2.5c0.03,0.02,0.06,0.03,0.09,0.05
		c0.14,0.08,0.28,0.16,0.41,0.25c0.71,0.59,0.63,1.78,1.63,2.14c0.06,0.07,0.13,0.14,0.2,0.2c0.62,0.58,1.43,0.64,2.25,0.67
		c0.01,0,0.03,0,0.04,0l0,0c0.13,0.11,0.24,0.23,0.34,0.35c0.52,0.59,0.77,1.32,0.97,2.08c0.81,0.35,1.12,2.26,2.51,0.81
		c0.92,0.25,0.33,1.5,1.19,1.79c0.33,0.39,0.66,0.77,0.99,1.16c1.76,1.33,3.75,2.44,5.18,4.06c0.93,1.05,2.68,1.12,3,2.73
		c0.14,0.12,0.27,0.24,0.41,0.37c1.13,0.84,2.25,1.67,3.38,2.51l-0.01-0.02c1.1,1,2.2,2,3.29,3c0.05-0.08,0.11-0.16,0.18-0.23h0.01
		c-0.06,0.08-0.12,0.16-0.18,0.23c1.57,0.43,3.08,0.92,3.11,2.98c0,0.08,0.21,0.15,0.33,0.23c1,1.09,1.99,2.19,2.99,3.28
		c0.44,0.42,0.89,0.85,1.33,1.27c0.06,0.06,0.12,0.11,0.18,0.17c-0.01,0.11,0.01,0.22,0.08,0.31c0.07,0.08,0.13,0.15,0.2,0.23
		c0.64,0.75,1.28,1.51,1.91,2.26l0,0l0,0c0.08,0.1,0.19,0.15,0.32,0.13c1.26,2.14,3.04,3.87,4.59,5.78
		c0.19,0.26,0.41,0.49,0.65,0.72c1.17,1.14,2.71,1.99,3.3,3.6c0.09,0.24,0.16,0.48,0.21,0.76c0.94,1.26,1.62,2.72,2.88,3.74
		c0.17,0.22,0.35,0.42,0.54,0.62c0.86,0.88,1.9,1.63,2.5,2.71c0.19,0.35,0.36,0.72,0.44,1.16c2.01,0.72,1.53,3.3,3.19,4.27
		c0.04,0.1,0.1,0.2,0.16,0.3c0.63,1.13,2.01,1.94,2.2,2.89c0.61,3.14,3.91,4.58,4.72,7.46c0.08,0.3,0.15,0.61,0.18,0.94
		c0.12,0.15,0.24,0.31,0.36,0.46c0.05,0.14,0.09,0.27,0.14,0.4c0.33,0.94,0.69,1.86,1.31,2.65c0.08,0.1,0.14,0.21,0.23,0.3
		l-0.03,0.03c0.12,0.08,0.2,0.16,0.3,0.25c1.01,0.86,1.2,2.09,1.49,3.28c0.09,0.36,0.18,0.71,0.32,1.04
		c0.56,1.11,0.82,2.36,1.71,3.29c0.09,0.11,0.15,0.22,0.22,0.34c0.76,1.18,0.76,2.65,1.23,3.94c0.15,0.41,0.33,0.8,0.62,1.16
		c0.94,2.25,1.87,4.49,2.81,6.74c0.01,0.1,0.04,0.2,0.06,0.31c0.35,1.99,1.62,3.64,2.07,5.58c0.19,0.37,0.38,0.75,0.57,1.12
		c0.62,1.72,1.25,3.43,1.87,5.14c0.18,0.49,0.35,0.97,0.53,1.46c0.36,0.99,0.72,1.99,1.08,2.98c0.06,0.15,0.11,0.3,0.16,0.45
		c0.27,3.07,1.78,5.77,2.6,8.68c1.52,5.38,2.8,10.78,3.21,16.37c0.03,0.35,0.06,0.69,0.44,0.85c0.03,0.11,0.05,0.21,0.08,0.32
		c0.83,3.13,0.14,6.38,0.83,9.57c0.84,3.89,1.06,7.92,1.42,11.9c0.15,1.74,1.33,3.22,1.08,5.03v-0.01c0.08-0.22,0.13-0.47,0.19-0.72
		c-0.06,0.25-0.11,0.5-0.19,0.71v0.01c0,0.02,0,0.04,0,0.06c-0.08,0.51-0.09,1.02-0.07,1.52c0.04,0.74,0.17,1.47,0.34,2.19
		c0.16,0.65,0.35,1.29,0.55,1.93c0.68,2.11,0.25,4.18-0.15,6.27c-0.15,0.8-0.21,1.63-0.31,2.44c-0.01,0.19-0.05,0.36-0.08,0.53
		c-0.35,1.92-1.85,2.89-3.46,3.77c-2.74,1.49-5.48,2.99-8.22,4.49c-0.02,0-0.04,0-0.07,0c-0.37,0.01-0.69,0.13-0.95,0.38
		c-0.04,0.04-0.09,0.08-0.13,0.12c-0.16,0.09-0.33,0.18-0.49,0.27c-0.18,0.09-0.35,0.17-0.53,0.26c-0.94,0.46-1.87,0.92-2.81,1.38
		c-0.11,0.05-0.21,0.11-0.32,0.16c-0.85,0.4-1.71,0.8-2.56,1.2c-0.06,0.03-0.12,0.06-0.18,0.09c-2.1,0.94-3.72,2.82-6.1,3.23
		c-0.12,0.02-0.24,0.06-0.36,0.07c-1.96,0.97-3.93,1.93-5.89,2.9l-0.01,0.01c0.45,0.65,1.32,0.99,1.58,2.04
		c-0.26-1.05-1.13-1.39-1.58-2.04c0,0,0,0,0-0.01c-1.22,0.27-2.32,0.79-3.29,1.57l-0.02,0.02c-1.78,0.21-2.8,2.07-4.65,2.13
		c-0.01,0-0.01,0-0.02,0c-0.61,0.07-1.16,0.27-1.6,0.73c0,0-0.01,0-0.01,0.01c-1.06,0.25-1.97,0.82-2.87,1.41
		c-0.08,0.01-0.16,0.02-0.23,0.03c-0.8,0.1-1.5,0.47-2.19,0.84c-0.19,0.1-0.38,0.2-0.57,0.3c-1.36,0.59-2.73,1.17-4.09,1.76
		c-0.07,0.03-0.14,0.06-0.21,0.08c-0.87,0.34-1.75,0.68-2.47,1.3c-0.09,0.08-0.19,0.14-0.27,0.22c0,0-0.01,0-0.01,0.01l0,0
		l-0.01,0.01v-0.01c-0.56,0.62-1.47,0.19-2.13,0.52c-0.14,0.07-0.27,0.16-0.38,0.3c-5.12,2.11-10.25,4.22-15.37,6.33
		c-0.05,0.03-0.1,0.05-0.15,0.07c-0.96,0.49-2.06,0.63-3.07,1.01c-0.35,0.13-0.7,0.3-1.02,0.52c-0.7,0.27-1.4,0.55-2.1,0.82
		c-0.1,0-0.19,0.03-0.28,0.05c-0.59,0.09-1.09,0.38-1.58,0.7c-0.06,0.04-0.13,0.08-0.19,0.12c-8.49,3.07-16.97,6.15-25.46,9.22
		c-0.16,0.06-0.32,0.11-0.48,0.17c-3.22,1.11-6.45,2.22-9.67,3.33c-0.23,0.08-0.47,0.16-0.7,0.24c-2.48,1.43-5.45,0.92-8.02,1.99
		c0,0.02,0.01,0.03,0.01,0.05c-0.03-0.01-0.06-0.01-0.09-0.02l-0.15-0.06l-0.05,0.06l-0.05,0.07c-3.41,0.7-6.83,1.41-10.24,2.12
		c-0.53,0.11-1.06,0.22-1.59,0.33c-4.31,0.69-8.62,1.4-12.85,2.47c-0.19,0.06-0.39,0.08-0.6,0.1c-0.44,0.03-0.9-0.01-1.34,0.04
		c-0.34,0.04-0.67,0.13-0.98,0.36c-3.63,0.49-7.23,1.17-10.81,1.96c-2.43,0.54-4.99,0.5-7.42,1.05c-3.43,0.77-7.02,0.5-10.4,1.92
		c-1.32,0.56-3.16,0.05-4.78,0.33c-5.53,0.96-11.08,1.83-16.63,2.73c-0.11,0.03-0.23,0.04-0.35,0.07c-1.18,0.22-2.4,0.13-3.58,0.35
		c-0.39,0.07-0.77,0.18-1.14,0.34c-1.88-0.06-3.64,0.25-5.23,1.37c-0.75,0.52-1.33-0.48-2.25-0.31c-8.54,1.57-17.15,2.75-25.64,4.51
		c-7.4,1.54-14.96,1.98-22.31,3.71c-0.3,0.06-0.59,0.12-0.89,0.17c-1.47,0.29-2.94,0.58-4.41,0.87c-0.05-0.01-0.1,0-0.15,0.01
		c-0.04,0.01-0.09,0.02-0.13,0.04c-0.33,0.06-0.65,0.13-0.98,0.19c-1.61,0.31-3.22,0.62-4.83,0.95c-1.05,0.22-2.24,0-3.17,0.64
		c-0.17,0.11-0.32,0.25-0.47,0.43c-2.34,0.59-4.83-0.12-7.13,0.83c-0.05,0-0.11,0-0.16,0c-0.4-0.01-0.8,0.02-1.17,0.17
		c-0.13,0.05-0.26,0.12-0.38,0.2c-2.27,0.16-4.48,0.58-6.66,1.25c-0.38,0.03-0.76,0.06-1.13,0.1c-0.88,0.1-1.76,0.25-2.62,0.47
		c-0.3,0.08-0.61,0.16-0.91,0.25c-4.73,0.95-9.47,2.01-14.2,2.75c-5.1,0.79-10.21,1.59-15.27,2.59c-4.88,0.96-9.84,1.32-14.7,2.45
		c-1.89,0.44-3.86,0.92-5.85,0.99c-0.26,0.04-0.51,0.07-0.77,0.1c-1.22,0.12-2.45,0.14-3.63,0.43c-0.35,0.09-0.7,0.19-1.04,0.34
		c-1.09,0.16-2.19,0.31-3.28,0.47c-0.63,0.01-1.26,0.04-1.88,0.09c-1.25,0.09-2.49,0.26-3.72,0.49c-0.37,0.07-0.74,0.13-1.12,0.21
		c-5.47,0.93-10.97,1.57-16.48,2.15c-2.88,0.31-5.74,0.73-8.61,1.11c-0.12,0.01-0.23,0.02-0.35,0.03c-0.86,0.07-1.72,0.1-2.58,0.14
		c-0.24,0.01-0.48,0.03-0.72,0.04h-0.01c-0.25-0.05-0.48-0.01-0.7,0.07c-0.12,0.01-0.25,0.03-0.37,0.05
		c-0.73,0.1-1.46,0.26-2.17,0.53c-0.05,0.02-0.1,0.03-0.15,0.05c-2.38-0.55-4.73,0.08-7.08,0.2c-6.7,0.35-13.39,0.87-20.08,1.32
		C530.92,587.31,530.65,587.38,530.38,587.42z M875.69,293.09v-0.01C875.69,293.08,875.69,293.09,875.69,293.09
		c0.23,0.18,0.59,0.22,0.95,0.27C876.29,293.31,875.93,293.27,875.69,293.09z M898.94,309.05
		C898.94,309.05,898.93,309.06,898.94,309.05C898.93,309.06,898.93,309.05,898.94,309.05c-1.09-0.77-1.57-1.65-1.3-2.67
		C897.37,307.4,897.86,308.28,898.94,309.05c-0.01-0.01,0.01,0.01,0.01,0.01C898.95,309.06,898.94,309.05,898.94,309.05z
		 M862.24,284.82c0.13,0.18,0.28,0.31,0.44,0.42c0.52,0.36,1.17,0.46,1.75,0.7c0.1,0.04,0.2,0.09,0.3,0.14l0.06-0.05
		c0.28,0.15,0.54,0.32,0.82,0.48c3.39,1.94,6.59,4.16,9.62,6.62c0.51,1.02,2.28,0.22,2.46,1.7c3.21,2.65,6.5,5.21,9.6,7.99
		c2.92,2.63,5.62,5.49,8.41,8.26c0.02,0.07,0.02,0.15,0.06,0.2c2.82,3.64,7.08,5.98,9.24,10.23c0.13,0.25,0.36,0.38,0.63,0.45
		s0.58,0.08,0.86,0.07c-0.31,2.2,1.71,3.1,2.76,4.34c3.33,3.96,5.98,8.45,9.55,12.22c0.46,0.48,0.7,1.17,1.04,1.76
		c-0.05,0.12-0.1,0.24-0.16,0.36c0.08,0.11,0.17,0.21,0.25,0.32c0,0-0.01,0.01-0.02,0.01c0.01,0,0.01-0.01,0.01-0.01
		c-0.08-0.11-0.16-0.22-0.25-0.32v0.01c-0.06,0.13-0.11,0.26-0.17,0.38c-3.39-3.82-6.79-7.62-10.67-10.96
		c-0.56-0.48-1.02-1.15-1.87-1.17c-0.02-0.01-0.03-0.03-0.05-0.04c-1.82-1.59-3.6-3.21-5.46-4.75c-3.12-2.59-6.5-4.9-9.37-7.73
		c-2.78-2.74-5.94-4.97-8.88-7.47c-0.57-0.42-1.14-0.85-1.71-1.27c-2.2-1.68-4.39-3.35-6.59-5.03c-0.5-0.33-1.01-0.66-1.51-0.99
		c-0.09-0.06-0.18-0.12-0.28-0.18c-3.21-2.36-6.43-4.72-9.64-7.08c-0.29-0.24-0.59-0.47-0.88-0.71c-1.58-1.27-3.16-2.54-4.74-3.81
		c-0.05-0.04-0.11-0.09-0.16-0.13c-4.98-4.21-9.49-8.97-14.84-12.81C849.45,279.25,855.92,281.84,862.24,284.82z M933.54,547.34
		c0.03,0.91,0.02,1.4-0.21,1.74C933.57,548.74,933.57,548.26,933.54,547.34C933.54,547.35,933.54,547.34,933.54,547.34z
		 M946.25,558.66c0.03-1.2-1.13-1.46-1.72-2.17c0.6,0.71,1.75,0.97,1.73,2.16C946.26,558.65,946.26,558.66,946.25,558.66z
		 M952.85,547.38l-0.01-0.01C952.84,547.37,952.85,547.37,952.85,547.38c-0.03-0.04-0.05-0.08-0.08-0.12
		C952.8,547.29,952.82,547.33,952.85,547.38C952.85,547.37,952.85,547.37,952.85,547.38z M937.24,553.55
		c0.03,0.02,0.06,0.04,0.09,0.08c-0.01,0.03-0.02,0.06-0.03,0.09C937.28,553.67,937.26,553.61,937.24,553.55z M939.4,498.45
		c0,0,0.01-0.02,0.01-0.03C939.4,498.43,939.4,498.44,939.4,498.45c0.04,0.02,0.07,0.04,0.1,0.05
		C939.46,498.49,939.43,498.47,939.4,498.45z M921.48,321.94c0,0,0,0.02,0,0.03c0-0.01,0-0.02,0-0.02c-0.12-0.01-0.24-0.01-0.36,0
		C921.24,321.95,921.36,321.94,921.48,321.94z M943.93,409.95c0,0.02,0.01,0.04,0.02,0.06c-0.06-0.01-0.12-0.01-0.17-0.03
		C943.82,409.97,943.87,409.95,943.93,409.95z M945.36,359.98L945.36,359.98c0.04,0.04,0.08,0.09,0.11,0.13
		C945.44,360.07,945.4,360.02,945.36,359.98z M961.09,456.54C961.09,456.54,961.1,456.54,961.09,456.54c0,0,0.01,0.02,0.01,0.03
		C961.1,456.56,961.09,456.54,961.09,456.54z M959.88,462.98h-0.01c-0.08-0.07-0.16-0.14-0.23-0.19
		C959.72,462.83,959.79,462.89,959.88,462.98z M958.43,461.58c0.22-0.06,0.42-0.02,0.61,0.09
		C958.85,461.57,958.65,461.52,958.43,461.58z M959.4,466.9c0.01,0.38-0.18,0.51-0.48,0.5C959.04,467.22,959.19,467.05,959.4,466.9z
		 M966.12,529.9C966.12,529.91,966.12,529.91,966.12,529.9c0.03-0.02,0.05-0.05,0.07-0.09c-0.02,0.03-0.04,0.07-0.06,0.1
		C966.12,529.92,966.12,529.91,966.12,529.9z M904.42,531.94c0.01,0,0.02,0,0.04,0c-0.02,0.01-0.02,0.03-0.04,0.04
		C904.42,531.97,904.42,531.96,904.42,531.94z M882.02,315.34c0.26,1.06-0.36,1.81-0.88,2.6c0,0,0,0-0.01,0
		C881.67,317.15,882.29,316.39,882.02,315.34z M882.03,311.69c0.01,0.08,0.02,0.15,0.02,0.23c-0.09-0.08-0.17-0.16-0.27-0.24
		C881.87,311.68,881.95,311.69,882.03,311.69z M881.88,315.28c0,0.01,0,0.03,0,0.04c0,0-0.02,0-0.03,0
		C881.86,315.3,881.87,315.29,881.88,315.28z M896.04,331.96c0,0,0.01,0.01,0.02,0.01c-0.01,0-0.03,0-0.03,0
		c-0.04,0.02-0.06,0.03-0.09,0.05c0.03-0.02,0.05-0.03,0.07-0.05C896.03,331.97,896.03,331.97,896.04,331.96z M848.15,536
		c-0.03,0.02-0.07,0.04-0.1,0.07c0,0,0.01,0.02,0.02,0.02c-0.01-0.01-0.02-0.01-0.03-0.02l0,0l-0.01-0.01l0,0
		c0.01,0,0.02,0,0.02-0.01v0.02l0,0l0,0h0.01v-0.01c0.01-0.03,0.02-0.06,0.03-0.09C848.1,535.99,848.12,536,848.15,536z
		 M852.27,539.47C852.27,539.47,852.26,539.47,852.27,539.47c0.06-0.02,0.11-0.04,0.17-0.07
		C852.38,539.43,852.32,539.45,852.27,539.47z M850.98,539.45L850.98,539.45C850.97,539.44,850.98,539.44,850.98,539.45
		L850.98,539.45z M850.99,539.44c0-0.01,0-0.02,0-0.03c0.01,0.01,0.02,0.01,0.04,0.02C851.02,539.42,851,539.43,850.99,539.44z
		 M831.38,551.56c0.01,0,0.02,0,0.02-0.01C831.4,551.55,831.39,551.56,831.38,551.56c0.01,0,0,0-0.01-0.01
		C831.38,551.55,831.38,551.56,831.38,551.56z M690.44,570.64c0.01-0.08,0.01-0.15,0.01-0.23c0.04,0.04,0.09,0.08,0.13,0.12
		C690.54,570.57,690.49,570.6,690.44,570.64z M686.23,565.44c-0.08,0-0.15,0.01-0.22,0.01c0.05-0.02,0.1-0.03,0.15-0.05
		C686.18,565.41,686.2,565.43,686.23,565.44z M669.85,585.3c-0.06-0.05-0.12-0.08-0.2-0.1c-1.34-0.68-1.29-0.75,0.11-1.87
		C671.03,584.25,671.05,584.74,669.85,585.3z M602.16,581.23c0.05-0.18,0.08-0.33,0.08-0.46c0.03,0.04,0.06,0.09,0.08,0.13
		C602.38,581.09,602.28,581.17,602.16,581.23z M588.7,626.17c0,0,0.02-0.02,0.03-0.03c0,0.01,0.01,0.02,0.02,0.04
		C588.73,626.18,588.71,626.18,588.7,626.17z M674.4,602.89h0.01H674.4C674.4,602.9,674.39,602.89,674.4,602.89
		C674.39,602.89,674.4,602.89,674.4,602.89z M674.36,602.87L674.36,602.87c-0.39-0.32-0.81-0.6-1.2-0.91
		C673.55,602.27,673.97,602.55,674.36,602.87z M648.56,615.46h-0.01C648.56,615.46,648.56,615.46,648.56,615.46
		c0.95-0.18,1.91-0.31,2.83-0.59C650.47,615.15,649.52,615.29,648.56,615.46z M653.8,611.64c0.12,0.22,0.28,0.41,0.45,0.58
		c0.95,0.92,2.54,1.12,3.52,2.01l0,0c-0.98-0.89-2.56-1.09-3.52-2.01C654.07,612.06,653.92,611.87,653.8,611.64z M651.15,600.66
		c-0.06,0-0.12,0-0.19,0.01v-0.01c0.05-0.09,0.1-0.17,0.15-0.27c0.01,0.08,0.02,0.15,0.03,0.23
		C651.15,600.63,651.15,600.64,651.15,600.66z M655.03,628.7c0,0-0.01-0.01-0.01-0.02C655.02,628.69,655.03,628.69,655.03,628.7
		c0.1-0.25,0.18-0.49,0.16-0.74C655.22,628.21,655.13,628.45,655.03,628.7z M685.49,616.18c0.08,0.16,0.07,0.31,0.02,0.43
		C685.49,616.48,685.49,616.34,685.49,616.18z M713.22,624.6L713.22,624.6L713.22,624.6L713.22,624.6z M691.7,616.23
		c0.01-0.02,0.01-0.03,0.01-0.05c0.01,0.02,0.03,0.03,0.04,0.04C691.74,616.23,691.72,616.23,691.7,616.23z M713.23,624.61
		c0.06,0.11,0.13,0.22,0.2,0.33C713.36,624.84,713.3,624.73,713.23,624.61C713.23,624.62,713.23,624.61,713.23,624.61z
		 M714.19,616.22L714.19,616.22c0.11,0.04,0.21,0.08,0.32,0.12C714.4,616.3,714.3,616.26,714.19,616.22z M701.59,630.02
		c0,0,0.01,0.01,0.01,0.02C701.59,630.04,701.59,630.03,701.59,630.02c-0.01,0.01-0.02,0.01-0.03,0.02
		C701.56,630.04,701.57,630.03,701.59,630.02z M718.97,622.34c-0.07,0.2-0.13,0.39-0.19,0.59
		C718.69,622.73,718.71,622.53,718.97,622.34z M766.02,619.19C766.02,619.19,766.03,619.19,766.02,619.19
		c0.04,0.12,0.1,0.24,0.2,0.36C766.12,619.43,766.06,619.31,766.02,619.19z M766.24,618.92
		C766.24,618.92,766.23,618.92,766.24,618.92c0-0.19,0.01-0.38,0.01-0.57C766.24,618.54,766.24,618.73,766.24,618.92z
		 M778.63,626.01L778.63,626.01c0,0.01,0-0.01-0.01-0.01C778.63,626,778.63,626.01,778.63,626.01z M805.65,612.83
		c0-0.03-0.01-0.06-0.02-0.08c0.03-0.03,0.06-0.06,0.09-0.1c0.02,0.05,0.04,0.1,0.07,0.15C805.74,612.81,805.7,612.82,805.65,612.83
		z M809.14,614.91c-0.01,0.03-0.02,0.05-0.03,0.08c-0.01-0.01-0.02-0.01-0.03-0.02C809.1,614.95,809.12,614.93,809.14,614.91z
		 M806.95,607.69c0.12-0.02,0.23,0.1,0.35,0.27C807.18,607.89,807.06,607.8,806.95,607.69z M789.18,611.63
		C789.18,611.63,789.18,611.64,789.18,611.63c0.01,0,0.01,0.02,0.02,0.02C789.19,611.65,789.19,611.64,789.18,611.63z M757.83,617.4
		c-0.14,0.02-0.28,0.04-0.42,0.05c0-0.01,0-0.02,0-0.02c-0.01-0.13-0.03-0.26-0.06-0.41c0.12,0.08,0.23,0.17,0.34,0.26
		C757.74,617.32,757.78,617.36,757.83,617.4z M765.21,630.89c-0.01-0.05-0.02-0.1-0.02-0.15c0.04,0.04,0.08,0.06,0.12,0.09
		C765.27,630.85,765.25,630.87,765.21,630.89z M787.39,622.91v-0.01C787.39,622.9,787.39,622.9,787.39,622.91
		c0.11,1.26,0.84,2.36,0.97,3.62C788.23,625.27,787.5,624.17,787.39,622.91z M812.1,601.03c-0.69,0.3-1.36,0.66-2.04,0.99
		c-0.14,0.05-0.28,0.1-0.42,0.14c-1.17,0.38-2.41,0.6-3.32,1.56c-1.12,0.82-2.6,0.57-3.75,1.29c-2.57,1.12-5.12,2.3-7.84,2.99
		c-0.35,0.09-0.7,0.17-1.06,0.24h-0.17l-0.11,0.12c-0.35,0.12-0.7,0.23-1.05,0.35c-0.83,0.28-1.64,0.6-2.4,1.04
		c-0.11,0.07-0.23,0.12-0.34,0.19v-0.01c-0.09,0.05-0.19,0.07-0.29,0.09c-0.46,0.08-0.99-0.06-1.35,0.38
		c-0.78,0.14-1.6,0.15-2.21,0.75l0,0c-0.23,0.03-0.47,0.07-0.7,0.11c-0.45-0.01-0.86,0.14-1.25,0.31c-0.32,0.14-0.63,0.31-0.95,0.44
		c-1.15,0.55-2.58,0.02-3.63,0.96c-0.04,0.02-0.07,0.02-0.11,0.04c-0.56,0.24-1.17,0.26-1.78,0.29c-0.55,0.03-1.1,0.08-1.61,0.32
		c-0.09,0.04-0.18,0.08-0.27,0.13l0,0c-0.06,0.04-0.11,0.07-0.17,0.1c-1.06,0.66-2.3,0.73-3.48,1c-0.18,0.04-0.36,0.08-0.53,0.14
		c-0.27,0.03-0.54,0.07-0.8,0.1c-0.27,0.05-0.53,0.11-0.79,0.17c-0.86,0.56-1.72,1-2.96,0.46c0,0-0.02,0-0.02-0.01
		c0.01,0,0.01,0,0.01,0c1.24,0.55,2.11,0.11,2.96-0.46c-0.2,0.04-0.4,0.08-0.61,0.1c-2.58,0.2-5.16,0.45-7.69,0.97
		c-0.47,0.1-0.94,0.19-1.41,0.31v-0.01c-0.04,0-0.08,0.01-0.12,0.01c-2.87,0.2-5.76,0.27-8.6,0.68c-1.39,0.2-2.8-0.52-4.13,0.2
		c-0.03,0.02-0.06,0.02-0.09,0.04c-5.4,0.33-10.8-0.16-16.2-0.11c-0.23-0.06-0.46-0.1-0.7-0.15c-2-0.42-4.04-0.52-6.07-0.65
		c-0.24-0.01-0.47-0.03-0.71-0.05c-0.71-0.05-1.41-0.11-2.11-0.2c-1.78-0.22-3.56-0.42-5.36-0.18c-0.04,0.01-0.09,0-0.13,0.01
		l0.02-0.03c-0.22-0.14-0.47-0.2-0.71-0.19c-0.12-0.02-0.24-0.05-0.36-0.06c-2.15-0.28-4.36,0.71-6.48-0.1
		c-4.3-0.8-8.57,0.62-12.92,0.04c-3.21-0.43-6.52-0.08-9.79-0.05c-0.08,0-0.17,0-0.25,0c-5.96-0.14-11.92-0.31-17.88-0.02
		c-7.13,0.35-14.25,0.8-21.37,1.2c-1.57-0.35-3.17,0.34-4.78-0.06c-0.06-0.01-0.12-0.02-0.18-0.04c0.04-0.02,0.08-0.03,0.12-0.04
		c1.46-0.64,3.11-0.19,4.48-1c0.03,0,0.05,0,0.08,0c0.74,0.01,1.48,0.02,2.2-0.18c0.07-0.02,0.14-0.05,0.21-0.08
		c0.15-0.03,0.3-0.07,0.44-0.16c0.75,0.09,1.48,0.04,2.2-0.09c1.91-0.34,3.75-1.21,5.7-1.25c0.03,0,0.07,0,0.1,0
		c0.03,0.01,0.06,0.03,0.09,0.04c0.37,0.07,0.74,0.11,1.11,0.08l0,0c0.1,0,0.2,0,0.3,0c0.58,0,1.16,0.01,1.73-0.1
		c0.32-0.06,0.63-0.16,0.93-0.33c4.17-0.52,8.34-1.04,12.51-1.57c6.78-0.86,13.56-1.74,20.35-2.59c0.47-0.06,0.98,0.06,1.31-0.43
		c0.11,0,0.21,0,0.31,0c1.39,0,2.77-0.03,4.16-0.32c2-0.42,4.09-0.44,6.12-0.75c3.08-0.48,6.25-0.41,9.28-1.25
		c0.22-0.06,0.44-0.11,0.65-0.18c3.79,0.1,7.48-0.66,11.18-1.3c0.07,0,0.14,0,0.21,0c0.49,0,0.98,0.01,1.46,0.01
		c0.75,0.16,1.46,0.06,2.12-0.36c2.12,0.02,4.21-0.23,6.24-0.9c0.84,0.14,1.67,0.16,2.5-0.04c1.93-0.56,3.99-0.1,5.92-0.66
		c0.12-0.03,0.25-0.06,0.37-0.11v0.01c0.52-0.02,1.05,0,1.56-0.03c0.24-0.01,0.47-0.04,0.7-0.09c4.29-0.89,8.68-0.87,12.99-1.56
		c0.06-0.01,0.11-0.02,0.17-0.02c1.04,0.26,1.9-0.58,2.91-0.47c0.37,0.01,0.74,0.04,1.11,0.07c0.79,0.05,1.58,0.09,2.34-0.06
		c0.58-0.11,1.14-0.32,1.67-0.71c2.76-0.7,5.61,0.17,8.39-0.44c0.65-0.15,1.38,0.04,1.94-0.48c1.63-0.01,3.23-0.17,4.83-0.39
		c1.26-0.17,2.52-0.38,3.78-0.58c0.45,0.06,1-0.11,1.47-0.23c4.61-0.01,9.07-1.29,13.64-1.66c0.03,0,0.05-0.01,0.08-0.01
		c2.85-0.27,5.63-0.87,8.37-1.66c0.26,0.02,0.52,0.03,0.77,0.03c1.55-0.02,3.04-0.51,4.56-0.74c0.33-0.05,0.67-0.09,1-0.1
		c4.41-0.85,8.81-1.72,13.23-2.53c0.45-0.08,1.06-0.37,1.42,0.23c0.03,0.05-0.36,0.36-0.56,0.55c-0.12,0.05-0.24,0.1-0.36,0.16
		C824.99,595.43,818.54,598.23,812.1,601.03z M730.49,600.16c-0.04,0.02-0.07,0.04-0.11,0.05c0-0.02-0.01-0.05-0.01-0.07
		C730.41,600.16,730.45,600.15,730.49,600.16z M692.87,595.77c0.2-0.52,0.4-0.49,0.62-0.26
		C693.31,595.56,693.1,595.65,692.87,595.77z M714.01,604.82c-0.02-0.01-0.03-0.03-0.05-0.04c0.02,0,0.03,0.01,0.06,0.01
		C714.02,604.79,714.01,604.81,714.01,604.82z M691.1,595.53c-0.02,0.02-0.03,0.03-0.05,0.05c0-0.02-0.01-0.04-0.02-0.06
		C691.05,595.53,691.08,595.53,691.1,595.53z M826.33,602.65c-0.07-0.02-0.14-0.04-0.21-0.09c0.07-0.05,0.13-0.11,0.18-0.16
		C826.31,602.49,826.32,602.57,826.33,602.65z M830.55,578.27L830.55,578.27c0.01,0,0.01-0.01,0.01-0.01h0.01
		C830.57,578.26,830.56,578.26,830.55,578.27C830.55,578.27,830.54,578.27,830.55,578.27l-0.01,0.01L830.55,578.27L830.55,578.27
		L830.55,578.27L830.55,578.27z M830.53,578.26l0.01,0.02l0,0l0,0c-0.01,0.01-0.02,0.01-0.03,0.02l0,0
		c-0.12,0.06-0.24,0.12-0.37,0.17c0.12-0.05,0.25-0.11,0.37-0.17l0.03-0.01c0,0,0,0-0.01,0c0.01,0,0.01,0,0.01,0
		C830.53,578.27,830.52,578.25,830.53,578.26C830.52,578.25,830.53,578.26,830.53,578.26z M811.82,583.21
		c0.12-0.11,0.23-0.22,0.35-0.34C812.05,582.99,811.94,583.1,811.82,583.21C811.82,583.22,811.82,583.21,811.82,583.21z
		 M787.32,584.97c0-0.01,0-0.01,0-0.02c0,0.01,0.01,0.01,0.01,0.02H787.32z M780.54,590.02c-0.02-0.21,0.04-0.37,0.31-0.38
		C780.74,589.76,780.63,589.89,780.54,590.02z M781.6,586.1c0.03-0.39-0.19-0.79-0.3-1.18l0,0
		C781.41,585.31,781.62,585.71,781.6,586.1z M880.15,563.59L880.15,563.59L880.15,563.59L880.15,563.59L880.15,563.59
		c-0.1,0.1-0.2,0.18-0.31,0.25C879.95,563.77,880.05,563.69,880.15,563.59L880.15,563.59z M884.79,562.39
		c-0.07,0-0.15,0.02-0.22,0.02c-1.41,0.07-2.74,0.43-4.02,1c-0.13,0.06-0.26,0.11-0.39,0.17c-0.09,0.03-0.19,0.05-0.28,0.08
		c-0.59,0.16-1.18,0.33-1.77,0.49c-0.32,0.09-0.63,0.18-0.95,0.26c-1.51-0.08-2.69,0.85-4.03,1.28c0.02,0.04,0.04,0.09,0.06,0.13
		c-0.03-0.03-0.06-0.05-0.1-0.08c0,0.1,0.02,0.2,0.03,0.3c-0.06-0.1-0.13-0.2-0.19-0.3c-2.29,0.32-4.4,1.24-6.45,2.2
		c-1.1,0.52-2.16,0.03-3.19,0.36c-0.75,0.24-1.49,0.5-2.24,0.75c0,0.01,0,0.02,0.01,0.03c-0.02,0-0.05,0-0.07,0
		c0,0.01-0.01,0.02-0.01,0.02c-0.01-0.01-0.01-0.01-0.01-0.01c-1.64,0.4-3.45,0.27-4.82,1.54c-0.2,0.05-0.4,0.11-0.61,0.17
		c-1.12,0.33-2.24,0.76-3.37,0.78c-2.87,0.05-5.53,0.99-8.24,1.69c-0.47,0.12-0.94,0.24-1.41,0.34c-0.24,0.03-0.48,0.06-0.72,0.09
		c-0.03,0.02-0.07,0.02-0.11,0.04c-1.42,0.58-3.05,0.51-4.42,1.25c-0.18,0.1-0.36,0.2-0.53,0.33l0.03,0.04
		c-0.12,0.02-0.25,0.03-0.37,0.05c-1.35,0.16-2.75,0-4.07,0.35c-0.36,0.09-0.71,0.21-1.05,0.4c-0.57,0.06-1.15,0.07-1.58,0.53
		c-0.1,0-0.19,0.01-0.28,0.01c-1.66,0.05-3.14,0.91-4.75,1.16c-1.46-0.16-2.67,0.98-4.14,0.8c-2.48,0.43-4.96,0.87-7.44,1.31
		c-0.04,0.01-0.07,0.01-0.11,0.02c-2.88,0.7-5.95,0.44-8.71,1.81c-1.59,0.79-3.42-0.08-5.1,0.56c-2.26,0.86-4.71,0.52-7.05,0.96
		c-0.21,0.07-0.42,0.17-0.63,0.27c-0.93,0.44-1.83,0.97-2.96,0.12c-0.32-0.24-1.08-0.17-1.5,0.33c-0.92-0.35-1.73-0.15-2.43,0.52
		c-1.07-0.08-2.15-0.17-3.16,0.3c-0.05,0.02-0.11,0.04-0.16,0.07l0,0l0,0l0,0l0,0l0,0c-0.4-0.08-0.81-0.12-1.21-0.15
		c-0.69-0.04-1.37,0-2.04,0.1c-0.74,0.11-1.48,0.28-2.21,0.49c-1.38,0.28-2.82-0.1-4.17,0.41c-0.31,0.03-0.62,0.05-0.93,0.07
		c-1.98,0.13-3.97,0.18-5.92,0.62c-0.12,0.03-0.23,0.05-0.35,0.08c-0.5,0.15-1,0.3-1.51,0.46c-0.4-0.11-0.8-0.15-1.2-0.16
		c-1.75-0.05-3.45,0.66-5.21,0.56c-1.16,0.57-2.48,0.08-3.66,0.53c-1.37-0.27-2.75-0.2-4.01,0.39c-1.94,0.9-4.03,0.42-6.01,0.82l0,0
		c-0.72-0.02-1.54,0.04-2.14,0.18c-1.25,0.28-2.55,0.05-3.8,0.14c-0.43,0.03-0.86,0.1-1.28,0.24c-0.22,0.05-0.45,0.14-0.65,0.29
		c-0.39,1.67-1.53-0.22-2.13,0.45c-0.07-0.01-0.13-0.02-0.2-0.03c-2.66-0.46-5.21,0.09-7.75,0.82c-1.24-0.1-2.47-0.04-3.69,0.12
		c-0.28,0.04-0.56,0.09-0.84,0.14c-0.19,0.03-0.38,0.06-0.57,0.1c-0.71,0.02-1.46-0.25-2.09,0.32c-0.04,0.01-0.09,0.02-0.13,0.03
		c-1.67,0.44-3.45-0.17-5.09,0.5c-0.04,0.02-0.08,0.02-0.12,0.04c-3.72,0.39-7.47,0.53-11.12,1.51c-1.1,0.29-2.31,0.14-3.47,0.2
		c-0.26-0.06-0.52-0.07-0.77-0.06c-0.46,0.02-0.91,0.14-1.33,0.42c-1.79,0.45-3.65,0.23-5.46,0.43c-0.36,0.04-0.71,0.1-1.06,0.18
		c-0.21,0.05-0.43,0.1-0.64,0.17c-2.07,1.31-4.46,0.21-6.61,0.88c-1.22,0.04-2.43,0.15-3.63,0.29c-1.24,0.14-2.48,0.33-3.7,0.58
		c-0.62,0.12-1.23,0.25-1.85,0.4l0,0c-0.14-0.03-0.28-0.04-0.42-0.04c-1.08-0.01-2.01,0.72-3.14,0.65
		c-3.37-0.22-6.64,0.49-9.93,1.09c-0.34,0.06-0.68,0.12-1.02,0.18c-0.34,0-0.68,0.03-1.01,0.17c-0.39,0.01-0.78,0.03-1.18,0.04
		c-0.58,0.08-1.15,0.17-1.73,0.25c-2.87,0.42-5.74,0.84-8.61,1.26c-0.21,0.03-0.42,0.06-0.63,0.09c-0.81,0.09-1.5,0.68-2.36,0.54
		c-0.08,0-0.16,0.01-0.24,0.01c-1.77,0.06-3.55,0.09-5.23,0.81v0.01c0,0,0,0-0.01,0v-0.01h-0.01c-0.54,0.01-1.08,0.02-1.63,0.04
		c-0.12,0-0.24,0.01-0.37,0.01c-0.44,0-0.88-0.02-1.32,0.01c-0.3,0.02-0.6,0.05-0.9,0.13c-0.14,0.04-0.28,0.08-0.42,0.14
		c-1.53,0.8-3.22,0.43-4.83,0.66c-5.22,0.76-10.47,1.38-15.7,2.09c-0.93,0.13-1.84,0.47-2.75,0.72c-0.05-0.01-0.1-0.02-0.15-0.03
		c-1.3-0.33-2.57-0.13-3.84,0.09c-0.5,0.09-1,0.18-1.51,0.24c-10.27,1-20.54,1.96-30.85,2.54c-5.28,0.3-10.36-0.81-15.48-1.67
		c-6.29-1.06-12.56-2.27-18.84-3.43c-0.46-0.08-0.9-0.26-1.34-0.67c6.37-0.44,12.74-0.83,19.1-1.34c10.78-0.87,21.56-1.8,32.33-2.75
		c3.1-0.28,6.23-0.26,9.28-0.99H598c2.27-0.13,4.54-0.16,6.8-0.41c0.51-0.06,1.03-0.13,1.54-0.21c0.32-0.05,0.63-0.11,0.95-0.17
		c1.06-0.71,2.24-0.38,3.39-0.41c3.01-0.08,6.02-0.24,8.99-0.85c0.01-0.02,0.01-0.04,0.02-0.06c0.01,0.02,0.02,0.03,0.03,0.05
		c0.85,0.03,1.69,0.06,2.53,0c0.55-0.03,1.1-0.12,1.65-0.24c0.28-0.03,0.56-0.1,0.84-0.21c0.68-0.22,2.44,0.52,1-1.78
		c1.56,2.7,3.65,1.36,5.25,1.16c2.97-0.37,6.09-0.03,8.9-1.56c1.48-0.81,3.05,0.34,4.66,0.1c4.71-0.71,9.46-1.14,14.18-1.77
		c12.98-1.74,25.96-3.47,38.86-5.73c6.12-1.07,12.28-1.96,18.31-3.42c4.04-0.98,8.22-1.29,12.14-2.51c2.54-0.79,5.26-0.39,7.66-1.56
		c0.02-0.06,0.04-0.12,0.06-0.18c0.02,0.05,0.02,0.1,0.02,0.15c1.01,0.22,1.78-0.28,2.58-0.73c0.13-0.07,0.26-0.15,0.39-0.21
		c0.99,0.21,1.92-0.08,2.86-0.33c0.13-0.03,0.27-0.06,0.4-0.09c0.7-0.16,1.39-0.32,2.09-0.48c0.3-0.07,0.6-0.14,0.9-0.21
		c0.67-0.17,1.35-0.33,2.02-0.5c0.12-0.03,0.25-0.06,0.37-0.09c3.2-0.8,6.52-1.15,9.66-2.2c0.15-0.05,0.3-0.09,0.45-0.14
		c0.72,0,1.45,0.08,2.05-0.46c0.07,0.01,0.14,0.01,0.21,0.02c0.31,0.03,0.61-0.02,0.87-0.2c0.08-0.05,0.15-0.1,0.22-0.18
		c1.8-0.68,3.95-0.24,5.47-1.86c0.53-0.56,1.31,0.26,1.97,0.1c2.66-0.67,5.3-1.37,7.96-2.07c0.11-0.01,0.22-0.03,0.32-0.04
		c1.66-0.2,3.22-0.73,4.8-1.23c0.39-0.12,0.78-0.25,1.17-0.36c2.08-0.57,4.15-1.13,6.23-1.7c0.06,0,0.13-0.01,0.19-0.02
		c1.25-0.1,2.42-0.53,3.58-0.95c0.27-0.1,0.54-0.2,0.81-0.29l0,0c0.11,0,0.22-0.02,0.32-0.04c0.86-0.18,1.56-0.96,2.52-0.79
		c0.04,0.01,0.07,0,0.1,0.01c2.79-0.83,5.57-1.65,8.36-2.48c0.05-0.01,0.1-0.02,0.14-0.03c0.67-0.12,1.36-0.18,1.98-0.47
		c0.16-0.08,0.32-0.17,0.48-0.28c4.98-1.11,9.97-2.21,14.95-3.32c0.42-0.08,0.84-0.17,1.25-0.25c1.94-0.38,3.87-0.77,5.81-1.15
		c0.35-0.04,0.7-0.1,1.04-0.15c1.62-0.27,3.2-0.71,4.73-1.33c0.02-0.02,0.03-0.03,0.05-0.05c0,0.02,0,0.04-0.01,0.06
		c1.8,0.32,3.41-0.42,5.07-0.94c0.11,0,0.22-0.02,0.34-0.02c0.79-0.05,1.57-0.15,2.33-0.33c0.53-0.12,1.05-0.27,1.56-0.48
		c1.07-0.97,2.64,0.17,3.69-0.87c0.22-0.04,0.43-0.08,0.65-0.12c1.33-0.23,2.68-0.35,3.98-0.69c0.43-0.11,0.86-0.24,1.28-0.41
		c0.13-0.13,0.26-0.26,0.39-0.39c0.05,0.01,0.09,0,0.14,0.01c1.57,0.13,3.03-0.35,4.51-0.75c0.13-0.04,0.26-0.07,0.4-0.11
		c1.65-0.4,3.29-0.8,4.94-1.2c0-0.02,0.01-0.05,0.01-0.07c0.05,0.01,0.1,0.02,0.14,0.03l0.15,0.06l0.11-0.12l0,0l0,0
		c7.4-1.99,14.91-3.5,22.26-5.75c4.54-1.39,9.18-2.76,13.86-3.86c0.8-0.19,1.56-0.54,2.34-0.81l0,0c-0.32-0.06-0.72,0-0.97-0.17
		c0.25,0.17,0.65,0.11,0.97,0.17h0.01c0.14-0.24,0.34-0.34,0.57-0.34c-0.23,0-0.42,0.1-0.56,0.35c0.31,0.07,0.59,0.06,0.76-0.22
		c0.02-0.03,0.04-0.05,0.06-0.09c0.62,0.04,1.15-0.17,1.61-0.56c0.06,0,0.11-0.02,0.16-0.02c0.86-0.08,1.67-0.35,2.43-0.75
		c1.13-0.31,2.3-0.47,3.29-1.18c0-0.01,0-0.01,0-0.01c-0.02-0.02-0.05-0.03-0.08-0.05c0.03,0.02,0.05,0.03,0.08,0.05l0.01,0.01
		c4.29-1.02,8.23-3.05,12.51-4.23c-3.86,3.7-7.29,7.77-11.37,11.19c-0.02,0-0.03,0-0.05,0c-0.2,0.01-0.33,0.11-0.34,0.34l0,0
		c-2.11,1.34-3.93,3.05-5.81,4.69c-0.03,0.02-0.07,0.05-0.1,0.07c-2.78,1.96-5.4,4.12-7.88,6.45c-0.01,0.01-0.01,0.02-0.02,0.03
		c-0.01,0-0.01,0-0.02,0c-0.68,0.59-1.36,1.19-2.04,1.78c-0.08,0.06-0.16,0.12-0.24,0.18c-2.3,1.65-4.36,3.6-6.46,5.5
		c-0.01,0.02-0.01,0.04-0.02,0.06c-0.01-0.01-0.02-0.02-0.03-0.03C888.25,561.69,886.26,561.32,884.79,562.39z M903.63,572.87
		c0,0.01-0.01,0.02-0.01,0.02v0.01l0,0C903.63,572.9,903.63,572.88,903.63,572.87L903.63,572.87
		C903.63,572.87,903.64,572.88,903.63,572.87L903.63,572.87z M910.29,570.76C910.29,570.76,910.3,570.76,910.29,570.76
		c0,0,0,0.01-0.01,0.01C910.29,570.77,910.29,570.76,910.29,570.76z M953,532.44c-1.42,2.11-3.62,3.48-5.09,5.53
		c0,0.06,0,0.12,0,0.19c-0.05,0-0.09,0.01-0.15,0.01c-1.66,1.34-3.32,2.68-4.98,4.02c-0.01,0-0.01,0.01-0.01,0.01s0.01,0,0.02-0.01
		c-0.01,0-0.02,0.01-0.02,0.01c0.07,0.66,0.35,1.08,1.01,1.41c-0.67-0.33-0.94-0.75-1.03-1.4c-2.83,2.15-6.18,3.37-9.22,5.13h-0.01
		c-0.24,0.1-0.48,0.2-0.73,0.3c-0.14,0.06-0.28,0.12-0.42,0.18c-0.61-0.93,0.38-1.14,0.76-1.54c2.11-2.26,4.51-4.23,6.42-6.68
		c-0.01-0.02-0.03-0.04-0.04-0.06c0.04-0.01,0.08-0.03,0.12-0.03c0.4-0.22,0.85-0.38,1.04-0.85c0.01-0.03,0.03-0.05,0.04-0.08
		c2.92-2.66,5.58-5.56,8.07-8.61c0-0.01-0.01-0.02-0.01-0.02c0.02-0.01,0.04-0.02,0.06-0.03c1.62-1.94,3.25-3.87,4.87-5.81
		c0-0.03,0-0.05-0.01-0.08c0.05-0.02,0.09-0.04,0.14-0.06c1.33-1.42,2.65-2.85,3.7-4.51l0,0l0,0l0,0l0,0c1.05-1.01,2-2.11,2.76-3.36
		c0.01-0.02,0.03-0.04,0.04-0.06c0.55-0.44,0.95-0.98,1.21-1.64c0.03-0.03,0.05-0.06,0.08-0.08c1.86-1.83,2.97-4.3,5-5.98
		c-0.01,0-0.01,0-0.01,0c-2.25,1.08-3.45,3.04-4.55,5.08c1.1-2.04,2.3-4.01,4.54-5.09c0,0,0.01,0,0.01,0.01
		c0.01-0.01,0.02-0.02,0.04-0.03c0.12,0.04,0.25,0.09,0.37,0.13c0.11,0.04,0.23,0.08,0.34,0.12c-1.65,4.23-4.06,8.07-6.24,12.02
		c-0.1,0.14-0.19,0.28-0.29,0.42C958.23,524.79,955.58,528.59,953,532.44z M993.32,462.52c-1.17,1.18-2.46,2.92-3.93,2.79
		c-0.99-0.09-0.86-2.54-1.04-3.89c-0.56-4.25-2.08-8.29-2.57-12.54c0-0.03-0.01-0.06-0.02-0.1c-0.09-1.01-1.38-1.53-1.17-2.62
		c0.31-1.67-0.54-3.07-0.98-4.55c-0.05-0.18-0.1-0.36-0.14-0.55c0.01-0.21,0-0.43-0.09-0.63c0.03-0.12-0.01-0.22-0.11-0.29
		c-0.04-0.06-0.08-0.11-0.12-0.17c-0.44-0.65-0.96-1.26-1.05-2.09c-0.08-0.74,0.36-1.55-0.16-2.22c-0.06-0.08-0.12-0.15-0.21-0.22
		c-1.71-4.5-3.22-9.09-5.21-13.46c-1.55-3.4-2.37-7.12-4.56-10.22c-0.64-0.91-0.26-2.04-0.73-2.97c-0.11-0.25-0.22-0.51-0.32-0.76
		c-0.18-0.41-0.35-0.83-0.53-1.24c-0.13-0.31-0.26-0.62-0.4-0.93c-1.67-4.17-3.15-8.43-5.08-12.47c-1.19-2.49-1.64-5.28-3.21-7.59
		c-0.06-0.13-0.12-0.26-0.18-0.38c-0.47-1.01-0.95-2.01-1.42-3.02c-0.05-0.1-0.09-0.2-0.14-0.3c-0.56-2.49-1.75-4.73-2.83-7.01
		c-1.22-2.59-2.54-5.13-3.66-7.76c-0.38-0.89-1.25-1.4-1.46-2.35c-0.02-0.08-0.04-0.15-0.06-0.22c-0.21-0.87-0.57-1.67-1.13-2.38
		c-0.63-1.49-1.24-3-2.47-4.13c0.02-0.8-0.45-1.44-0.76-2.12c-1.45-3.24-3.81-5.94-5.42-9.08c-0.02-0.05-0.05-0.09-0.08-0.14
		c-0.38-0.46-1.06-0.51-1.29-1.22c-0.93-2.88-2.88-5.11-4.59-7.55c-1.76-2.52-4.13-4.58-5.5-7.38c-0.22-0.22-0.42-0.46-0.61-0.71
		c-0.84-1.08-1.49-2.31-2.66-3.1c-0.01,0.01-0.03,0.02-0.04,0.03c-0.01-0.01-0.01-0.02-0.01-0.02c-0.21-0.01-0.44-0.06-0.57,0.04
		c0.13-0.1,0.37-0.04,0.57-0.05c0.01,0,0.03,0,0.05,0c-0.55-0.71-1.09-1.42-1.64-2.13c-1.25-1.53-2.49-3.05-3.74-4.58
		c-0.96-0.89-1.9-1.8-2.63-2.9c-0.11-0.16-0.22-0.31-0.32-0.48c-0.54,0.97-0.1,2.04-0.14,3.18v0.02c0,0,0,0-0.01-0.01v-0.01
		c0.04-1.14-0.4-2.21,0.15-3.18c-3.34-2.8-5.38-6.82-8.88-9.46c-0.09-0.11-0.2-0.2-0.29-0.3c-1.53-1.64-3.36-2.93-5.08-4.34
		c-0.99-1.77-3-2.56-4.08-4.24c-0.95-1.18-2.16-2.06-3.43-2.86c-4.56-4.25-10-7.27-15.06-10.81c-1.61-1.39-3.33-2.59-5.31-3.38
		c-0.02-0.01-0.03-0.01-0.04-0.02c0,0,0,0.01-0.01,0.01l0,0l0,0l0,0l0,0c-0.09-0.12-0.18-0.21-0.29-0.29c-0.07,0-0.13,0-0.2,0
		c-0.17-0.1-0.33-0.2-0.5-0.3c-1.9-1.15-3.8-2.3-5.69-3.45c-0.29-0.18-0.58-0.35-0.87-0.53c-0.44-0.47-1.02-0.68-1.62-0.85
		c-0.24-0.13-0.47-0.29-0.7-0.45c-0.76-0.54-1.5-1.13-2.57-0.85c-0.02,0.01-0.04,0-0.07,0.01c-0.01-0.01-0.02-0.02-0.02-0.04
		c-0.33-0.54-0.75-0.97-1.36-1.15c-0.1-0.03-0.19-0.07-0.29-0.08c-3.09-1.73-6.46-2.85-9.67-4.3c-6.44-2.92-13.02-5.46-19.57-8.09
		c-1.95-0.78-4.18-0.76-5.93-2.09c0.14-0.07,0.27-0.15,0.41-0.22c0.17-0.09,0.34-0.18,0.51-0.28c4.18,1.08,8.37,2.13,12.53,3.25
		c4.42,1.18,8.8,2.48,13.23,3.63c5.49,1.43,10.88,3.14,16.23,5.01c0.85,0.3,1.74,0.46,2.61,0.69c0.53,0.19,1.05,0.38,1.58,0.57
		c3.02,1.09,6.04,2.18,9.06,3.27c0.03,0.01,0.08,0,0.12-0.01c0.03-0.01,0.06-0.02,0.09-0.02c0.33,0.27,0.7,0.47,1.15,0.41
		c0.28,0.1,0.56,0.21,0.84,0.31c7.67,2.82,15.34,5.64,23.01,8.46c0.78,0.57,1.74,0.49,2.62,0.72c0.69,0.26,1.22,0.93,2.05,0.84
		c1.24,0.45,2.49,0.89,3.73,1.34c0.23,0.55,0.57,0.94,1.24,0.84c2.19-0.26,3.8,0.96,5.44,2.11c1.91,0.86,4.16,0.99,5.65,2.75
		c0.16,0.19,0.65,0.11,0.98,0.16c0.69,0.31,1.39,0.62,2.09,0.92c0.16,0.1,0.32,0.2,0.48,0.29c1.24,0.59,2.49,1.17,3.73,1.76
		c0.17,0.38,0.52,0.34,0.85,0.35c0.42,0.14,0.84,0.29,1.26,0.43c0.75,1.29,2.48,0.58,3.33,1.66c0.95,0.62,2.21,0.66,2.98,1.61
		c0.27,0.46,0.69,0.72,1.17,0.91c0.95,0.62,2.42,0.29,3,1.6c0.13-0.1,0.22-0.23,0.29-0.37c0,0,0.01,0,0.01,0.01
		c-0.08,0.14-0.17,0.26-0.3,0.36c1.07,0.64,2,1.55,3.31,1.74c4.02,2.79,8.04,5.58,12.06,8.37c0.94,0.96,2.99,0.58,3.12,2.57
		c0.01,0.12,0.45,0.21,0.69,0.32c1.55,0.9,2.82,2.27,4.28,3.15c1.5,0.9,2.83,1.9,4.08,3.07c-0.15,0.57,0.23,0.89,0.6,1.2
		c2.73,2.24,5.46,4.48,8.19,6.73c0.06,0.04,0.11,0.08,0.17,0.12c1.01,0.73,2.27,1.25,2.21,2.87c-0.01,0.2,0.32,0.58,0.51,0.59
		c2.78,0.14,2.47,3.81,4.93,4.28c0.67,2.06,2.73,2.97,3.86,4.66c1.65,1.83,4.08,2.94,5.05,5.41c0.13,0.24,0.22,0.52,0.41,0.7
		c2.51,2.51,5.4,4.7,6.86,8.1c0.14,0.32,0.41,1.01,1.06,0.45c0.79,0.28,0.87,0.9,0.79,1.61c-0.12,0.67,0.29,1.02,0.79,1.32
		c1.63,0.56,2.73,1.53,2.71,3.42c0,0.3,0.09,0.56,0.25,0.79c0.11,0.14,0.24,0.27,0.43,0.36c-0.15-0.25-0.15-0.51-0.09-0.78
		c0.04,0.26,0.07,0.52,0.09,0.78c0.16,0.26,0.32,0.52,0.49,0.78c0.06,0.08,0.11,0.15,0.16,0.23c0.23,0.32,0.45,0.64,0.68,0.95
		c0.12,0.17,0.24,0.34,0.36,0.51c0.95,1.41,1.9,2.83,2.84,4.24c0.08,0.1,0.14,0.22,0.18,0.33c0.35,0.83-0.1,1.88,0.44,2.67
		c0.07,0.11,0.15,0.21,0.26,0.3c0.01,0.03,0.02,0.06,0.03,0.09c0.24,0.75,0.42,1.54,0.97,2.13c0.09,0.09,0.18,0.17,0.28,0.25
		c0.03,0.04,0.04,0.09,0.07,0.13c0.93,1.65,0.36,3.64,1.17,5.31c0.14,0.28,0.28,0.55,0.42,0.83c0,0.72-0.12,1.46,0.04,2.16
		c0.06,0.28,0.17,0.55,0.34,0.81c1.16,3.4,0.29,6.88,0.42,10.32l0,0l0,0c-0.13,0.45-0.21,0.91-0.26,1.37
		c-0.16,1.43-0.05,2.9-0.38,4.32c-0.05,0.21-0.1,0.42-0.17,0.62c-0.09,0.25-0.13,0.51-0.14,0.77c-0.02,0.1-0.04,0.21-0.06,0.31
		c-0.19,1.04-0.39,2.07-0.58,3.11c-0.06,1.16,0.29,2.33-0.02,3.48c-0.02,0.08-0.04,0.16-0.07,0.24c-1.3,1.69-1.9,3.58-1.72,5.72
		c0.03,0.32,0,0.73-0.18,0.97c-2.3,3.01-3.18,6.68-4.75,10.03c-0.08,0.16-0.16,0.32-0.25,0.48c-0.59,1.15-1.19,2.3-1.78,3.45
		c-0.04,0.07-0.07,0.14-0.11,0.21c-0.83,1.52-1.66,3.04-2.49,4.56c-0.24,0.42-0.49,0.83-0.73,1.25c-0.23,0.4-0.47,0.81-0.7,1.21
		c-0.1,0.16-0.19,0.33-0.29,0.49c-2.53,4-4.83,8.18-7.66,11.94C999.68,454.74,996.88,458.94,993.32,462.52z"/>
	<path class="st0" d="M234,525.3l0.01,0.01L234,525.3z"/>
	<path class="st0" d="M190.99,537.78c0.01-0.01,0.01-0.01,0.01-0.02L190.99,537.78C190.98,537.78,190.99,537.78,190.99,537.78z"/>
	<path class="st0" d="M256.96,518.56h-0.01l0,0c0,0.01,0,0.02,0,0.03c0.01,0,0.02,0,0.03,0
		C256.96,518.58,256.96,518.57,256.96,518.56z"/>
	<path class="st0" d="M191,537.76c-0.01,0-0.02,0-0.02,0c0,0.01,0,0.01,0,0.02L191,537.76z"/>
	<polygon class="st0" points="256.54,521.08 256.54,521.08 256.54,521.08 	"/>
	<path class="st0" d="M1030.91,387.06L1030.91,387.06c0,0.01,0,0.01,0,0.01h0.01l0,0L1030.91,387.06z"/>
	<path class="st0" d="M922.75,504.8l0.01-0.01C922.76,504.79,922.75,504.79,922.75,504.8C922.75,504.79,922.75,504.8,922.75,504.8z"
		/>
	<path class="st0" d="M873.07,565.72c0.01,0.01,0.02,0.02,0.03,0.03c0-0.01,0-0.02,0-0.03H873.07z"/>
	<polygon class="st0" points="860.99,569.08 861,569.08 861,569.07 	"/>
	<path class="st0" d="M153.44,359.12l-0.03-0.02c0,0.01,0.01,0.01,0.01,0.01C153.43,359.12,153.44,359.12,153.44,359.12z"/>
	<path class="st0" d="M153.44,359.12c0,0,0-0.02-0.01-0.03c-0.01,0-0.01,0.01-0.01,0.01L153.44,359.12z"/>
	<polygon class="st0" points="153.42,359.09 153.41,359.1 153.44,359.12 	"/>
	<path class="st0" d="M913.97,256.45L913.97,256.45c0.01,0.01,0.01,0.01,0.01,0.01C913.97,256.45,913.97,256.45,913.97,256.45z"/>
	<path class="st0" d="M896.04,331.97c-0.01,0-0.02,0-0.02,0.01c0,0,0.02,0,0.04,0C896.05,331.97,896.04,331.97,896.04,331.97z"/>
</g>
<g>
	<g>
		<path class="st0" d="M589.58-10.46c-4.66,42.96-4.81,86.27-0.44,129.26c0.49,4.84,3.78,9,9,9c4.49,0,9.49-4.13,9-9
			c-4.37-42.99-4.22-86.3,0.44-129.26c0.52-4.84-4.51-9-9-9C593.27-19.46,590.1-15.31,589.58-10.46L589.58-10.46z"/>
	</g>
</g>
<g>
	<g>
		<path class="st0" d="M558.06,102.77c5.94,7,12.82,13,19.56,19.21c3.37,3.11,6.67,6.28,9.73,9.69c3.46,3.86,6.9,7.32,12.68,5.78
			c3.89-1.04,7.02-4.52,9.96-7.13c3.17-2.82,6.28-5.72,9.38-8.62c6.28-5.88,12.51-11.84,19.11-17.37c3.73-3.12,3.22-9.5,0-12.73
			c-3.69-3.69-8.99-3.13-12.73,0c-5.76,4.83-11.22,9.98-16.7,15.12c-2.77,2.6-5.54,5.2-8.34,7.76c-1.33,1.22-2.66,2.43-4.01,3.62
			c-0.73,0.65-1.47,1.29-2.21,1.93c-1.55,1.19-1.43,1.24,0.37,0.15c2.31,0.3,4.62,0.6,6.93,0.91c1.01,0.94,0.83,0.66-0.55-0.83
			c-0.77-0.88-1.55-1.75-2.34-2.61c-1.17-1.26-2.38-2.5-3.61-3.71c-2.62-2.59-5.35-5.07-8.07-7.55
			c-5.73-5.21-11.4-10.44-16.43-16.35c-3.15-3.71-9.49-3.24-12.73,0C554.39,93.72,554.91,99.06,558.06,102.77L558.06,102.77z"/>
	</g>
</g>
<g>
	<g>
		<path class="st0" d="M795.06,45.94c-30.61,27.47-66.59,50.77-82.6,90.37c-1.82,4.51,1.98,9.89,6.29,11.07
			c5.14,1.41,9.24-1.76,11.07-6.29c14.45-35.73,50.43-57.7,77.97-82.43C816.42,50.91,803.66,38.22,795.06,45.94L795.06,45.94z"/>
	</g>
</g>
<g>
	<g>
		<path class="st0" d="M706.88,102.39c-0.78,8.26-0.73,16.52,0.3,24.76c0.94,7.55,1.43,17.65,8.48,22.27
			c6.78,4.44,15.81,2.09,23.22,0.8c7.97-1.39,15.78-3.45,23.44-6.04c10.92-3.69,6.23-21.08-4.79-17.36
			c-5.6,1.89-11.26,3.52-17.04,4.78c-2.73,0.6-5.48,1.12-8.24,1.57c-0.78,0.13-7.74,0.4-8,0.84c0.86,0.52,1.71,1.04,2.57,1.56
			c-0.11-0.47-0.23-0.94-0.34-1.41c0.11-1.27-0.68-3.36-0.91-4.68c-0.46-2.66-0.77-5.33-0.96-8.02c-0.47-6.36-0.32-12.72,0.28-19.06
			c0.46-4.85-4.47-9-9-9C710.63,93.39,707.34,97.53,706.88,102.39L706.88,102.39z"/>
	</g>
</g>
<g>
	<g>
		<path class="st0" d="M366.44,80.65c32.23,17.61,61.66,39.57,87.66,65.51c8.21,8.19,20.94-4.53,12.73-12.73
			c-27.02-26.94-57.82-50.03-91.31-68.32C365.35,59.55,356.26,75.08,366.44,80.65L366.44,80.65z"/>
	</g>
</g>
<g>
	<g>
		<path class="st0" d="M452.16,104.58c1.05,12.18,2.1,24.36,3.15,36.54c3-3,6-6,9-9c-15.47-0.68-30.89,0.61-46.36-0.07
			c-11.58-0.51-11.56,17.49,0,18c15.47,0.68,30.89-0.61,46.36,0.07c4.56,0.2,9.41-4.3,9-9c-1.05-12.18-2.1-24.36-3.15-36.54
			c-0.42-4.84-3.84-9-9-9C456.62,95.58,451.74,99.71,452.16,104.58L452.16,104.58z"/>
	</g>
</g>
</svg>
