<?xml version="1.0" encoding="utf-8"?>
<!-- Generator: Adobe Illustrator 26.0.1, SVG Export Plug-In . SVG Version: 6.00 Build 0)  -->
<svg version="1.1" id="레이어_1" xmlns="http://www.w3.org/2000/svg" xmlns:xlink="http://www.w3.org/1999/xlink" x="0px"
	 y="0px" viewBox="0 0 512 512" style="enable-background:new 0 0 512 512;" xml:space="preserve">
<style type="text/css">
	.st0{fill:#FFFFFF;}
</style>
<path class="st0" d="M160,95.1c0-44.2-35.8-80-80-80S0,50.9,0,95.1c0,33.7,19.8,61.8,48,74.1v173.6c-28.2,12.3-48,40.4-48,72.3
	c0,44.2,35.8,80,80,80s80-35.8,80-80c0-32.8-19.8-60.9-48-73.2V169.2C140.2,156.9,160,128.8,160,95.1z M80,439.1
	c-13.2,0-24-10.8-24-24s10.8-24,24-24s24,10.8,24,24S93.2,439.1,80,439.1z M80,119.1c-13.2,0-24-10.8-24-24s10.8-24,24-24
	s24,10.8,24,24S93.2,119.1,80,119.1z M464,342.8V160c0-52.9-43.1-96-96-96h-48V16c0-6.2-3.6-11.8-9.2-14.5c-5.6-2.6-12.2-1.8-17,2.2
	l-96,80c-3.7,3-5.8,7.5-5.8,11.4s2.1,10.1,5.8,13.2l96,80c2.9,2.4,6.5,2.8,10.2,2.8c2.3,0,4.6-0.5,6.8-1.5c5.6-1.8,9.2-7.4,9.2-14.5
	v-48h48c17.7,0,32,14.3,32,32v182.8c-28.2,12.4-48,40.5-48,73.2c0,44.2,35.8,80,80,80s80-35.8,80-80
	C512,383.2,492.2,355.1,464,342.8z M432,439.1c-13.2,0-24-10.8-24-24s10.8-24,24-24s24,10.8,24,24S445.2,439.1,432,439.1z"/>
</svg>
